M48
;Layer_Color=9474304
;FILE_FORMAT=2:5
INCH,LZ
;TYPE=PLATED
T1F00S00C0.01181
T3F00S00C0.02800
T4F00S00C0.03898
T5F00S00C0.03937
T6F00S00C0.04331
%
T01
X0094032Y0069532
Y0073469
X0097969
Y0069532
X0096Y00715
T03
X0035Y0012
X0055Y0052
X0084Y0061
X00755Y00795
X0106Y01125
X0095Y0134
X0154Y01253
X01454Y00965
X0132Y00934
X0118Y00505
X0157Y0055
X0175Y0052
Y0072
X0193Y01125
X0195Y0012
X0155
X0255Y0052
X02595Y00995
X02445Y0099
X0238289Y0119187
X025233Y0118687
X0251138Y012638
X025483Y0141688
X029983Y0142687
X030633Y0138688
X0331021Y0129969
X0322Y0118
X0315Y0092
X0355
X0362Y0062
X0367Y0054
X0355Y0012
X0315
X0277163Y0104865
X0274289Y0113188
X036Y0128
X0375Y0132
X0395Y0092
X0415Y0052
X0395Y0012
T04
X0246142Y0024205
X0263858
Y0049795
X0246142
T05
X001Y0089
X0017874
X0017937Y0117835
X0010063
Y0146835
X0017937
X0280126Y0152
X0288
X0285874Y0064
X0278
X0293748
X0301622
T06
X0155Y0032
X0165
X0175
M30
