M48
;Layer_Color=9474304
;FILE_FORMAT=2:5
INCH,LZ
;TYPE=PLATED
T1F00S00C0.01181
T2F00S00C0.02800
T3F00S00C0.03622
T4F00S00C0.03898
T5F00S00C0.03937
T6F00S00C0.04331
T7F00S00C0.09055
%
T01
X0339032Y0377532
X0341Y03795
X0342969Y0377532
Y0381469
X0339032
T02
X0329Y0369
X0338Y03665
X03465Y0366
X0363Y03585
X0355Y03835
X03445Y04005
X0332Y04045
X03205Y03875
X0351Y04205
X034Y0442
X0375Y04045
X039Y04
X04215Y038
X0438Y042
X0483459Y04275
X04975Y0427
X0496308Y0434692
X05Y045
X0545Y0451
X05515Y0447
X057Y042
X0595
X059Y0425
X0615Y0425921
X0585Y04
X0535Y0417
X0522333Y0413177
X0519459Y04215
X05045Y04075
X04895Y0407
T03
X0370079Y0450728
Y0458602
X0379921
Y0450728
T04
X0491142Y0332205
X0508858
Y0357795
X0491142
T05
X0255Y0397
X0262874
X0262937Y0425835
X0255063
Y0454835
X0262937
X0530126Y0468
X0538
X0538748Y0372
X0530874
X0523
X0546622
T06
X04Y034
X041
X042
T07
X0351299Y0469272
X0398701
M30
