G04*
G04 #@! TF.GenerationSoftware,Altium Limited,Altium Designer,21.2.0 (30)*
G04*
G04 Layer_Color=16711935*
%FSLAX25Y25*%
%MOIN*%
G70*
G04*
G04 #@! TF.SameCoordinates,1891EFD9-0032-4EA4-A798-630DAF25FF75*
G04*
G04*
G04 #@! TF.FilePolarity,Positive*
G04*
G01*
G75*
%ADD11C,0.00787*%
%ADD12C,0.01000*%
%ADD13C,0.00500*%
%ADD15C,0.00630*%
%ADD16C,0.00394*%
%ADD17C,0.00197*%
D11*
X223822Y150443D02*
G03*
X223822Y150443I-394J0D01*
G01*
X242618Y24618D02*
X267382D01*
Y49382D01*
X242618D02*
X267382D01*
X242618Y24618D02*
Y49382D01*
X222154Y98272D02*
X228846D01*
Y94728D02*
Y98272D01*
X222154Y94728D02*
X228846D01*
X222154D02*
Y98272D01*
X104291Y7228D02*
Y10772D01*
Y7228D02*
X109803D01*
Y10772D01*
X104291D02*
X109803D01*
X122244Y28228D02*
Y31772D01*
Y28228D02*
X127756D01*
Y31772D01*
X122244D02*
X127756D01*
X76252Y131945D02*
Y150055D01*
X87748D01*
Y131945D02*
Y150055D01*
X76252Y131945D02*
X87748D01*
X53252Y132945D02*
Y151055D01*
X64748D01*
Y132945D02*
Y151055D01*
X53252Y132945D02*
X64748D01*
X223822Y150443D02*
G03*
X223822Y150443I-394J0D01*
G01*
D12*
X429000Y0D02*
Y167000D01*
X0D02*
X429000D01*
X0Y0D02*
Y167000D01*
Y0D02*
X429000D01*
D13*
X225397Y105168D02*
Y166191D01*
Y105168D02*
X266735D01*
Y166191D01*
X225397D02*
X266735D01*
X225397Y105168D02*
Y166191D01*
Y105168D02*
X266735D01*
Y166191D01*
X225397D02*
X266735D01*
D15*
X90000Y73074D02*
Y70450D01*
X90525Y69925D01*
X91574D01*
X92099Y70450D01*
Y73074D01*
X95248Y69925D02*
X93149D01*
X95248Y72024D01*
Y72549D01*
X94723Y73074D01*
X93673D01*
X93149Y72549D01*
D16*
X95606Y73862D02*
G03*
X95606Y73862I-1969J0D01*
G01*
D02*
G03*
X95606Y73862I-1969J0D01*
G01*
X112790Y153190D02*
G03*
X111018Y151418I-0J-1772D01*
G01*
X110034Y146753D02*
G03*
X113183Y143603I3150J0D01*
G01*
X113183Y155807D02*
G03*
X110034Y152658I-0J-3149D01*
G01*
X111018Y144824D02*
G03*
X113183Y142225I2382J-216D01*
G01*
X117810Y141438D02*
G03*
X120959Y138288I3150J-0D01*
G01*
X140546Y151418D02*
G03*
X138774Y153190I-1772J-0D01*
G01*
X138380Y143603D02*
G03*
X141530Y146753I0J3150D01*
G01*
Y152658D02*
G03*
X138379Y155807I-3150J-1D01*
G01*
X138380Y142225D02*
G03*
X140546Y144824I-216J2382D01*
G01*
X130605Y138288D02*
G03*
X133754Y141438I0J3150D01*
G01*
X423949Y30266D02*
Y142864D01*
X314502Y30266D02*
Y142864D01*
X423949D01*
X314502Y30266D02*
X423949D01*
X272449Y140976D02*
X295677D01*
Y158693D01*
X272449Y140976D02*
Y158693D01*
X295677D01*
X90095Y65595D02*
Y77406D01*
X101906Y65595D02*
Y77406D01*
X90095D02*
X101906D01*
X90095Y65595D02*
X101906D01*
X2386Y128858D02*
X25614D01*
X2386Y111142D02*
Y128858D01*
X25614Y111142D02*
Y128858D01*
X2386Y111142D02*
X25614D01*
X2323Y82307D02*
X25551D01*
Y100024D01*
X2323Y82307D02*
Y100024D01*
X25551D01*
X90094Y65594D02*
Y77406D01*
X101906Y65594D02*
Y77406D01*
X90094D02*
X101906D01*
X2386Y140142D02*
X25614D01*
Y157858D01*
X2386Y140142D02*
Y157858D01*
X25614D01*
X206457Y145354D02*
X213543D01*
X206457Y158740D02*
X213543D01*
X206457Y145354D02*
Y158740D01*
X213543Y145354D02*
Y158740D01*
X199594Y55594D02*
Y67406D01*
Y55594D02*
X211406D01*
Y67406D01*
X199594D02*
X211406D01*
X199594Y55594D02*
X211405D01*
Y67405D01*
X199594D02*
X211405D01*
X199594Y55594D02*
Y67405D01*
X199748Y133520D02*
Y148480D01*
X168252D02*
X199748D01*
X168252Y133520D02*
Y148480D01*
Y133520D02*
X199748D01*
X143937Y20780D02*
X186063D01*
Y39283D01*
X143937Y20780D02*
Y39283D01*
X186063D01*
X143937Y26291D02*
X186063D01*
X270323Y70693D02*
X309299D01*
Y52976D02*
Y70693D01*
X270323Y52976D02*
Y70693D01*
Y52976D02*
X309299D01*
X110034Y146753D02*
Y152658D01*
X111018Y144824D02*
Y151418D01*
X113183Y143603D02*
X117809D01*
Y141438D02*
Y143603D01*
X141530Y146753D02*
Y152658D01*
X140546Y144824D02*
Y151418D01*
X112790Y153190D02*
X138774D01*
X113183Y142225D02*
X138380D01*
X133754Y143603D02*
X138380D01*
X113183Y155807D02*
X138379D01*
X133754Y141438D02*
Y143603D01*
X120959Y138288D02*
X130605D01*
X198992Y49543D02*
X212378D01*
X198992Y42457D02*
X212378D01*
X198992D02*
Y49543D01*
X212378Y42457D02*
Y49543D01*
X181457Y73878D02*
X188543D01*
X181457Y60492D02*
X188543D01*
Y73878D01*
X181457Y60492D02*
Y73878D01*
X160957Y74378D02*
X168043D01*
X160957Y60992D02*
X168043D01*
Y74378D01*
X160957Y60992D02*
Y74378D01*
X114457Y62260D02*
X121543D01*
X114457Y75646D02*
X121543D01*
X114457Y62260D02*
Y75646D01*
X121543Y62260D02*
Y75646D01*
X125957Y62354D02*
X133043D01*
X125957Y75740D02*
X133043D01*
X125957Y62354D02*
Y75740D01*
X133043Y62354D02*
Y75740D01*
X263992Y82457D02*
Y89543D01*
X277378Y82457D02*
Y89543D01*
X263992D02*
X277378D01*
X263992Y82457D02*
X277378D01*
X207457Y131693D02*
X214543D01*
X207457Y118307D02*
X214543D01*
Y131693D01*
X207457Y118307D02*
Y131693D01*
X250457Y76693D02*
X257543D01*
X250457Y63307D02*
X257543D01*
Y76693D01*
X250457Y63307D02*
Y76693D01*
X95606Y73862D02*
G03*
X95606Y73862I-1969J0D01*
G01*
D02*
G03*
X95606Y73862I-1969J0D01*
G01*
X112790Y153190D02*
G03*
X111018Y151418I-0J-1772D01*
G01*
X110034Y146753D02*
G03*
X113183Y143603I3150J0D01*
G01*
X113183Y155807D02*
G03*
X110034Y152658I-0J-3149D01*
G01*
X111018Y144824D02*
G03*
X113183Y142225I2382J-216D01*
G01*
X117810Y141438D02*
G03*
X120959Y138288I3150J-0D01*
G01*
X140546Y151418D02*
G03*
X138774Y153190I-1772J-0D01*
G01*
X138380Y143603D02*
G03*
X141530Y146753I0J3150D01*
G01*
Y152658D02*
G03*
X138379Y155807I-3150J-1D01*
G01*
X138380Y142225D02*
G03*
X140546Y144824I-216J2382D01*
G01*
X130605Y138288D02*
G03*
X133754Y141438I0J3150D01*
G01*
X423949Y30266D02*
Y142864D01*
X314502Y30266D02*
Y142864D01*
X423949D01*
X314502Y30266D02*
X423949D01*
X272449Y140976D02*
X295677D01*
Y158693D01*
X272449Y140976D02*
Y158693D01*
X295677D01*
X90095Y65595D02*
Y77406D01*
X101906Y65595D02*
Y77406D01*
X90095D02*
X101906D01*
X90095Y65595D02*
X101906D01*
X2386Y128858D02*
X25614D01*
X2386Y111142D02*
Y128858D01*
X25614Y111142D02*
Y128858D01*
X2386Y111142D02*
X25614D01*
X2323Y82307D02*
X25551D01*
Y100024D01*
X2323Y82307D02*
Y100024D01*
X25551D01*
X90094Y65594D02*
Y77406D01*
X101906Y65594D02*
Y77406D01*
X90094D02*
X101906D01*
X2386Y140142D02*
X25614D01*
Y157858D01*
X2386Y140142D02*
Y157858D01*
X25614D01*
X206457Y145354D02*
X213543D01*
X206457Y158740D02*
X213543D01*
X206457Y145354D02*
Y158740D01*
X213543Y145354D02*
Y158740D01*
X199594Y55594D02*
Y67406D01*
Y55594D02*
X211406D01*
Y67406D01*
X199594D02*
X211406D01*
X199594Y55594D02*
X211405D01*
Y67405D01*
X199594D02*
X211405D01*
X199594Y55594D02*
Y67405D01*
X199748Y133520D02*
Y148480D01*
X168252D02*
X199748D01*
X168252Y133520D02*
Y148480D01*
Y133520D02*
X199748D01*
X143937Y20780D02*
X186063D01*
Y39283D01*
X143937Y20780D02*
Y39283D01*
X186063D01*
X143937Y26291D02*
X186063D01*
X270323Y70693D02*
X309299D01*
Y52976D02*
Y70693D01*
X270323Y52976D02*
Y70693D01*
Y52976D02*
X309299D01*
X110034Y146753D02*
Y152658D01*
X111018Y144824D02*
Y151418D01*
X113183Y143603D02*
X117809D01*
Y141438D02*
Y143603D01*
X141530Y146753D02*
Y152658D01*
X140546Y144824D02*
Y151418D01*
X112790Y153190D02*
X138774D01*
X113183Y142225D02*
X138380D01*
X133754Y143603D02*
X138380D01*
X113183Y155807D02*
X138379D01*
X133754Y141438D02*
Y143603D01*
X120959Y138288D02*
X130605D01*
X198992Y49543D02*
X212378D01*
X198992Y42457D02*
X212378D01*
X198992D02*
Y49543D01*
X212378Y42457D02*
Y49543D01*
X181457Y73878D02*
X188543D01*
X181457Y60492D02*
X188543D01*
Y73878D01*
X181457Y60492D02*
Y73878D01*
X160957Y74378D02*
X168043D01*
X160957Y60992D02*
X168043D01*
Y74378D01*
X160957Y60992D02*
Y74378D01*
X114457Y62260D02*
X121543D01*
X114457Y75646D02*
X121543D01*
X114457Y62260D02*
Y75646D01*
X121543Y62260D02*
Y75646D01*
X125957Y62354D02*
X133043D01*
X125957Y75740D02*
X133043D01*
X125957Y62354D02*
Y75740D01*
X133043Y62354D02*
Y75740D01*
X263992Y82457D02*
Y89543D01*
X277378Y82457D02*
Y89543D01*
X263992D02*
X277378D01*
X263992Y82457D02*
X277378D01*
X207457Y131693D02*
X214543D01*
X207457Y118307D02*
X214543D01*
Y131693D01*
X207457Y118307D02*
Y131693D01*
X250457Y76693D02*
X257543D01*
X250457Y63307D02*
X257543D01*
Y76693D01*
X250457Y63307D02*
Y76693D01*
X361203Y86565D02*
X365140D01*
X363171Y84596D02*
Y88533D01*
X284063Y147866D02*
Y151803D01*
X282095Y149835D02*
X286032D01*
X94032Y71500D02*
X97969D01*
X96000Y69532D02*
Y73469D01*
X14000Y118031D02*
Y121968D01*
X12031Y120000D02*
X15968D01*
X11968Y91165D02*
X15905D01*
X13937Y89197D02*
Y93134D01*
X12031Y149000D02*
X15968D01*
X14000Y147031D02*
Y150968D01*
X206260Y144173D02*
X213740D01*
X206260Y159921D02*
X213740D01*
X206260Y144173D02*
Y159921D01*
X213740Y144173D02*
Y159921D01*
X210000Y150079D02*
Y154016D01*
X208032Y152047D02*
X211969D01*
X203532Y61500D02*
X207469D01*
X205500Y59532D02*
Y63469D01*
X184000Y139032D02*
Y142969D01*
X182032Y141000D02*
X185969D01*
X165000Y30032D02*
Y33969D01*
X163031Y32000D02*
X166969D01*
X287843Y61835D02*
X291780D01*
X289811Y59866D02*
Y63803D01*
X125782Y145080D02*
Y149016D01*
X123813Y147048D02*
X127750D01*
X205685Y44031D02*
Y47969D01*
X203717Y46000D02*
X207654D01*
X197811Y49740D02*
X213559D01*
X197811Y42260D02*
X213559D01*
X197811D02*
Y49740D01*
X213559Y42260D02*
Y49740D01*
X181260Y75059D02*
X188740D01*
X181260Y59311D02*
X188740D01*
Y75059D01*
X181260Y59311D02*
Y75059D01*
X185000Y65217D02*
Y69154D01*
X183032Y67185D02*
X186969D01*
X160760Y75559D02*
X168240D01*
X160760Y59811D02*
X168240D01*
Y75559D01*
X160760Y59811D02*
Y75559D01*
X164500Y65717D02*
Y69654D01*
X162532Y67685D02*
X166469D01*
X114260Y61079D02*
X121740D01*
X114260Y76827D02*
X121740D01*
X114260Y61079D02*
Y76827D01*
X121740Y61079D02*
Y76827D01*
X118000Y66984D02*
Y70921D01*
X116032Y68953D02*
X119969D01*
X125760Y61173D02*
X133240D01*
X125760Y76921D02*
X133240D01*
X125760Y61173D02*
Y76921D01*
X133240Y61173D02*
Y76921D01*
X129500Y67079D02*
Y71016D01*
X127532Y69047D02*
X131469D01*
X262811Y82260D02*
Y89740D01*
X278559Y82260D02*
Y89740D01*
X262811D02*
X278559D01*
X262811Y82260D02*
X278559D01*
X268717Y86000D02*
X272654D01*
X270685Y84032D02*
Y87969D01*
X207260Y132874D02*
X214740D01*
X207260Y117126D02*
X214740D01*
Y132874D01*
X207260Y117126D02*
Y132874D01*
X211000Y123032D02*
Y126969D01*
X209032Y125000D02*
X212969D01*
X250260Y77874D02*
X257740D01*
X250260Y62126D02*
X257740D01*
Y77874D01*
X250260Y62126D02*
Y77874D01*
X254000Y68032D02*
Y71969D01*
X252032Y70000D02*
X255969D01*
D17*
X424344Y28545D02*
Y144683D01*
X312925D02*
X424344D01*
X312925Y28545D02*
Y144683D01*
Y28545D02*
X424344D01*
X272055Y140583D02*
X296071D01*
Y159087D01*
X272055Y140583D02*
Y159087D01*
X296071D01*
X88126Y63626D02*
Y79374D01*
X103874Y63626D02*
Y79374D01*
X88126D02*
X103874D01*
X88126Y63626D02*
X103874D01*
X1992Y129252D02*
X26008D01*
X1992Y110748D02*
Y129252D01*
X26008Y110748D02*
Y129252D01*
X1992Y110748D02*
X26008D01*
X1929Y81913D02*
X25945D01*
Y100417D01*
X1929Y81913D02*
Y100417D01*
X25945D01*
X88126Y63626D02*
Y79374D01*
X103874Y63626D02*
Y79374D01*
X88126D02*
X103874D01*
X88126Y63626D02*
X103874D01*
X224412Y104183D02*
Y151231D01*
Y104183D02*
X267720D01*
Y151231D01*
X270475D01*
Y167176D01*
X221657D02*
X270475D01*
X221657Y151231D02*
Y167176D01*
Y151231D02*
X224412D01*
X1992Y139748D02*
X26008D01*
Y158252D01*
X1992Y139748D02*
Y158252D01*
X26008D01*
X198610Y55201D02*
Y67799D01*
Y55201D02*
X212390D01*
Y67799D01*
X198610D02*
X212390D01*
X200142Y130567D02*
Y151433D01*
X167858D02*
X200142D01*
X167858Y130567D02*
Y151433D01*
Y130567D02*
X200142D01*
X269929Y71087D02*
X309693D01*
Y52583D02*
Y71087D01*
X269929Y52583D02*
Y71087D01*
Y52583D02*
X309693D01*
X141924Y137895D02*
Y156201D01*
X109640D02*
X141924D01*
X109640Y137895D02*
X141924D01*
X109640D02*
Y156201D01*
M02*
