G04*
G04 #@! TF.GenerationSoftware,Altium Limited,Altium Designer,21.0.9 (235)*
G04*
G04 Layer_Color=16711935*
%FSLAX25Y25*%
%MOIN*%
G70*
G04*
G04 #@! TF.SameCoordinates,D1A995C4-E234-4582-B38A-79D50AB79B9C*
G04*
G04*
G04 #@! TF.FilePolarity,Positive*
G04*
G01*
G75*
%ADD11C,0.00787*%
%ADD13C,0.00500*%
%ADD14C,0.01000*%
%ADD15C,0.00630*%
%ADD16C,0.00394*%
%ADD17C,0.00197*%
G36*
X499958Y351493D02*
X497995D01*
X497996Y351491D01*
X498000Y351487D01*
X498005Y351480D01*
X498012Y351471D01*
X498023Y351461D01*
X498033Y351447D01*
X498047Y351431D01*
X498061Y351414D01*
X498077Y351395D01*
X498094Y351372D01*
X498112Y351347D01*
X498129Y351321D01*
X498148Y351293D01*
X498168Y351263D01*
X498189Y351232D01*
X498208Y351199D01*
X498210Y351197D01*
X498213Y351190D01*
X498218Y351181D01*
X498225Y351169D01*
X498234Y351153D01*
X498245Y351134D01*
X498255Y351113D01*
X498268Y351090D01*
X498294Y351041D01*
X498320Y350987D01*
X498345Y350931D01*
X498367Y350875D01*
X498068D01*
X498066Y350878D01*
X498063Y350887D01*
X498056Y350899D01*
X498047Y350918D01*
X498035Y350941D01*
X498021Y350968D01*
X498005Y350995D01*
X497986Y351029D01*
X497965Y351062D01*
X497944Y351099D01*
X497919Y351135D01*
X497893Y351174D01*
X497837Y351251D01*
X497774Y351326D01*
X497772Y351328D01*
X497767Y351335D01*
X497756Y351345D01*
X497744Y351358D01*
X497728Y351374D01*
X497711Y351393D01*
X497690Y351412D01*
X497667Y351433D01*
X497643Y351456D01*
X497616Y351479D01*
X497559Y351524D01*
X497529Y351545D01*
X497499Y351566D01*
X497468Y351585D01*
X497438Y351601D01*
Y351800D01*
X499958D01*
Y351493D01*
D02*
G37*
G36*
Y349763D02*
Y349441D01*
X498045Y348915D01*
X498042D01*
X498035Y348911D01*
X498023Y348908D01*
X498007Y348904D01*
X497988Y348899D01*
X497966Y348894D01*
X497944Y348887D01*
X497919Y348880D01*
X497868Y348866D01*
X497844Y348859D01*
X497820Y348853D01*
X497798Y348847D01*
X497779Y348841D01*
X497763Y348838D01*
X497751Y348834D01*
X497753D01*
X497758Y348833D01*
X497767Y348831D01*
X497779Y348827D01*
X497795Y348824D01*
X497813Y348818D01*
X497832Y348815D01*
X497853Y348810D01*
X497898Y348797D01*
X497947Y348785D01*
X497996Y348771D01*
X498043Y348759D01*
X499958Y348231D01*
Y347887D01*
X497447Y347224D01*
Y347564D01*
X499093Y347945D01*
X499097D01*
X499106Y347949D01*
X499120Y347951D01*
X499137Y347956D01*
X499162Y347961D01*
X499188Y347966D01*
X499220Y347973D01*
X499255Y347982D01*
X499293Y347989D01*
X499333Y347998D01*
X499375Y348006D01*
X499419Y348017D01*
X499512Y348035D01*
X499608Y348052D01*
X499606D01*
X499603Y348054D01*
X499598D01*
X499590Y348056D01*
X499582Y348059D01*
X499571Y348061D01*
X499543Y348068D01*
X499513Y348075D01*
X499477Y348083D01*
X499438Y348094D01*
X499398Y348103D01*
X499318Y348124D01*
X499279Y348132D01*
X499242Y348141D01*
X499209Y348150D01*
X499181Y348157D01*
X499158Y348162D01*
X499150Y348164D01*
X499143Y348166D01*
X497447Y348642D01*
Y349043D01*
X498719Y349403D01*
X498721D01*
X498724Y349405D01*
X498731Y349406D01*
X498740Y349408D01*
X498752Y349412D01*
X498765Y349415D01*
X498782Y349420D01*
X498800Y349426D01*
X498819Y349431D01*
X498841Y349436D01*
X498864Y349441D01*
X498890Y349448D01*
X498947Y349462D01*
X499008Y349478D01*
X499074Y349494D01*
X499144Y349510D01*
X499218Y349527D01*
X499293Y349543D01*
X499372Y349559D01*
X499450Y349573D01*
X499608Y349599D01*
X499605D01*
X499598Y349601D01*
X499583Y349604D01*
X499566Y349608D01*
X499543Y349613D01*
X499517Y349618D01*
X499485Y349625D01*
X499450Y349634D01*
X499412Y349643D01*
X499370Y349652D01*
X499325Y349662D01*
X499277Y349674D01*
X499227Y349685D01*
X499172Y349699D01*
X499118Y349711D01*
X499060Y349725D01*
X497447Y350119D01*
Y350453D01*
X499958Y349763D01*
D02*
G37*
G36*
X499283Y346997D02*
X499302Y346995D01*
X499321Y346993D01*
X499345Y346990D01*
X499372Y346985D01*
X499400Y346977D01*
X499430Y346970D01*
X499461Y346962D01*
X499493Y346949D01*
X499526Y346937D01*
X499559Y346921D01*
X499594Y346904D01*
X499627Y346883D01*
X499629Y346881D01*
X499634Y346878D01*
X499645Y346871D01*
X499657Y346862D01*
X499671Y346850D01*
X499688Y346836D01*
X499708Y346818D01*
X499727Y346799D01*
X499750Y346776D01*
X499773Y346752D01*
X499795Y346724D01*
X499818Y346694D01*
X499841Y346662D01*
X499862Y346627D01*
X499883Y346591D01*
X499902Y346552D01*
X499904Y346550D01*
X499905Y346542D01*
X499911Y346531D01*
X499918Y346515D01*
X499925Y346495D01*
X499933Y346470D01*
X499942Y346444D01*
X499951Y346412D01*
X499960Y346377D01*
X499968Y346340D01*
X499977Y346300D01*
X499984Y346258D01*
X499991Y346214D01*
X499997Y346167D01*
X499998Y346120D01*
X500000Y346069D01*
Y346036D01*
X499998Y346013D01*
X499997Y345983D01*
X499995Y345949D01*
X499991Y345912D01*
X499988Y345870D01*
X499983Y345826D01*
X499975Y345780D01*
X499958Y345684D01*
X499948Y345635D01*
X499933Y345588D01*
X499920Y345541D01*
X499902Y345497D01*
X499900Y345495D01*
X499897Y345486D01*
X499892Y345474D01*
X499883Y345458D01*
X499872Y345439D01*
X499860Y345418D01*
X499844Y345392D01*
X499827Y345366D01*
X499808Y345338D01*
X499785Y345308D01*
X499760Y345278D01*
X499734Y345249D01*
X499704Y345219D01*
X499673Y345189D01*
X499640Y345163D01*
X499603Y345136D01*
X499601Y345135D01*
X499594Y345131D01*
X499582Y345124D01*
X499568Y345115D01*
X499548Y345107D01*
X499526Y345094D01*
X499501Y345082D01*
X499472Y345070D01*
X499440Y345058D01*
X499405Y345045D01*
X499368Y345033D01*
X499328Y345023D01*
X499286Y345014D01*
X499242Y345007D01*
X499198Y345002D01*
X499151Y345000D01*
X499123Y345313D01*
X499125D01*
X499132Y345315D01*
X499141D01*
X499155Y345318D01*
X499170Y345320D01*
X499190Y345324D01*
X499211Y345329D01*
X499233Y345334D01*
X499283Y345346D01*
X499335Y345366D01*
X499388Y345387D01*
X499435Y345415D01*
X499437Y345416D01*
X499440Y345418D01*
X499447Y345424D01*
X499454Y345430D01*
X499465Y345439D01*
X499477Y345450D01*
X499491Y345462D01*
X499505Y345478D01*
X499520Y345493D01*
X499536Y345513D01*
X499552Y345534D01*
X499568Y345556D01*
X499585Y345581D01*
X499601Y345609D01*
X499617Y345637D01*
X499631Y345668D01*
Y345670D01*
X499634Y345675D01*
X499638Y345686D01*
X499643Y345698D01*
X499648Y345714D01*
X499653Y345733D01*
X499660Y345756D01*
X499668Y345780D01*
X499675Y345808D01*
X499682Y345838D01*
X499687Y345870D01*
X499692Y345903D01*
X499701Y345976D01*
X499704Y346054D01*
Y346073D01*
X499703Y346085D01*
Y346102D01*
X499701Y346122D01*
X499699Y346143D01*
X499697Y346167D01*
X499690Y346220D01*
X499680Y346276D01*
X499668Y346333D01*
X499648Y346389D01*
Y346391D01*
X499645Y346396D01*
X499643Y346404D01*
X499638Y346414D01*
X499633Y346426D01*
X499625Y346439D01*
X499608Y346472D01*
X499585Y346507D01*
X499559Y346542D01*
X499529Y346577D01*
X499494Y346606D01*
X499493D01*
X499489Y346610D01*
X499484Y346614D01*
X499477Y346617D01*
X499468Y346624D01*
X499456Y346629D01*
X499430Y346643D01*
X499398Y346656D01*
X499361Y346668D01*
X499321Y346675D01*
X499277Y346678D01*
X499275D01*
X499272D01*
X499265D01*
X499258Y346676D01*
X499248D01*
X499235Y346675D01*
X499207Y346670D01*
X499176Y346661D01*
X499141Y346649D01*
X499106Y346631D01*
X499073Y346608D01*
X499071D01*
X499069Y346605D01*
X499057Y346596D01*
X499050Y346587D01*
X499041Y346579D01*
X499030Y346568D01*
X499020Y346554D01*
X499008Y346540D01*
X498997Y346522D01*
X498983Y346505D01*
X498971Y346484D01*
X498959Y346461D01*
X498947Y346437D01*
X498934Y346410D01*
X498922Y346382D01*
Y346381D01*
X498920Y346377D01*
X498918Y346370D01*
X498915Y346361D01*
X498910Y346349D01*
X498906Y346332D01*
X498899Y346312D01*
X498892Y346288D01*
X498885Y346260D01*
X498875Y346229D01*
X498866Y346192D01*
X498855Y346151D01*
X498843Y346104D01*
X498829Y346054D01*
X498815Y345997D01*
X498801Y345935D01*
Y345933D01*
X498800Y345931D01*
Y345926D01*
X498798Y345919D01*
X498793Y345901D01*
X498787Y345879D01*
X498780Y345850D01*
X498771Y345817D01*
X498761Y345782D01*
X498750Y345744D01*
X498726Y345663D01*
X498700Y345585D01*
X498686Y345546D01*
X498672Y345511D01*
X498658Y345478D01*
X498644Y345450D01*
X498642Y345448D01*
X498638Y345443D01*
X498633Y345432D01*
X498626Y345420D01*
X498618Y345406D01*
X498607Y345389D01*
X498593Y345369D01*
X498579Y345348D01*
X498546Y345304D01*
X498505Y345261D01*
X498460Y345219D01*
X498435Y345199D01*
X498409Y345182D01*
X498408Y345180D01*
X498402Y345179D01*
X498395Y345173D01*
X498385Y345168D01*
X498371Y345161D01*
X498355Y345154D01*
X498338Y345147D01*
X498318Y345138D01*
X498295Y345129D01*
X498271Y345122D01*
X498218Y345108D01*
X498159Y345098D01*
X498128Y345096D01*
X498096Y345094D01*
X498094D01*
X498087D01*
X498077D01*
X498063Y345096D01*
X498047Y345098D01*
X498028Y345100D01*
X498005Y345103D01*
X497980Y345108D01*
X497954Y345114D01*
X497926Y345121D01*
X497896Y345129D01*
X497865Y345140D01*
X497835Y345152D01*
X497804Y345166D01*
X497772Y345182D01*
X497741Y345201D01*
X497739Y345203D01*
X497734Y345206D01*
X497725Y345214D01*
X497713Y345222D01*
X497699Y345233D01*
X497683Y345247D01*
X497666Y345262D01*
X497646Y345282D01*
X497627Y345303D01*
X497606Y345325D01*
X497585Y345352D01*
X497564Y345380D01*
X497543Y345411D01*
X497524Y345443D01*
X497506Y345479D01*
X497489Y345516D01*
X497487Y345518D01*
X497485Y345525D01*
X497480Y345537D01*
X497475Y345553D01*
X497470Y345572D01*
X497461Y345595D01*
X497454Y345623D01*
X497445Y345653D01*
X497438Y345684D01*
X497429Y345721D01*
X497422Y345760D01*
X497417Y345800D01*
X497410Y345842D01*
X497406Y345885D01*
X497405Y345931D01*
X497403Y345978D01*
Y346006D01*
X497405Y346025D01*
X497406Y346050D01*
X497408Y346078D01*
X497410Y346110D01*
X497413Y346145D01*
X497419Y346181D01*
X497426Y346221D01*
X497441Y346304D01*
X497452Y346346D01*
X497464Y346388D01*
X497478Y346430D01*
X497494Y346470D01*
X497496Y346472D01*
X497498Y346479D01*
X497503Y346491D01*
X497510Y346505D01*
X497520Y346522D01*
X497531Y346543D01*
X497545Y346566D01*
X497561Y346591D01*
X497578Y346617D01*
X497597Y346645D01*
X497620Y346671D01*
X497643Y346699D01*
X497669Y346726D01*
X497697Y346752D01*
X497727Y346776D01*
X497758Y346799D01*
X497760Y346801D01*
X497767Y346804D01*
X497776Y346810D01*
X497790Y346816D01*
X497806Y346825D01*
X497825Y346836D01*
X497848Y346846D01*
X497874Y346858D01*
X497902Y346869D01*
X497931Y346879D01*
X497965Y346890D01*
X497998Y346901D01*
X498035Y346909D01*
X498073Y346916D01*
X498113Y346920D01*
X498154Y346923D01*
X498178Y346605D01*
X498175D01*
X498168Y346603D01*
X498155Y346601D01*
X498140Y346598D01*
X498119Y346594D01*
X498096Y346589D01*
X498071Y346582D01*
X498043Y346573D01*
X498015Y346563D01*
X497986Y346550D01*
X497956Y346536D01*
X497926Y346521D01*
X497896Y346501D01*
X497868Y346480D01*
X497842Y346456D01*
X497818Y346430D01*
X497816Y346428D01*
X497813Y346423D01*
X497807Y346414D01*
X497798Y346402D01*
X497790Y346386D01*
X497779Y346367D01*
X497767Y346346D01*
X497756Y346320D01*
X497744Y346290D01*
X497734Y346258D01*
X497723Y346221D01*
X497715Y346183D01*
X497706Y346139D01*
X497701Y346094D01*
X497697Y346045D01*
X497695Y345992D01*
Y345964D01*
X497697Y345943D01*
X497699Y345917D01*
X497701Y345889D01*
X497704Y345858D01*
X497709Y345824D01*
X497723Y345751D01*
X497732Y345714D01*
X497743Y345679D01*
X497755Y345644D01*
X497771Y345611D01*
X497788Y345579D01*
X497807Y345551D01*
X497809Y345549D01*
X497813Y345546D01*
X497818Y345539D01*
X497826Y345530D01*
X497837Y345520D01*
X497851Y345508D01*
X497865Y345495D01*
X497883Y345483D01*
X497900Y345471D01*
X497921Y345458D01*
X497966Y345436D01*
X497991Y345427D01*
X498017Y345420D01*
X498045Y345416D01*
X498073Y345415D01*
X498075D01*
X498078D01*
X498085D01*
X498096Y345416D01*
X498108Y345418D01*
X498120Y345420D01*
X498152Y345427D01*
X498187Y345437D01*
X498225Y345455D01*
X498245Y345467D01*
X498262Y345479D01*
X498280Y345493D01*
X498297Y345511D01*
X498299Y345513D01*
X498301Y345516D01*
X498306Y345523D01*
X498313Y345532D01*
X498320Y345546D01*
X498330Y345564D01*
X498341Y345585D01*
X498353Y345611D01*
X498365Y345640D01*
X498380Y345675D01*
X498395Y345718D01*
X498411Y345763D01*
X498427Y345815D01*
X498443Y345875D01*
X498460Y345941D01*
X498469Y345976D01*
X498478Y346013D01*
Y346015D01*
X498479Y346018D01*
Y346024D01*
X498481Y346031D01*
X498485Y346041D01*
X498486Y346052D01*
X498493Y346080D01*
X498500Y346111D01*
X498509Y346150D01*
X498520Y346192D01*
X498532Y346235D01*
X498544Y346281D01*
X498556Y346328D01*
X498570Y346374D01*
X498583Y346419D01*
X498596Y346463D01*
X498610Y346503D01*
X498625Y346538D01*
X498637Y346570D01*
X498638Y346571D01*
X498642Y346580D01*
X498647Y346591D01*
X498654Y346606D01*
X498665Y346624D01*
X498677Y346645D01*
X498691Y346668D01*
X498707Y346692D01*
X498724Y346718D01*
X498743Y346745D01*
X498787Y346799D01*
X498836Y346850D01*
X498864Y346872D01*
X498892Y346893D01*
X498894Y346895D01*
X498899Y346899D01*
X498908Y346904D01*
X498920Y346909D01*
X498934Y346918D01*
X498952Y346927D01*
X498971Y346935D01*
X498994Y346946D01*
X499020Y346956D01*
X499046Y346965D01*
X499076Y346974D01*
X499108Y346983D01*
X499141Y346988D01*
X499176Y346993D01*
X499213Y346997D01*
X499249Y346999D01*
X499251D01*
X499258D01*
X499268D01*
X499283Y346997D01*
D02*
G37*
G36*
X355752Y317885D02*
X356091D01*
Y317602D01*
X355752D01*
Y317000D01*
X355444D01*
Y317602D01*
X354354D01*
Y317885D01*
X355500Y319511D01*
X355752D01*
Y317885D01*
D02*
G37*
G36*
X352983Y319510D02*
X353013D01*
X353043Y319508D01*
X353078Y319506D01*
X353113Y319504D01*
X353150Y319502D01*
X353223Y319495D01*
X353260Y319492D01*
X353295Y319487D01*
X353328Y319481D01*
X353358Y319474D01*
X353360D01*
X353367Y319473D01*
X353379Y319469D01*
X353395Y319464D01*
X353412Y319459D01*
X353435Y319452D01*
X353458Y319443D01*
X353484Y319434D01*
X353512Y319422D01*
X353542Y319410D01*
X353605Y319378D01*
X353634Y319359D01*
X353666Y319340D01*
X353696Y319319D01*
X353725Y319294D01*
X353727Y319292D01*
X353734Y319287D01*
X353745Y319277D01*
X353759Y319264D01*
X353774Y319247D01*
X353794Y319228D01*
X353815Y319205D01*
X353837Y319177D01*
X353862Y319149D01*
X353886Y319116D01*
X353911Y319081D01*
X353935Y319042D01*
X353960Y319002D01*
X353983Y318958D01*
X354004Y318913D01*
X354023Y318865D01*
X354025Y318862D01*
X354026Y318853D01*
X354032Y318839D01*
X354039Y318820D01*
X354046Y318795D01*
X354054Y318766D01*
X354063Y318731D01*
X354074Y318694D01*
X354082Y318650D01*
X354091Y318605D01*
X354100Y318556D01*
X354107Y318503D01*
X354114Y318449D01*
X354119Y318391D01*
X354121Y318332D01*
X354123Y318269D01*
Y318265D01*
Y318256D01*
Y318241D01*
X354121Y318220D01*
Y318195D01*
X354119Y318165D01*
X354117Y318134D01*
X354114Y318097D01*
X354110Y318059D01*
X354107Y318018D01*
X354095Y317934D01*
X354077Y317847D01*
X354054Y317761D01*
Y317759D01*
X354051Y317751D01*
X354047Y317740D01*
X354042Y317724D01*
X354035Y317705D01*
X354028Y317684D01*
X354019Y317660D01*
X354009Y317633D01*
X353983Y317576D01*
X353955Y317514D01*
X353920Y317453D01*
X353902Y317424D01*
X353883Y317395D01*
X353881Y317394D01*
X353878Y317389D01*
X353872Y317381D01*
X353865Y317371D01*
X353855Y317359D01*
X353844Y317345D01*
X353816Y317313D01*
X353781Y317277D01*
X353743Y317238D01*
X353701Y317199D01*
X353655Y317166D01*
X353654Y317164D01*
X353650Y317163D01*
X353643Y317159D01*
X353633Y317152D01*
X353620Y317145D01*
X353606Y317138D01*
X353591Y317129D01*
X353571Y317121D01*
X353550Y317110D01*
X353528Y317100D01*
X353503Y317089D01*
X353477Y317079D01*
X353417Y317059D01*
X353354Y317042D01*
X353353D01*
X353346Y317040D01*
X353337Y317038D01*
X353323Y317035D01*
X353307Y317031D01*
X353288Y317028D01*
X353263Y317024D01*
X353239Y317021D01*
X353211Y317018D01*
X353179Y317014D01*
X353146Y317010D01*
X353111Y317007D01*
X353074Y317003D01*
X353034Y317002D01*
X352952Y317000D01*
X352047D01*
Y319511D01*
X352961D01*
X352983Y319510D01*
D02*
G37*
G36*
X373231Y340562D02*
X373248Y340560D01*
X373271Y340558D01*
X373293Y340557D01*
X373320Y340553D01*
X373349Y340548D01*
X373379Y340543D01*
X373442Y340527D01*
X373476Y340516D01*
X373509Y340504D01*
X373542Y340490D01*
X373575Y340474D01*
X373577Y340473D01*
X373582Y340471D01*
X373593Y340466D01*
X373603Y340459D01*
X373619Y340450D01*
X373635Y340439D01*
X373654Y340425D01*
X373673Y340411D01*
X373694Y340396D01*
X373715Y340378D01*
X373761Y340336D01*
X373803Y340289D01*
X373822Y340263D01*
X373839Y340235D01*
X373841Y340233D01*
X373843Y340228D01*
X373848Y340219D01*
X373853Y340208D01*
X373860Y340195D01*
X373869Y340177D01*
X373878Y340158D01*
X373887Y340137D01*
X373894Y340114D01*
X373902Y340089D01*
X373918Y340033D01*
X373929Y339974D01*
X373931Y339943D01*
X373932Y339911D01*
Y339909D01*
Y339904D01*
Y339895D01*
X373931Y339883D01*
Y339869D01*
X373927Y339853D01*
X373925Y339834D01*
X373922Y339813D01*
X373911Y339768D01*
X373895Y339718D01*
X373885Y339692D01*
X373874Y339666D01*
X373860Y339640D01*
X373845Y339615D01*
X373843Y339614D01*
X373841Y339610D01*
X373836Y339603D01*
X373829Y339593D01*
X373818Y339582D01*
X373808Y339570D01*
X373794Y339554D01*
X373780Y339538D01*
X373762Y339522D01*
X373743Y339505D01*
X373722Y339487D01*
X373699Y339470D01*
X373673Y339452D01*
X373647Y339435D01*
X373617Y339419D01*
X373586Y339404D01*
X373587D01*
X373596Y339402D01*
X373607Y339398D01*
X373622Y339393D01*
X373642Y339386D01*
X373663Y339379D01*
X373687Y339368D01*
X373712Y339356D01*
X373740Y339344D01*
X373768Y339328D01*
X373796Y339311D01*
X373826Y339290D01*
X373853Y339269D01*
X373880Y339244D01*
X373906Y339218D01*
X373931Y339188D01*
X373932Y339187D01*
X373936Y339181D01*
X373943Y339172D01*
X373950Y339158D01*
X373958Y339143D01*
X373969Y339125D01*
X373981Y339102D01*
X373993Y339078D01*
X374004Y339050D01*
X374016Y339018D01*
X374027Y338985D01*
X374035Y338950D01*
X374043Y338912D01*
X374049Y338872D01*
X374053Y338829D01*
X374055Y338784D01*
Y338782D01*
Y338780D01*
Y338775D01*
Y338770D01*
X374053Y338752D01*
X374051Y338730D01*
X374048Y338702D01*
X374043Y338668D01*
X374034Y338632D01*
X374025Y338591D01*
X374011Y338549D01*
X373995Y338504D01*
X373976Y338458D01*
X373953Y338411D01*
X373925Y338364D01*
X373894Y338317D01*
X373855Y338271D01*
X373813Y338227D01*
X373810Y338226D01*
X373803Y338217D01*
X373789Y338206D01*
X373769Y338193D01*
X373747Y338175D01*
X373719Y338156D01*
X373685Y338135D01*
X373647Y338114D01*
X373607Y338093D01*
X373559Y338072D01*
X373510Y338052D01*
X373456Y338035D01*
X373400Y338021D01*
X373339Y338010D01*
X373274Y338002D01*
X373208Y338000D01*
X373194D01*
X373176Y338002D01*
X373153Y338003D01*
X373124Y338005D01*
X373092Y338010D01*
X373056Y338016D01*
X373015Y338024D01*
X372973Y338035D01*
X372928Y338047D01*
X372882Y338063D01*
X372837Y338082D01*
X372789Y338105D01*
X372744Y338131D01*
X372700Y338161D01*
X372658Y338196D01*
X372656Y338198D01*
X372649Y338205D01*
X372637Y338217D01*
X372623Y338231D01*
X372607Y338252D01*
X372588Y338275D01*
X372567Y338303D01*
X372545Y338334D01*
X372523Y338369D01*
X372501Y338408D01*
X372480Y338450D01*
X372460Y338493D01*
X372443Y338543D01*
X372429Y338595D01*
X372417Y338649D01*
X372410Y338707D01*
X372718Y338749D01*
Y338745D01*
X372720Y338737D01*
X372723Y338724D01*
X372728Y338707D01*
X372733Y338684D01*
X372741Y338660D01*
X372749Y338632D01*
X372760Y338604D01*
X372784Y338541D01*
X372816Y338479D01*
X372833Y338448D01*
X372852Y338420D01*
X372873Y338394D01*
X372896Y338371D01*
X372898Y338369D01*
X372902Y338366D01*
X372908Y338360D01*
X372919Y338353D01*
X372931Y338345D01*
X372947Y338334D01*
X372964Y338324D01*
X372984Y338313D01*
X373005Y338303D01*
X373029Y338292D01*
X373056Y338282D01*
X373082Y338273D01*
X373112Y338266D01*
X373143Y338261D01*
X373176Y338257D01*
X373210Y338256D01*
X373220D01*
X373231Y338257D01*
X373246D01*
X373266Y338261D01*
X373287Y338264D01*
X373311Y338268D01*
X373337Y338275D01*
X373365Y338282D01*
X373395Y338292D01*
X373427Y338304D01*
X373456Y338318D01*
X373488Y338336D01*
X373519Y338357D01*
X373549Y338380D01*
X373577Y338406D01*
X373579Y338408D01*
X373584Y338413D01*
X373591Y338422D01*
X373600Y338432D01*
X373612Y338448D01*
X373624Y338465D01*
X373638Y338487D01*
X373652Y338509D01*
X373666Y338535D01*
X373680Y338563D01*
X373692Y338593D01*
X373705Y338627D01*
X373713Y338662D01*
X373720Y338698D01*
X373726Y338738D01*
X373727Y338779D01*
Y338780D01*
Y338787D01*
Y338800D01*
X373726Y338814D01*
X373724Y338831D01*
X373720Y338852D01*
X373715Y338877D01*
X373710Y338901D01*
X373703Y338929D01*
X373694Y338957D01*
X373682Y338985D01*
X373668Y339015D01*
X373652Y339045D01*
X373633Y339073D01*
X373612Y339101D01*
X373587Y339127D01*
X373586Y339129D01*
X373581Y339132D01*
X373573Y339139D01*
X373563Y339148D01*
X373549Y339158D01*
X373533Y339171D01*
X373514Y339183D01*
X373491Y339197D01*
X373467Y339209D01*
X373441Y339222D01*
X373411Y339234D01*
X373379Y339244D01*
X373346Y339253D01*
X373311Y339260D01*
X373274Y339264D01*
X373234Y339265D01*
X373218D01*
X373210Y339264D01*
X373199D01*
X373174Y339262D01*
X373143Y339256D01*
X373106Y339251D01*
X373064Y339243D01*
X373017Y339232D01*
X373052Y339503D01*
X373057D01*
X373062Y339502D01*
X373070D01*
X373085Y339500D01*
X373120D01*
X373134Y339502D01*
X373152Y339503D01*
X373173Y339505D01*
X373195Y339508D01*
X373220Y339512D01*
X373246Y339517D01*
X373274Y339524D01*
X373304Y339533D01*
X373334Y339543D01*
X373365Y339554D01*
X373395Y339568D01*
X373427Y339584D01*
X373456Y339601D01*
X373458Y339603D01*
X373463Y339606D01*
X373470Y339612D01*
X373481Y339620D01*
X373493Y339631D01*
X373507Y339645D01*
X373521Y339661D01*
X373537Y339680D01*
X373551Y339701D01*
X373565Y339724D01*
X373579Y339750D01*
X373591Y339778D01*
X373602Y339809D01*
X373608Y339843D01*
X373614Y339879D01*
X373616Y339918D01*
Y339920D01*
Y339925D01*
Y339934D01*
X373614Y339946D01*
X373612Y339960D01*
X373610Y339977D01*
X373607Y339997D01*
X373602Y340016D01*
X373587Y340061D01*
X373579Y340084D01*
X373566Y340107D01*
X373554Y340131D01*
X373538Y340154D01*
X373521Y340177D01*
X373500Y340198D01*
X373498Y340200D01*
X373495Y340203D01*
X373488Y340208D01*
X373479Y340215D01*
X373468Y340224D01*
X373454Y340233D01*
X373437Y340243D01*
X373419Y340254D01*
X373398Y340264D01*
X373377Y340275D01*
X373353Y340284D01*
X373325Y340293D01*
X373297Y340299D01*
X373267Y340305D01*
X373236Y340308D01*
X373202Y340310D01*
X373185D01*
X373173Y340308D01*
X373157Y340306D01*
X373139Y340305D01*
X373118Y340301D01*
X373097Y340296D01*
X373050Y340282D01*
X373024Y340273D01*
X372999Y340263D01*
X372975Y340249D01*
X372949Y340233D01*
X372924Y340215D01*
X372902Y340196D01*
X372900Y340195D01*
X372896Y340191D01*
X372891Y340184D01*
X372882Y340175D01*
X372873Y340163D01*
X372863Y340149D01*
X372851Y340131D01*
X372838Y340112D01*
X372824Y340089D01*
X372812Y340065D01*
X372800Y340037D01*
X372788Y340007D01*
X372776Y339974D01*
X372765Y339937D01*
X372756Y339899D01*
X372749Y339858D01*
X372441Y339913D01*
Y339914D01*
Y339916D01*
X372445Y339927D01*
X372448Y339943D01*
X372453Y339964D01*
X372460Y339990D01*
X372469Y340019D01*
X372481Y340053D01*
X372494Y340089D01*
X372510Y340126D01*
X372529Y340166D01*
X372550Y340205D01*
X372572Y340245D01*
X372599Y340285D01*
X372628Y340322D01*
X372662Y340359D01*
X372697Y340392D01*
X372698Y340394D01*
X372706Y340399D01*
X372718Y340408D01*
X372733Y340418D01*
X372753Y340433D01*
X372776Y340446D01*
X372803Y340462D01*
X372835Y340478D01*
X372870Y340494D01*
X372907Y340510D01*
X372949Y340524D01*
X372992Y340537D01*
X373040Y340548D01*
X373089Y340557D01*
X373141Y340562D01*
X373195Y340564D01*
X373216D01*
X373231Y340562D01*
D02*
G37*
G36*
X370936Y340553D02*
X370966D01*
X370996Y340551D01*
X371031Y340550D01*
X371066Y340548D01*
X371102Y340546D01*
X371176Y340539D01*
X371213Y340536D01*
X371248Y340530D01*
X371281Y340525D01*
X371311Y340518D01*
X371312D01*
X371320Y340516D01*
X371332Y340513D01*
X371347Y340508D01*
X371365Y340502D01*
X371388Y340495D01*
X371410Y340487D01*
X371437Y340478D01*
X371465Y340466D01*
X371495Y340454D01*
X371557Y340422D01*
X371587Y340403D01*
X371619Y340383D01*
X371649Y340362D01*
X371678Y340338D01*
X371680Y340336D01*
X371687Y340331D01*
X371697Y340320D01*
X371711Y340308D01*
X371727Y340291D01*
X371746Y340271D01*
X371767Y340249D01*
X371790Y340221D01*
X371815Y340193D01*
X371839Y340160D01*
X371864Y340124D01*
X371888Y340086D01*
X371913Y340046D01*
X371935Y340002D01*
X371956Y339956D01*
X371976Y339909D01*
X371977Y339906D01*
X371979Y339897D01*
X371985Y339883D01*
X371991Y339864D01*
X371999Y339839D01*
X372007Y339809D01*
X372016Y339774D01*
X372026Y339738D01*
X372035Y339694D01*
X372044Y339649D01*
X372053Y339599D01*
X372060Y339547D01*
X372067Y339493D01*
X372072Y339435D01*
X372074Y339375D01*
X372076Y339312D01*
Y339309D01*
Y339300D01*
Y339284D01*
X372074Y339264D01*
Y339239D01*
X372072Y339209D01*
X372070Y339178D01*
X372067Y339141D01*
X372063Y339102D01*
X372060Y339062D01*
X372047Y338978D01*
X372030Y338891D01*
X372007Y338805D01*
Y338803D01*
X372004Y338794D01*
X372000Y338784D01*
X371995Y338768D01*
X371988Y338749D01*
X371981Y338728D01*
X371972Y338703D01*
X371962Y338677D01*
X371935Y338619D01*
X371907Y338558D01*
X371872Y338497D01*
X371855Y338467D01*
X371836Y338439D01*
X371834Y338437D01*
X371831Y338432D01*
X371825Y338425D01*
X371818Y338415D01*
X371808Y338402D01*
X371797Y338388D01*
X371769Y338357D01*
X371734Y338320D01*
X371696Y338282D01*
X371654Y338243D01*
X371608Y338210D01*
X371606Y338208D01*
X371603Y338206D01*
X371596Y338203D01*
X371585Y338196D01*
X371573Y338189D01*
X371559Y338182D01*
X371543Y338173D01*
X371524Y338164D01*
X371503Y338154D01*
X371480Y338143D01*
X371456Y338133D01*
X371430Y338122D01*
X371370Y338103D01*
X371307Y338086D01*
X371305D01*
X371299Y338084D01*
X371290Y338082D01*
X371276Y338079D01*
X371260Y338075D01*
X371241Y338072D01*
X371216Y338068D01*
X371192Y338065D01*
X371164Y338061D01*
X371132Y338058D01*
X371099Y338054D01*
X371064Y338051D01*
X371027Y338047D01*
X370987Y338045D01*
X370905Y338044D01*
X370000D01*
Y340555D01*
X370914D01*
X370936Y340553D01*
D02*
G37*
G36*
X474455Y405985D02*
X473451D01*
X473316Y405308D01*
X473319Y405309D01*
X473326Y405315D01*
X473339Y405322D01*
X473354Y405332D01*
X473375Y405344D01*
X473400Y405358D01*
X473428Y405372D01*
X473459Y405388D01*
X473494Y405402D01*
X473531Y405416D01*
X473569Y405430D01*
X473611Y405442D01*
X473654Y405453D01*
X473699Y405460D01*
X473744Y405465D01*
X473790Y405467D01*
X473804D01*
X473821Y405465D01*
X473846Y405463D01*
X473874Y405460D01*
X473907Y405455D01*
X473944Y405448D01*
X473984Y405439D01*
X474026Y405427D01*
X474072Y405411D01*
X474117Y405392D01*
X474164Y405371D01*
X474212Y405344D01*
X474257Y405313D01*
X474303Y405278D01*
X474346Y405238D01*
X474348Y405236D01*
X474357Y405227D01*
X474368Y405215D01*
X474381Y405197D01*
X474399Y405175D01*
X474418Y405147D01*
X474439Y405115D01*
X474460Y405080D01*
X474481Y405040D01*
X474502Y404994D01*
X474521Y404947D01*
X474539Y404895D01*
X474553Y404840D01*
X474564Y404781D01*
X474572Y404718D01*
X474574Y404653D01*
Y404651D01*
Y404650D01*
Y404644D01*
Y404637D01*
X474572Y404620D01*
X474571Y404595D01*
X474569Y404566D01*
X474564Y404532D01*
X474556Y404494D01*
X474549Y404452D01*
X474539Y404406D01*
X474525Y404359D01*
X474509Y404310D01*
X474490Y404261D01*
X474467Y404210D01*
X474441Y404160D01*
X474409Y404111D01*
X474374Y404063D01*
X474371Y404060D01*
X474364Y404051D01*
X474350Y404035D01*
X474331Y404016D01*
X474306Y403993D01*
X474276Y403967D01*
X474241Y403939D01*
X474201Y403911D01*
X474157Y403883D01*
X474107Y403855D01*
X474052Y403829D01*
X473995Y403806D01*
X473932Y403787D01*
X473864Y403773D01*
X473792Y403762D01*
X473753Y403761D01*
X473715Y403759D01*
X473699D01*
X473681Y403761D01*
X473657Y403762D01*
X473629Y403764D01*
X473594Y403769D01*
X473557Y403775D01*
X473517Y403783D01*
X473473Y403792D01*
X473428Y403806D01*
X473381Y403820D01*
X473333Y403839D01*
X473288Y403860D01*
X473241Y403887D01*
X473197Y403916D01*
X473155Y403950D01*
X473153Y403951D01*
X473146Y403958D01*
X473134Y403969D01*
X473120Y403985D01*
X473104Y404004D01*
X473085Y404027D01*
X473064Y404055D01*
X473043Y404086D01*
X473020Y404121D01*
X472999Y404158D01*
X472978Y404200D01*
X472959Y404245D01*
X472941Y404294D01*
X472927Y404347D01*
X472915Y404401D01*
X472908Y404459D01*
X473232Y404487D01*
Y404483D01*
X473234Y404476D01*
X473235Y404464D01*
X473239Y404448D01*
X473244Y404427D01*
X473249Y404405D01*
X473256Y404380D01*
X473265Y404354D01*
X473288Y404294D01*
X473300Y404265D01*
X473316Y404237D01*
X473333Y404207D01*
X473352Y404179D01*
X473374Y404154D01*
X473396Y404130D01*
X473398Y404128D01*
X473401Y404125D01*
X473410Y404119D01*
X473419Y404112D01*
X473433Y404102D01*
X473447Y404093D01*
X473464Y404083D01*
X473486Y404072D01*
X473508Y404060D01*
X473531Y404049D01*
X473557Y404041D01*
X473585Y404032D01*
X473617Y404023D01*
X473646Y404018D01*
X473680Y404014D01*
X473715Y404013D01*
X473725D01*
X473736Y404014D01*
X473751Y404016D01*
X473771Y404018D01*
X473794Y404021D01*
X473818Y404027D01*
X473846Y404034D01*
X473876Y404042D01*
X473906Y404053D01*
X473937Y404067D01*
X473969Y404083D01*
X474000Y404102D01*
X474031Y404125D01*
X474063Y404149D01*
X474093Y404179D01*
X474094Y404181D01*
X474100Y404186D01*
X474107Y404196D01*
X474117Y404210D01*
X474128Y404226D01*
X474142Y404247D01*
X474156Y404270D01*
X474170Y404298D01*
X474184Y404328D01*
X474198Y404361D01*
X474212Y404398D01*
X474222Y404438D01*
X474233Y404480D01*
X474240Y404525D01*
X474245Y404574D01*
X474247Y404625D01*
Y404629D01*
Y404637D01*
X474245Y404650D01*
Y404669D01*
X474241Y404690D01*
X474240Y404716D01*
X474234Y404744D01*
X474228Y404776D01*
X474221Y404809D01*
X474210Y404842D01*
X474198Y404877D01*
X474184Y404910D01*
X474166Y404945D01*
X474147Y404979D01*
X474124Y405010D01*
X474098Y405040D01*
X474096Y405042D01*
X474091Y405047D01*
X474082Y405054D01*
X474072Y405064D01*
X474056Y405075D01*
X474039Y405089D01*
X474017Y405103D01*
X473995Y405117D01*
X473967Y405131D01*
X473939Y405145D01*
X473906Y405159D01*
X473872Y405169D01*
X473834Y405180D01*
X473795Y405187D01*
X473751Y405192D01*
X473708Y405194D01*
X473694D01*
X473683Y405192D01*
X473669D01*
X473654Y405190D01*
X473638Y405189D01*
X473619Y405185D01*
X473576Y405178D01*
X473531Y405166D01*
X473484Y405148D01*
X473438Y405126D01*
X473436D01*
X473433Y405122D01*
X473426Y405119D01*
X473419Y405113D01*
X473409Y405106D01*
X473396Y405098D01*
X473370Y405078D01*
X473340Y405052D01*
X473309Y405022D01*
X473279Y404989D01*
X473251Y404951D01*
X472962Y404989D01*
X473206Y406279D01*
X474455D01*
Y405985D01*
D02*
G37*
G36*
X471436Y406310D02*
X471466D01*
X471496Y406309D01*
X471531Y406307D01*
X471566Y406305D01*
X471602Y406303D01*
X471676Y406296D01*
X471713Y406293D01*
X471748Y406288D01*
X471781Y406282D01*
X471811Y406275D01*
X471812D01*
X471819Y406274D01*
X471832Y406270D01*
X471847Y406265D01*
X471865Y406260D01*
X471888Y406253D01*
X471910Y406244D01*
X471937Y406235D01*
X471965Y406223D01*
X471994Y406211D01*
X472057Y406179D01*
X472087Y406160D01*
X472119Y406141D01*
X472149Y406120D01*
X472178Y406095D01*
X472180Y406093D01*
X472187Y406088D01*
X472197Y406078D01*
X472212Y406065D01*
X472227Y406048D01*
X472247Y406029D01*
X472267Y406006D01*
X472290Y405978D01*
X472315Y405950D01*
X472339Y405917D01*
X472364Y405882D01*
X472388Y405843D01*
X472413Y405803D01*
X472436Y405759D01*
X472457Y405714D01*
X472476Y405666D01*
X472477Y405663D01*
X472479Y405654D01*
X472484Y405640D01*
X472492Y405621D01*
X472499Y405596D01*
X472507Y405567D01*
X472516Y405532D01*
X472527Y405495D01*
X472535Y405451D01*
X472544Y405406D01*
X472553Y405357D01*
X472560Y405304D01*
X472567Y405250D01*
X472572Y405192D01*
X472574Y405133D01*
X472576Y405070D01*
Y405066D01*
Y405057D01*
Y405042D01*
X472574Y405021D01*
Y404996D01*
X472572Y404966D01*
X472570Y404935D01*
X472567Y404898D01*
X472563Y404860D01*
X472560Y404819D01*
X472547Y404735D01*
X472530Y404648D01*
X472507Y404562D01*
Y404560D01*
X472504Y404552D01*
X472500Y404541D01*
X472495Y404525D01*
X472488Y404506D01*
X472481Y404485D01*
X472472Y404461D01*
X472462Y404434D01*
X472436Y404377D01*
X472407Y404315D01*
X472372Y404254D01*
X472355Y404224D01*
X472336Y404196D01*
X472334Y404195D01*
X472331Y404189D01*
X472325Y404182D01*
X472318Y404172D01*
X472308Y404160D01*
X472297Y404146D01*
X472269Y404114D01*
X472234Y404077D01*
X472196Y404039D01*
X472154Y404000D01*
X472108Y403967D01*
X472107Y403965D01*
X472103Y403964D01*
X472096Y403960D01*
X472086Y403953D01*
X472073Y403946D01*
X472059Y403939D01*
X472044Y403930D01*
X472024Y403922D01*
X472003Y403911D01*
X471980Y403901D01*
X471956Y403890D01*
X471930Y403880D01*
X471870Y403860D01*
X471807Y403843D01*
X471805D01*
X471799Y403841D01*
X471790Y403839D01*
X471776Y403836D01*
X471760Y403832D01*
X471741Y403829D01*
X471716Y403825D01*
X471692Y403822D01*
X471664Y403818D01*
X471632Y403815D01*
X471599Y403811D01*
X471564Y403808D01*
X471527Y403804D01*
X471487Y403803D01*
X471405Y403801D01*
X470500D01*
Y406312D01*
X471414D01*
X471436Y406310D01*
D02*
G37*
G36*
X327000Y458369D02*
X326998D01*
X326995D01*
X326990D01*
X326981D01*
X326972D01*
X326960Y458371D01*
X326932Y458373D01*
X326899Y458377D01*
X326864Y458383D01*
X326825Y458392D01*
X326786Y458404D01*
X326785D01*
X326780Y458408D01*
X326769Y458411D01*
X326757Y458417D01*
X326743Y458424D01*
X326724Y458432D01*
X326704Y458441D01*
X326681Y458453D01*
X326657Y458467D01*
X326631Y458482D01*
X326575Y458516D01*
X326545Y458537D01*
X326515Y458558D01*
X326484Y458583D01*
X326454Y458607D01*
X326452Y458609D01*
X326447Y458614D01*
X326436Y458622D01*
X326424Y458634D01*
X326409Y458648D01*
X326391Y458665D01*
X326368Y458686D01*
X326345Y458711D01*
X326318Y458737D01*
X326290Y458767D01*
X326258Y458800D01*
X326225Y458837D01*
X326190Y458875D01*
X326153Y458917D01*
X326115Y458963D01*
X326074Y459010D01*
X326073Y459012D01*
X326071Y459015D01*
X326065Y459020D01*
X326059Y459027D01*
X326051Y459038D01*
X326041Y459048D01*
X326018Y459076D01*
X325990Y459110D01*
X325957Y459146D01*
X325920Y459189D01*
X325882Y459232D01*
X325840Y459278D01*
X325796Y459325D01*
X325752Y459370D01*
X325707Y459416D01*
X325663Y459458D01*
X325621Y459498D01*
X325581Y459533D01*
X325542Y459563D01*
X325540Y459565D01*
X325534Y459570D01*
X325523Y459577D01*
X325509Y459586D01*
X325491Y459596D01*
X325470Y459608D01*
X325448Y459622D01*
X325422Y459636D01*
X325395Y459649D01*
X325365Y459663D01*
X325303Y459686D01*
X325271Y459694D01*
X325238Y459701D01*
X325204Y459706D01*
X325171Y459708D01*
X325169D01*
X325163D01*
X325154D01*
X325140Y459706D01*
X325124Y459705D01*
X325107Y459701D01*
X325085Y459698D01*
X325063Y459692D01*
X325040Y459686D01*
X325015Y459677D01*
X324989Y459666D01*
X324963Y459652D01*
X324937Y459638D01*
X324910Y459621D01*
X324886Y459600D01*
X324862Y459577D01*
X324860Y459575D01*
X324856Y459572D01*
X324849Y459563D01*
X324842Y459552D01*
X324832Y459540D01*
X324821Y459524D01*
X324811Y459505D01*
X324798Y459484D01*
X324786Y459461D01*
X324776Y459435D01*
X324765Y459407D01*
X324755Y459377D01*
X324748Y459344D01*
X324741Y459309D01*
X324737Y459272D01*
X324735Y459234D01*
Y459213D01*
X324737Y459197D01*
X324739Y459178D01*
X324743Y459157D01*
X324746Y459132D01*
X324753Y459106D01*
X324760Y459078D01*
X324769Y459048D01*
X324779Y459019D01*
X324792Y458989D01*
X324807Y458959D01*
X324827Y458931D01*
X324846Y458903D01*
X324870Y458877D01*
X324872Y458875D01*
X324875Y458872D01*
X324884Y458865D01*
X324895Y458856D01*
X324909Y458845D01*
X324924Y458835D01*
X324944Y458823D01*
X324967Y458811D01*
X324991Y458798D01*
X325019Y458786D01*
X325049Y458776D01*
X325082Y458765D01*
X325117Y458756D01*
X325155Y458749D01*
X325196Y458746D01*
X325239Y458744D01*
X325206Y458427D01*
X325204D01*
X325203D01*
X325198Y458429D01*
X325190D01*
X325173Y458431D01*
X325149Y458436D01*
X325119Y458441D01*
X325084Y458448D01*
X325047Y458457D01*
X325007Y458469D01*
X324963Y458483D01*
X324919Y458501D01*
X324874Y458520D01*
X324830Y458543D01*
X324786Y458569D01*
X324744Y458599D01*
X324704Y458634D01*
X324667Y458670D01*
X324665Y458672D01*
X324658Y458681D01*
X324650Y458693D01*
X324638Y458709D01*
X324623Y458732D01*
X324608Y458756D01*
X324590Y458788D01*
X324573Y458823D01*
X324555Y458861D01*
X324539Y458903D01*
X324524Y458951D01*
X324510Y459001D01*
X324498Y459056D01*
X324489Y459113D01*
X324482Y459176D01*
X324480Y459241D01*
Y459257D01*
X324482Y459276D01*
X324483Y459301D01*
X324485Y459332D01*
X324490Y459367D01*
X324498Y459406D01*
X324504Y459449D01*
X324515Y459493D01*
X324529Y459540D01*
X324545Y459587D01*
X324564Y459635D01*
X324588Y459682D01*
X324615Y459729D01*
X324646Y459773D01*
X324681Y459813D01*
X324683Y459815D01*
X324690Y459822D01*
X324702Y459832D01*
X324716Y459846D01*
X324737Y459862D01*
X324760Y459880D01*
X324788Y459899D01*
X324818Y459920D01*
X324853Y459939D01*
X324889Y459958D01*
X324932Y459976D01*
X324975Y459992D01*
X325023Y460006D01*
X325072Y460016D01*
X325124Y460023D01*
X325178Y460025D01*
X325180D01*
X325185D01*
X325192D01*
X325204Y460023D01*
X325217D01*
X325234Y460021D01*
X325252Y460020D01*
X325271Y460018D01*
X325317Y460009D01*
X325367Y459999D01*
X325420Y459983D01*
X325474Y459962D01*
X325476D01*
X325481Y459958D01*
X325488Y459955D01*
X325499Y459950D01*
X325513Y459943D01*
X325528Y459936D01*
X325546Y459925D01*
X325567Y459913D01*
X325589Y459901D01*
X325612Y459885D01*
X325639Y459869D01*
X325665Y459850D01*
X325693Y459829D01*
X325721Y459808D01*
X325750Y459783D01*
X325780Y459757D01*
X325782Y459756D01*
X325787Y459750D01*
X325798Y459741D01*
X325810Y459729D01*
X325826Y459714D01*
X325847Y459694D01*
X325869Y459671D01*
X325896Y459645D01*
X325925Y459614D01*
X325959Y459579D01*
X325995Y459540D01*
X326036Y459498D01*
X326078Y459451D01*
X326123Y459398D01*
X326172Y459342D01*
X326223Y459283D01*
X326225Y459279D01*
X326234Y459271D01*
X326246Y459257D01*
X326260Y459239D01*
X326279Y459216D01*
X326302Y459192D01*
X326325Y459164D01*
X326349Y459134D01*
X326403Y459075D01*
X326430Y459045D01*
X326454Y459017D01*
X326479Y458989D01*
X326501Y458966D01*
X326522Y458945D01*
X326540Y458928D01*
X326541D01*
X326543Y458924D01*
X326554Y458915D01*
X326570Y458900D01*
X326590Y458882D01*
X326617Y458861D01*
X326643Y458839D01*
X326673Y458817D01*
X326704Y458797D01*
Y460028D01*
X327000D01*
Y458369D01*
D02*
G37*
G36*
X325780Y458074D02*
X325805D01*
X325834Y458072D01*
X325866Y458070D01*
X325903Y458067D01*
X325941Y458063D01*
X325981Y458060D01*
X326065Y458047D01*
X326153Y458030D01*
X326239Y458007D01*
X326240D01*
X326249Y458004D01*
X326260Y458000D01*
X326275Y457995D01*
X326295Y457988D01*
X326316Y457981D01*
X326340Y457972D01*
X326366Y457962D01*
X326424Y457935D01*
X326485Y457907D01*
X326547Y457872D01*
X326576Y457855D01*
X326605Y457836D01*
X326606Y457834D01*
X326611Y457830D01*
X326619Y457825D01*
X326629Y457818D01*
X326641Y457808D01*
X326655Y457797D01*
X326687Y457769D01*
X326724Y457734D01*
X326762Y457696D01*
X326800Y457654D01*
X326834Y457608D01*
X326835Y457607D01*
X326837Y457603D01*
X326841Y457596D01*
X326848Y457585D01*
X326855Y457573D01*
X326862Y457559D01*
X326870Y457544D01*
X326879Y457524D01*
X326890Y457503D01*
X326900Y457480D01*
X326911Y457456D01*
X326921Y457430D01*
X326940Y457370D01*
X326958Y457307D01*
Y457305D01*
X326960Y457298D01*
X326961Y457290D01*
X326965Y457276D01*
X326969Y457260D01*
X326972Y457241D01*
X326975Y457216D01*
X326979Y457192D01*
X326982Y457164D01*
X326986Y457132D01*
X326990Y457099D01*
X326993Y457064D01*
X326996Y457027D01*
X326998Y456987D01*
X327000Y456905D01*
Y456000D01*
X324489D01*
Y456914D01*
X324490Y456936D01*
Y456966D01*
X324492Y456996D01*
X324494Y457031D01*
X324496Y457066D01*
X324498Y457102D01*
X324504Y457176D01*
X324508Y457213D01*
X324513Y457248D01*
X324518Y457281D01*
X324525Y457311D01*
Y457312D01*
X324527Y457319D01*
X324531Y457332D01*
X324536Y457347D01*
X324541Y457365D01*
X324548Y457388D01*
X324557Y457410D01*
X324566Y457437D01*
X324578Y457465D01*
X324590Y457494D01*
X324622Y457557D01*
X324641Y457587D01*
X324660Y457619D01*
X324681Y457648D01*
X324706Y457678D01*
X324708Y457680D01*
X324713Y457687D01*
X324723Y457697D01*
X324735Y457711D01*
X324753Y457727D01*
X324772Y457747D01*
X324795Y457767D01*
X324823Y457790D01*
X324851Y457815D01*
X324884Y457839D01*
X324919Y457864D01*
X324958Y457888D01*
X324998Y457913D01*
X325042Y457935D01*
X325087Y457957D01*
X325134Y457976D01*
X325138Y457977D01*
X325147Y457979D01*
X325161Y457984D01*
X325180Y457991D01*
X325204Y457998D01*
X325234Y458007D01*
X325269Y458016D01*
X325306Y458027D01*
X325350Y458035D01*
X325395Y458044D01*
X325444Y458053D01*
X325497Y458060D01*
X325551Y458067D01*
X325609Y458072D01*
X325668Y458074D01*
X325731Y458076D01*
X325735D01*
X325744D01*
X325759D01*
X325780Y458074D01*
D02*
G37*
G36*
X304000Y460262D02*
X302036D01*
X302038Y460260D01*
X302042Y460257D01*
X302047Y460250D01*
X302054Y460241D01*
X302064Y460230D01*
X302075Y460216D01*
X302089Y460201D01*
X302103Y460183D01*
X302119Y460164D01*
X302136Y460141D01*
X302154Y460117D01*
X302171Y460090D01*
X302190Y460062D01*
X302210Y460033D01*
X302231Y460001D01*
X302250Y459968D01*
X302252Y459966D01*
X302255Y459959D01*
X302260Y459950D01*
X302268Y459938D01*
X302276Y459923D01*
X302287Y459903D01*
X302297Y459882D01*
X302309Y459860D01*
X302336Y459810D01*
X302362Y459756D01*
X302386Y459700D01*
X302409Y459644D01*
X302110D01*
X302108Y459648D01*
X302105Y459656D01*
X302098Y459669D01*
X302089Y459688D01*
X302077Y459711D01*
X302063Y459737D01*
X302047Y459765D01*
X302028Y459798D01*
X302007Y459831D01*
X301986Y459868D01*
X301961Y459905D01*
X301935Y459943D01*
X301879Y460020D01*
X301816Y460096D01*
X301814Y460098D01*
X301809Y460104D01*
X301799Y460115D01*
X301786Y460127D01*
X301770Y460143D01*
X301753Y460162D01*
X301732Y460182D01*
X301709Y460203D01*
X301685Y460225D01*
X301659Y460248D01*
X301601Y460293D01*
X301571Y460315D01*
X301541Y460335D01*
X301510Y460355D01*
X301480Y460370D01*
Y460570D01*
X304000D01*
Y460262D01*
D02*
G37*
G36*
X302780Y459074D02*
X302805D01*
X302835Y459072D01*
X302866Y459070D01*
X302903Y459067D01*
X302941Y459063D01*
X302981Y459060D01*
X303065Y459048D01*
X303153Y459030D01*
X303239Y459007D01*
X303240D01*
X303249Y459004D01*
X303260Y459000D01*
X303275Y458995D01*
X303295Y458988D01*
X303316Y458981D01*
X303340Y458972D01*
X303366Y458962D01*
X303424Y458935D01*
X303485Y458907D01*
X303547Y458873D01*
X303576Y458855D01*
X303605Y458836D01*
X303606Y458834D01*
X303611Y458830D01*
X303619Y458825D01*
X303629Y458818D01*
X303641Y458808D01*
X303655Y458797D01*
X303687Y458769D01*
X303724Y458734D01*
X303762Y458696D01*
X303801Y458654D01*
X303834Y458608D01*
X303836Y458606D01*
X303837Y458603D01*
X303841Y458596D01*
X303848Y458586D01*
X303855Y458573D01*
X303862Y458559D01*
X303871Y458543D01*
X303879Y458524D01*
X303890Y458503D01*
X303900Y458481D01*
X303911Y458456D01*
X303921Y458430D01*
X303941Y458370D01*
X303958Y458307D01*
Y458306D01*
X303960Y458298D01*
X303961Y458290D01*
X303965Y458276D01*
X303969Y458260D01*
X303972Y458241D01*
X303976Y458216D01*
X303979Y458192D01*
X303982Y458164D01*
X303986Y458132D01*
X303990Y458099D01*
X303993Y458064D01*
X303996Y458027D01*
X303998Y457987D01*
X304000Y457905D01*
Y457000D01*
X301489D01*
Y457913D01*
X301490Y457936D01*
Y457966D01*
X301492Y457996D01*
X301494Y458031D01*
X301496Y458066D01*
X301498Y458103D01*
X301504Y458176D01*
X301508Y458213D01*
X301513Y458248D01*
X301519Y458281D01*
X301525Y458311D01*
Y458312D01*
X301527Y458319D01*
X301531Y458332D01*
X301536Y458348D01*
X301541Y458365D01*
X301548Y458388D01*
X301557Y458411D01*
X301566Y458437D01*
X301578Y458465D01*
X301590Y458494D01*
X301622Y458557D01*
X301641Y458587D01*
X301660Y458619D01*
X301681Y458648D01*
X301706Y458678D01*
X301708Y458680D01*
X301713Y458687D01*
X301723Y458698D01*
X301735Y458711D01*
X301753Y458727D01*
X301772Y458746D01*
X301795Y458768D01*
X301823Y458790D01*
X301851Y458815D01*
X301884Y458839D01*
X301919Y458864D01*
X301958Y458888D01*
X301998Y458913D01*
X302042Y458935D01*
X302087Y458956D01*
X302134Y458976D01*
X302138Y458978D01*
X302147Y458979D01*
X302161Y458985D01*
X302180Y458991D01*
X302204Y458998D01*
X302234Y459007D01*
X302269Y459016D01*
X302306Y459026D01*
X302350Y459035D01*
X302395Y459044D01*
X302444Y459053D01*
X302497Y459060D01*
X302551Y459067D01*
X302609Y459072D01*
X302668Y459074D01*
X302731Y459075D01*
X302735D01*
X302744D01*
X302759D01*
X302780Y459074D01*
D02*
G37*
%LPC*%
G36*
X355444Y319016D02*
X354656Y317885D01*
X355444D01*
Y319016D01*
D02*
G37*
G36*
X352961Y319215D02*
X352380D01*
Y317296D01*
X352955D01*
X352976Y317297D01*
X353001D01*
X353027Y317299D01*
X353057Y317301D01*
X353118Y317306D01*
X353183Y317315D01*
X353246Y317325D01*
X353276Y317333D01*
X353304Y317341D01*
X353305D01*
X353311Y317343D01*
X353318Y317347D01*
X353326Y317350D01*
X353339Y317355D01*
X353353Y317360D01*
X353386Y317374D01*
X353421Y317394D01*
X353459Y317415D01*
X353496Y317441D01*
X353529Y317471D01*
X353531Y317472D01*
X353535Y317476D01*
X353540Y317483D01*
X353549Y317492D01*
X353559Y317504D01*
X353570Y317520D01*
X353582Y317535D01*
X353596Y317555D01*
X353612Y317577D01*
X353626Y317600D01*
X353641Y317627D01*
X353657Y317656D01*
X353671Y317686D01*
X353687Y317718D01*
X353701Y317752D01*
X353713Y317789D01*
Y317791D01*
X353717Y317798D01*
X353720Y317810D01*
X353724Y317824D01*
X353729Y317843D01*
X353734Y317868D01*
X353739Y317894D01*
X353746Y317924D01*
X353753Y317959D01*
X353759Y317996D01*
X353764Y318036D01*
X353769Y318078D01*
X353774Y318124D01*
X353776Y318171D01*
X353780Y318221D01*
Y318274D01*
Y318276D01*
Y318279D01*
Y318285D01*
Y318291D01*
Y318300D01*
Y318312D01*
X353778Y318339D01*
X353776Y318372D01*
X353773Y318410D01*
X353769Y318452D01*
X353764Y318498D01*
X353757Y318545D01*
X353748Y318594D01*
X353738Y318645D01*
X353725Y318696D01*
X353710Y318745D01*
X353692Y318792D01*
X353673Y318837D01*
X353650Y318879D01*
X353648Y318881D01*
X353645Y318888D01*
X353638Y318899D01*
X353627Y318914D01*
X353615Y318930D01*
X353599Y318949D01*
X353582Y318972D01*
X353563Y318995D01*
X353540Y319018D01*
X353517Y319042D01*
X353491Y319065D01*
X353463Y319088D01*
X353433Y319110D01*
X353402Y319130D01*
X353370Y319147D01*
X353335Y319163D01*
X353333D01*
X353328Y319165D01*
X353321Y319168D01*
X353311Y319172D01*
X353295Y319175D01*
X353277Y319180D01*
X353256Y319184D01*
X353232Y319189D01*
X353204Y319195D01*
X353172Y319200D01*
X353137Y319203D01*
X353099Y319207D01*
X353055Y319210D01*
X353010Y319214D01*
X352961Y319215D01*
D02*
G37*
G36*
X370914Y340259D02*
X370333D01*
Y338339D01*
X370908D01*
X370929Y338341D01*
X370954D01*
X370980Y338343D01*
X371010Y338345D01*
X371071Y338350D01*
X371136Y338359D01*
X371199Y338369D01*
X371229Y338376D01*
X371256Y338385D01*
X371258D01*
X371264Y338387D01*
X371270Y338390D01*
X371279Y338394D01*
X371291Y338399D01*
X371305Y338404D01*
X371339Y338418D01*
X371374Y338437D01*
X371412Y338458D01*
X371449Y338485D01*
X371482Y338514D01*
X371484Y338516D01*
X371487Y338520D01*
X371493Y338527D01*
X371501Y338535D01*
X371512Y338548D01*
X371522Y338563D01*
X371535Y338579D01*
X371549Y338598D01*
X371564Y338621D01*
X371579Y338644D01*
X371594Y338670D01*
X371610Y338700D01*
X371624Y338730D01*
X371640Y338761D01*
X371654Y338796D01*
X371666Y338833D01*
Y338835D01*
X371670Y338842D01*
X371673Y338854D01*
X371676Y338868D01*
X371682Y338887D01*
X371687Y338912D01*
X371692Y338938D01*
X371699Y338968D01*
X371706Y339003D01*
X371711Y339039D01*
X371717Y339080D01*
X371722Y339122D01*
X371727Y339167D01*
X371729Y339214D01*
X371732Y339265D01*
Y339318D01*
Y339319D01*
Y339323D01*
Y339328D01*
Y339335D01*
Y339344D01*
Y339356D01*
X371731Y339383D01*
X371729Y339416D01*
X371726Y339454D01*
X371722Y339496D01*
X371717Y339542D01*
X371710Y339589D01*
X371701Y339638D01*
X371691Y339689D01*
X371678Y339739D01*
X371662Y339789D01*
X371645Y339836D01*
X371626Y339881D01*
X371603Y339923D01*
X371601Y339925D01*
X371598Y339932D01*
X371591Y339943D01*
X371580Y339958D01*
X371568Y339974D01*
X371552Y339993D01*
X371535Y340016D01*
X371515Y340039D01*
X371493Y340061D01*
X371470Y340086D01*
X371444Y340109D01*
X371416Y340131D01*
X371386Y340154D01*
X371354Y340174D01*
X371323Y340191D01*
X371288Y340207D01*
X371286D01*
X371281Y340208D01*
X371274Y340212D01*
X371264Y340215D01*
X371248Y340219D01*
X371230Y340224D01*
X371209Y340228D01*
X371185Y340233D01*
X371157Y340238D01*
X371125Y340243D01*
X371090Y340247D01*
X371052Y340250D01*
X371008Y340254D01*
X370962Y340258D01*
X370914Y340259D01*
D02*
G37*
G36*
X471414Y406016D02*
X470832D01*
Y404097D01*
X471408D01*
X471429Y404098D01*
X471454D01*
X471480Y404100D01*
X471510Y404102D01*
X471571Y404107D01*
X471636Y404116D01*
X471699Y404126D01*
X471729Y404133D01*
X471757Y404142D01*
X471758D01*
X471764Y404144D01*
X471770Y404147D01*
X471779Y404151D01*
X471792Y404156D01*
X471805Y404161D01*
X471839Y404175D01*
X471874Y404195D01*
X471912Y404216D01*
X471949Y404242D01*
X471982Y404272D01*
X471984Y404273D01*
X471987Y404277D01*
X471993Y404284D01*
X472002Y404293D01*
X472012Y404305D01*
X472022Y404321D01*
X472035Y404336D01*
X472049Y404356D01*
X472064Y404378D01*
X472079Y404401D01*
X472094Y404427D01*
X472110Y404457D01*
X472124Y404487D01*
X472140Y404518D01*
X472154Y404553D01*
X472166Y404590D01*
Y404592D01*
X472169Y404599D01*
X472173Y404611D01*
X472177Y404625D01*
X472182Y404644D01*
X472187Y404669D01*
X472192Y404695D01*
X472199Y404725D01*
X472206Y404760D01*
X472212Y404797D01*
X472217Y404837D01*
X472222Y404879D01*
X472227Y404924D01*
X472229Y404972D01*
X472232Y405022D01*
Y405075D01*
Y405077D01*
Y405080D01*
Y405085D01*
Y405092D01*
Y405101D01*
Y405113D01*
X472231Y405140D01*
X472229Y405173D01*
X472226Y405211D01*
X472222Y405253D01*
X472217Y405299D01*
X472210Y405346D01*
X472201Y405395D01*
X472191Y405446D01*
X472178Y405497D01*
X472162Y405546D01*
X472145Y405593D01*
X472126Y405638D01*
X472103Y405680D01*
X472101Y405682D01*
X472098Y405689D01*
X472091Y405700D01*
X472080Y405715D01*
X472068Y405731D01*
X472052Y405750D01*
X472035Y405773D01*
X472015Y405796D01*
X471993Y405819D01*
X471970Y405843D01*
X471944Y405866D01*
X471916Y405889D01*
X471886Y405911D01*
X471854Y405931D01*
X471823Y405948D01*
X471788Y405964D01*
X471786D01*
X471781Y405966D01*
X471774Y405969D01*
X471764Y405973D01*
X471748Y405976D01*
X471730Y405981D01*
X471709Y405985D01*
X471685Y405990D01*
X471657Y405995D01*
X471625Y406001D01*
X471590Y406004D01*
X471552Y406008D01*
X471508Y406011D01*
X471462Y406015D01*
X471414Y406016D01*
D02*
G37*
G36*
X325779Y457732D02*
X325726D01*
X325724D01*
X325721D01*
X325715D01*
X325709D01*
X325700D01*
X325688D01*
X325661Y457731D01*
X325628Y457729D01*
X325589Y457725D01*
X325548Y457722D01*
X325502Y457717D01*
X325455Y457710D01*
X325406Y457701D01*
X325355Y457690D01*
X325304Y457678D01*
X325255Y457662D01*
X325208Y457645D01*
X325163Y457626D01*
X325120Y457603D01*
X325119Y457601D01*
X325112Y457598D01*
X325101Y457591D01*
X325085Y457580D01*
X325070Y457568D01*
X325050Y457552D01*
X325028Y457535D01*
X325005Y457515D01*
X324982Y457493D01*
X324958Y457470D01*
X324935Y457444D01*
X324912Y457416D01*
X324889Y457386D01*
X324870Y457354D01*
X324853Y457323D01*
X324837Y457288D01*
Y457286D01*
X324835Y457281D01*
X324832Y457274D01*
X324828Y457264D01*
X324825Y457248D01*
X324819Y457230D01*
X324816Y457209D01*
X324811Y457185D01*
X324805Y457157D01*
X324800Y457125D01*
X324797Y457090D01*
X324793Y457052D01*
X324790Y457008D01*
X324786Y456962D01*
X324784Y456914D01*
Y456332D01*
X326704D01*
Y456908D01*
X326702Y456929D01*
Y456954D01*
X326701Y456980D01*
X326699Y457010D01*
X326694Y457071D01*
X326685Y457136D01*
X326675Y457199D01*
X326667Y457228D01*
X326659Y457257D01*
Y457258D01*
X326657Y457264D01*
X326654Y457270D01*
X326650Y457279D01*
X326645Y457291D01*
X326640Y457305D01*
X326625Y457339D01*
X326606Y457374D01*
X326585Y457412D01*
X326559Y457449D01*
X326529Y457482D01*
X326528Y457484D01*
X326524Y457487D01*
X326517Y457493D01*
X326508Y457502D01*
X326496Y457512D01*
X326480Y457522D01*
X326465Y457535D01*
X326445Y457549D01*
X326423Y457564D01*
X326400Y457578D01*
X326374Y457594D01*
X326344Y457610D01*
X326314Y457624D01*
X326283Y457640D01*
X326248Y457654D01*
X326211Y457666D01*
X326209D01*
X326202Y457669D01*
X326190Y457673D01*
X326176Y457677D01*
X326156Y457682D01*
X326132Y457687D01*
X326106Y457692D01*
X326076Y457699D01*
X326041Y457706D01*
X326004Y457711D01*
X325964Y457717D01*
X325922Y457722D01*
X325876Y457727D01*
X325829Y457729D01*
X325779Y457732D01*
D02*
G37*
G36*
X302779Y458732D02*
X302726D01*
X302724D01*
X302721D01*
X302715D01*
X302709D01*
X302700D01*
X302688D01*
X302661Y458731D01*
X302628Y458729D01*
X302590Y458726D01*
X302548Y458722D01*
X302502Y458717D01*
X302455Y458710D01*
X302406Y458701D01*
X302355Y458690D01*
X302304Y458678D01*
X302255Y458662D01*
X302208Y458645D01*
X302163Y458626D01*
X302120Y458603D01*
X302119Y458601D01*
X302112Y458598D01*
X302101Y458591D01*
X302085Y458580D01*
X302070Y458568D01*
X302050Y458552D01*
X302028Y458535D01*
X302005Y458515D01*
X301982Y458493D01*
X301958Y458470D01*
X301935Y458444D01*
X301912Y458416D01*
X301889Y458386D01*
X301870Y458354D01*
X301853Y458323D01*
X301837Y458288D01*
Y458286D01*
X301835Y458281D01*
X301832Y458274D01*
X301828Y458263D01*
X301825Y458248D01*
X301819Y458230D01*
X301816Y458209D01*
X301811Y458185D01*
X301805Y458157D01*
X301800Y458125D01*
X301797Y458090D01*
X301793Y458052D01*
X301790Y458008D01*
X301786Y457962D01*
X301784Y457913D01*
Y457332D01*
X303704D01*
Y457908D01*
X303702Y457929D01*
Y457954D01*
X303701Y457980D01*
X303699Y458010D01*
X303694Y458071D01*
X303685Y458136D01*
X303675Y458199D01*
X303667Y458228D01*
X303659Y458256D01*
Y458258D01*
X303657Y458263D01*
X303654Y458270D01*
X303650Y458279D01*
X303645Y458291D01*
X303640Y458306D01*
X303625Y458339D01*
X303606Y458374D01*
X303585Y458412D01*
X303559Y458449D01*
X303529Y458482D01*
X303527Y458484D01*
X303524Y458487D01*
X303517Y458493D01*
X303508Y458501D01*
X303496Y458512D01*
X303480Y458523D01*
X303465Y458535D01*
X303445Y458549D01*
X303422Y458565D01*
X303400Y458578D01*
X303374Y458594D01*
X303344Y458610D01*
X303314Y458624D01*
X303282Y458640D01*
X303247Y458654D01*
X303211Y458666D01*
X303209D01*
X303202Y458669D01*
X303190Y458673D01*
X303176Y458676D01*
X303156Y458682D01*
X303132Y458687D01*
X303106Y458692D01*
X303076Y458699D01*
X303041Y458706D01*
X303004Y458711D01*
X302964Y458717D01*
X302922Y458722D01*
X302876Y458727D01*
X302829Y458729D01*
X302779Y458732D01*
D02*
G37*
%LPD*%
D11*
X487224Y328780D02*
Y361220D01*
X512776D01*
Y328780D02*
Y361220D01*
X487224Y328780D02*
X512776D01*
X347126Y319165D02*
X356968D01*
Y314835D02*
Y319165D01*
X347126Y314835D02*
X356968D01*
X347126D02*
Y319165D01*
X365079Y340165D02*
X374921D01*
Y335835D02*
Y340165D01*
X365079Y335835D02*
X374921D01*
X365079D02*
Y340165D01*
X465579Y402335D02*
Y406665D01*
Y402335D02*
X475421D01*
Y406665D01*
X465579D02*
X475421D01*
X320858Y442811D02*
X333142D01*
Y469189D01*
X320858D02*
X333142D01*
X320858Y442811D02*
Y469189D01*
X297858Y443811D02*
X310142D01*
Y470189D01*
X297858D02*
X310142D01*
X297858Y443811D02*
Y470189D01*
X487618Y332618D02*
Y357382D01*
X512382D01*
Y332618D02*
Y357382D01*
X487618Y332618D02*
X512382D01*
X349291Y318772D02*
X354803D01*
Y315228D02*
Y318772D01*
X349291Y315228D02*
X354803D01*
X349291D02*
Y318772D01*
X367244Y339772D02*
X372756D01*
Y336228D02*
Y339772D01*
X367244Y336228D02*
X372756D01*
X367244D02*
Y339772D01*
X467154Y402728D02*
Y406272D01*
Y402728D02*
X473846D01*
Y406272D01*
X467154D02*
X473846D01*
X321252Y446945D02*
X332748D01*
Y465055D01*
X321252D02*
X332748D01*
X321252Y446945D02*
Y465055D01*
X298252Y447945D02*
X309748D01*
Y466055D01*
X298252D02*
X309748D01*
X298252Y447945D02*
Y466055D01*
X468992Y458756D02*
G03*
X468992Y458756I-394J0D01*
G01*
D13*
X470567Y474504D02*
X511905D01*
Y413480D02*
Y474504D01*
X470567Y413480D02*
X511905D01*
X470567D02*
Y474504D01*
D14*
X240000Y510000D02*
X690000D01*
Y240000D02*
Y510000D01*
X240000Y240000D02*
X690000D01*
X240000D02*
Y510000D01*
D15*
X335000Y381074D02*
Y378450D01*
X335525Y377925D01*
X336574D01*
X337099Y378450D01*
Y381074D01*
X340248Y377925D02*
X338149D01*
X340248Y380024D01*
Y380549D01*
X339723Y381074D01*
X338673D01*
X338149Y380549D01*
D16*
X340606Y381862D02*
G03*
X340606Y381862I-1969J0D01*
G01*
X247386Y465858D02*
X270614D01*
X247386Y448142D02*
Y465858D01*
X270614Y448142D02*
Y465858D01*
X247386Y448142D02*
X270614D01*
X247386Y436858D02*
X270614D01*
X247386Y419142D02*
Y436858D01*
X270614Y419142D02*
Y436858D01*
X247386Y419142D02*
X270614D01*
X559130Y360596D02*
Y473195D01*
X668577Y360596D02*
Y473195D01*
X559130Y360596D02*
X668577D01*
X559130Y473195D02*
X668577D01*
X515323Y360976D02*
X554299D01*
X515323D02*
Y378693D01*
X554299Y360976D02*
Y378693D01*
X515323D02*
X554299D01*
X351299Y444783D02*
X398701D01*
Y509744D01*
X351299D02*
X398701D01*
X351299Y444783D02*
Y509744D01*
X444594Y363594D02*
Y375405D01*
X456405D01*
Y363594D02*
Y375405D01*
X444594Y363594D02*
X456405D01*
X444594Y375406D02*
X456406D01*
Y363594D02*
Y375406D01*
X444594Y363594D02*
X456406D01*
X444594D02*
Y375406D01*
X495457Y371307D02*
Y384693D01*
X502543Y371307D02*
Y384693D01*
X495457Y371307D02*
X502543D01*
X495457Y384693D02*
X502543D01*
X413252Y441520D02*
X444748D01*
X413252D02*
Y456480D01*
X444748D01*
Y441520D02*
Y456480D01*
X443992Y357543D02*
X457378D01*
X443992Y350457D02*
X457378D01*
X443992D02*
Y357543D01*
X457378Y350457D02*
Y357543D01*
X426457Y368492D02*
Y381878D01*
X433543Y368492D02*
Y381878D01*
X426457Y368492D02*
X433543D01*
X426457Y381878D02*
X433543D01*
X405957Y368992D02*
Y382378D01*
X413043Y368992D02*
Y382378D01*
X405957Y368992D02*
X413043D01*
X405957Y382378D02*
X413043D01*
X366543Y370260D02*
Y383646D01*
X359457Y370260D02*
Y383646D01*
X366543D01*
X359457Y370260D02*
X366543D01*
X378043Y370354D02*
Y383740D01*
X370957Y370354D02*
Y383740D01*
X378043D01*
X370957Y370354D02*
X378043D01*
X458543Y453354D02*
Y466740D01*
X451457Y453354D02*
Y466740D01*
X458543D01*
X451457Y453354D02*
X458543D01*
X508992Y390457D02*
X522378D01*
X508992Y397543D02*
X522378D01*
Y390457D02*
Y397543D01*
X508992Y390457D02*
Y397543D01*
X452457Y426307D02*
Y439693D01*
X459543Y426307D02*
Y439693D01*
X452457Y426307D02*
X459543D01*
X452457Y439693D02*
X459543D01*
X335094Y373594D02*
X346906D01*
X335094Y385406D02*
X346906D01*
Y373594D02*
Y385406D01*
X335094Y373594D02*
Y385406D01*
X388937Y345709D02*
X431063D01*
X388937Y332717D02*
X431063D01*
Y351220D01*
X388937Y332717D02*
Y351220D01*
X431063D01*
X247323Y390307D02*
X270551D01*
Y408024D01*
X247323Y390307D02*
Y408024D01*
X270551D01*
X522449Y474693D02*
X545677D01*
X522449Y456976D02*
Y474693D01*
X545677Y456976D02*
Y474693D01*
X522449Y456976D02*
X545677D01*
X259000Y455031D02*
Y458968D01*
X257031Y457000D02*
X260968D01*
X259000Y426031D02*
Y429968D01*
X257031Y428000D02*
X260968D01*
X617939Y416896D02*
X621876D01*
X619907Y414927D02*
Y418864D01*
X534811Y367866D02*
Y371803D01*
X532843Y369835D02*
X536780D01*
X375000Y458032D02*
Y461969D01*
X373031Y460000D02*
X376969D01*
X450500Y367532D02*
Y371469D01*
X448532Y369500D02*
X452469D01*
X497032Y378000D02*
X500969D01*
X499000Y376032D02*
Y379969D01*
X495260Y370126D02*
Y385874D01*
X502740Y370126D02*
Y385874D01*
X495260Y370126D02*
X502740D01*
X495260Y385874D02*
X502740D01*
X427032Y449000D02*
X430969D01*
X429000Y447032D02*
Y450969D01*
X450685Y352031D02*
Y355969D01*
X448717Y354000D02*
X452654D01*
X442811Y357740D02*
X458559D01*
X442811Y350260D02*
X458559D01*
X442811D02*
Y357740D01*
X458559Y350260D02*
Y357740D01*
X428032Y375185D02*
X431969D01*
X430000Y373217D02*
Y377154D01*
X426260Y367311D02*
Y383059D01*
X433740Y367311D02*
Y383059D01*
X426260Y367311D02*
X433740D01*
X426260Y383059D02*
X433740D01*
X407532Y375685D02*
X411469D01*
X409500Y373717D02*
Y377654D01*
X405760Y367811D02*
Y383559D01*
X413240Y367811D02*
Y383559D01*
X405760Y367811D02*
X413240D01*
X405760Y383559D02*
X413240D01*
X361032Y376953D02*
X364969D01*
X363000Y374984D02*
Y378921D01*
X366740Y369079D02*
Y384827D01*
X359260Y369079D02*
Y384827D01*
X366740D01*
X359260Y369079D02*
X366740D01*
X372532Y377047D02*
X376469D01*
X374500Y375079D02*
Y379016D01*
X378240Y369173D02*
Y384921D01*
X370760Y369173D02*
Y384921D01*
X378240D01*
X370760Y369173D02*
X378240D01*
X453032Y460047D02*
X456969D01*
X455000Y458079D02*
Y462016D01*
X458740Y452173D02*
Y467921D01*
X451260Y452173D02*
Y467921D01*
X458740D01*
X451260Y452173D02*
X458740D01*
X515685Y392032D02*
Y395969D01*
X513717Y394000D02*
X517654D01*
X507811Y390260D02*
X523559D01*
X507811Y397740D02*
X523559D01*
Y390260D02*
Y397740D01*
X507811Y390260D02*
Y397740D01*
X454032Y433000D02*
X457969D01*
X456000Y431032D02*
Y434969D01*
X452260Y425126D02*
Y440874D01*
X459740Y425126D02*
Y440874D01*
X452260Y425126D02*
X459740D01*
X452260Y440874D02*
X459740D01*
X341000Y377532D02*
Y381469D01*
X339032Y379500D02*
X342969D01*
X408031Y340000D02*
X411969D01*
X410000Y338031D02*
Y341968D01*
X256968Y399165D02*
X260905D01*
X258937Y397197D02*
Y401134D01*
X532094Y465835D02*
X536031D01*
X534063Y463866D02*
Y467803D01*
D17*
X246992Y466252D02*
X271008D01*
X246992Y447748D02*
Y466252D01*
X271008Y447748D02*
Y466252D01*
X246992Y447748D02*
X271008D01*
X246992Y437252D02*
X271008D01*
X246992Y418748D02*
Y437252D01*
X271008Y418748D02*
Y437252D01*
X246992Y418748D02*
X271008D01*
X558734Y358777D02*
Y474915D01*
Y358777D02*
X670153D01*
Y474915D01*
X558734D02*
X670153D01*
X514929Y360583D02*
X554693D01*
X514929D02*
Y379087D01*
X554693Y360583D02*
Y379087D01*
X514929D02*
X554693D01*
X345394Y444390D02*
Y510138D01*
X404606D01*
Y444390D02*
Y510138D01*
X345394Y444390D02*
X404606D01*
X443610Y375799D02*
X457390D01*
Y363201D02*
Y375799D01*
X443610Y363201D02*
X457390D01*
X443610D02*
Y375799D01*
X412858Y438567D02*
X445142D01*
X412858D02*
Y459433D01*
X445142D01*
Y438567D02*
Y459433D01*
X466827Y459543D02*
X469583D01*
X466827D02*
Y475488D01*
X515646D01*
Y459543D02*
Y475488D01*
X512890Y459543D02*
X515646D01*
X512890Y412496D02*
Y459543D01*
X469583Y412496D02*
X512890D01*
X469583D02*
Y459543D01*
X333126Y371626D02*
X348874D01*
X333126Y387374D02*
X348874D01*
Y371626D02*
Y387374D01*
X333126Y371626D02*
Y387374D01*
X246929Y389913D02*
X270945D01*
Y408417D01*
X246929Y389913D02*
Y408417D01*
X270945D01*
X522055Y475087D02*
X546071D01*
X522055Y456583D02*
Y475087D01*
X546071Y456583D02*
Y475087D01*
X522055Y456583D02*
X546071D01*
M02*
