G04*
G04 #@! TF.GenerationSoftware,Altium Limited,Altium Designer,21.0.9 (235)*
G04*
G04 Layer_Color=8388736*
%FSLAX25Y25*%
%MOIN*%
G70*
G04*
G04 #@! TF.SameCoordinates,45B737F9-4C2A-4F44-B11E-15A99866B8DE*
G04*
G04*
G04 #@! TF.FilePolarity,Negative*
G04*
G01*
G75*
%ADD11C,0.00787*%
%ADD13C,0.00500*%
%ADD15C,0.00630*%
%ADD16C,0.00394*%
%ADD17C,0.00197*%
%ADD18R,0.04724X0.06299*%
%ADD19R,0.08268X0.04331*%
%ADD20R,0.09055X0.06496*%
%ADD21R,0.12992X0.08661*%
%ADD22R,0.08071X0.05118*%
%ADD23R,0.06890X0.06299*%
%ADD24R,0.07756X0.06693*%
%ADD25R,0.16811X0.06496*%
%ADD26R,0.02756X0.01968*%
%ADD27R,0.06299X0.09843*%
%ADD28R,0.06394X0.08394*%
%ADD29R,0.07087X0.04724*%
%ADD30R,0.05512X0.07874*%
%ADD31R,0.04724X0.07087*%
%ADD32R,0.02756X0.01968*%
%ADD33R,0.01968X0.02756*%
G04:AMPARAMS|DCode=34|XSize=13.78mil|YSize=27.56mil|CornerRadius=3.94mil|HoleSize=0mil|Usage=FLASHONLY|Rotation=90.000|XOffset=0mil|YOffset=0mil|HoleType=Round|Shape=RoundedRectangle|*
%AMROUNDEDRECTD34*
21,1,0.01378,0.01968,0,0,90.0*
21,1,0.00591,0.02756,0,0,90.0*
1,1,0.00787,0.00984,0.00295*
1,1,0.00787,0.00984,-0.00295*
1,1,0.00787,-0.00984,-0.00295*
1,1,0.00787,-0.00984,0.00295*
%
%ADD34ROUNDEDRECTD34*%
G04:AMPARAMS|DCode=35|XSize=13.78mil|YSize=27.56mil|CornerRadius=3.94mil|HoleSize=0mil|Usage=FLASHONLY|Rotation=0.000|XOffset=0mil|YOffset=0mil|HoleType=Round|Shape=RoundedRectangle|*
%AMROUNDEDRECTD35*
21,1,0.01378,0.01968,0,0,0.0*
21,1,0.00591,0.02756,0,0,0.0*
1,1,0.00787,0.00295,-0.00984*
1,1,0.00787,-0.00295,-0.00984*
1,1,0.00787,-0.00295,0.00984*
1,1,0.00787,0.00295,0.00984*
%
%ADD35ROUNDEDRECTD35*%
G04:AMPARAMS|DCode=36|XSize=70.87mil|YSize=70.87mil|CornerRadius=3.98mil|HoleSize=0mil|Usage=FLASHONLY|Rotation=0.000|XOffset=0mil|YOffset=0mil|HoleType=Round|Shape=RoundedRectangle|*
%AMROUNDEDRECTD36*
21,1,0.07087,0.06291,0,0,0.0*
21,1,0.06291,0.07087,0,0,0.0*
1,1,0.00795,0.03146,-0.03146*
1,1,0.00795,-0.03146,-0.03146*
1,1,0.00795,-0.03146,0.03146*
1,1,0.00795,0.03146,0.03146*
%
%ADD36ROUNDEDRECTD36*%
%ADD37R,0.08394X0.06394*%
%ADD38R,0.03150X0.03150*%
%ADD39R,0.06693X0.09843*%
%ADD40C,0.06299*%
%ADD41R,0.06299X0.06299*%
%ADD42C,0.06102*%
%ADD43R,0.06102X0.06102*%
%ADD44C,0.11417*%
%ADD45R,0.06063X0.06063*%
%ADD46C,0.06063*%
%ADD47R,0.07087X0.07087*%
%ADD48C,0.07087*%
%ADD49C,0.05394*%
%ADD50C,0.02362*%
D11*
X487618Y332618D02*
Y357382D01*
X512382D01*
Y332618D02*
Y357382D01*
X487618Y332618D02*
X512382D01*
X349291Y318772D02*
X354803D01*
Y315228D02*
Y318772D01*
X349291Y315228D02*
X354803D01*
X349291D02*
Y318772D01*
X367244Y339772D02*
X372756D01*
Y336228D02*
Y339772D01*
X367244Y336228D02*
X372756D01*
X367244D02*
Y339772D01*
X467154Y402728D02*
Y406272D01*
Y402728D02*
X473846D01*
Y406272D01*
X467154D02*
X473846D01*
X321252Y446945D02*
X332748D01*
Y465055D01*
X321252D02*
X332748D01*
X321252Y446945D02*
Y465055D01*
X298252Y447945D02*
X309748D01*
Y466055D01*
X298252D02*
X309748D01*
X298252Y447945D02*
Y466055D01*
X468992Y458756D02*
G03*
X468992Y458756I-394J0D01*
G01*
D13*
X470567Y474504D02*
X511905D01*
Y413480D02*
Y474504D01*
X470567Y413480D02*
X511905D01*
X470567D02*
Y474504D01*
D15*
X335000Y381074D02*
Y378450D01*
X335525Y377925D01*
X336574D01*
X337099Y378450D01*
Y381074D01*
X340248Y377925D02*
X338149D01*
X340248Y380024D01*
Y380549D01*
X339723Y381074D01*
X338673D01*
X338149Y380549D01*
D16*
X340606Y381862D02*
G03*
X340606Y381862I-1969J0D01*
G01*
X247386Y465858D02*
X270614D01*
X247386Y448142D02*
Y465858D01*
X270614Y448142D02*
Y465858D01*
X247386Y448142D02*
X270614D01*
X247386Y436858D02*
X270614D01*
X247386Y419142D02*
Y436858D01*
X270614Y419142D02*
Y436858D01*
X247386Y419142D02*
X270614D01*
X559130Y360596D02*
Y473195D01*
X668577Y360596D02*
Y473195D01*
X559130Y360596D02*
X668577D01*
X559130Y473195D02*
X668577D01*
X515323Y360976D02*
X554299D01*
X515323D02*
Y378693D01*
X554299Y360976D02*
Y378693D01*
X515323D02*
X554299D01*
X351299Y444783D02*
X398701D01*
Y509744D01*
X351299D02*
X398701D01*
X351299Y444783D02*
Y509744D01*
X444594Y363594D02*
Y375405D01*
X456405D01*
Y363594D02*
Y375405D01*
X444594Y363594D02*
X456405D01*
X444594Y375406D02*
X456406D01*
Y363594D02*
Y375406D01*
X444594Y363594D02*
X456406D01*
X444594D02*
Y375406D01*
X495457Y371307D02*
Y384693D01*
X502543Y371307D02*
Y384693D01*
X495457Y371307D02*
X502543D01*
X495457Y384693D02*
X502543D01*
X413252Y441520D02*
X444748D01*
X413252D02*
Y456480D01*
X444748D01*
Y441520D02*
Y456480D01*
X443992Y357543D02*
X457378D01*
X443992Y350457D02*
X457378D01*
X443992D02*
Y357543D01*
X457378Y350457D02*
Y357543D01*
X426457Y368492D02*
Y381878D01*
X433543Y368492D02*
Y381878D01*
X426457Y368492D02*
X433543D01*
X426457Y381878D02*
X433543D01*
X405957Y368992D02*
Y382378D01*
X413043Y368992D02*
Y382378D01*
X405957Y368992D02*
X413043D01*
X405957Y382378D02*
X413043D01*
X366543Y370260D02*
Y383646D01*
X359457Y370260D02*
Y383646D01*
X366543D01*
X359457Y370260D02*
X366543D01*
X378043Y370354D02*
Y383740D01*
X370957Y370354D02*
Y383740D01*
X378043D01*
X370957Y370354D02*
X378043D01*
X458543Y453354D02*
Y466740D01*
X451457Y453354D02*
Y466740D01*
X458543D01*
X451457Y453354D02*
X458543D01*
X508992Y390457D02*
X522378D01*
X508992Y397543D02*
X522378D01*
Y390457D02*
Y397543D01*
X508992Y390457D02*
Y397543D01*
X452457Y426307D02*
Y439693D01*
X459543Y426307D02*
Y439693D01*
X452457Y426307D02*
X459543D01*
X452457Y439693D02*
X459543D01*
X335094Y373594D02*
X346906D01*
X335094Y385406D02*
X346906D01*
Y373594D02*
Y385406D01*
X335094Y373594D02*
Y385406D01*
X388937Y345709D02*
X431063D01*
X388937Y332717D02*
X431063D01*
Y351220D01*
X388937Y332717D02*
Y351220D01*
X431063D01*
X247323Y390307D02*
X270551D01*
Y408024D01*
X247323Y390307D02*
Y408024D01*
X270551D01*
X522449Y474693D02*
X545677D01*
X522449Y456976D02*
Y474693D01*
X545677Y456976D02*
Y474693D01*
X522449Y456976D02*
X545677D01*
X259000Y455031D02*
Y458968D01*
X257031Y457000D02*
X260968D01*
X259000Y426031D02*
Y429968D01*
X257031Y428000D02*
X260968D01*
X617939Y416896D02*
X621876D01*
X619907Y414927D02*
Y418864D01*
X534811Y367866D02*
Y371803D01*
X532843Y369835D02*
X536780D01*
X375000Y458032D02*
Y461969D01*
X373031Y460000D02*
X376969D01*
X450500Y367532D02*
Y371469D01*
X448532Y369500D02*
X452469D01*
X497032Y378000D02*
X500969D01*
X499000Y376032D02*
Y379969D01*
X495260Y370126D02*
Y385874D01*
X502740Y370126D02*
Y385874D01*
X495260Y370126D02*
X502740D01*
X495260Y385874D02*
X502740D01*
X427032Y449000D02*
X430969D01*
X429000Y447032D02*
Y450969D01*
X450685Y352031D02*
Y355969D01*
X448717Y354000D02*
X452654D01*
X442811Y357740D02*
X458559D01*
X442811Y350260D02*
X458559D01*
X442811D02*
Y357740D01*
X458559Y350260D02*
Y357740D01*
X428032Y375185D02*
X431969D01*
X430000Y373217D02*
Y377154D01*
X426260Y367311D02*
Y383059D01*
X433740Y367311D02*
Y383059D01*
X426260Y367311D02*
X433740D01*
X426260Y383059D02*
X433740D01*
X407532Y375685D02*
X411469D01*
X409500Y373717D02*
Y377654D01*
X405760Y367811D02*
Y383559D01*
X413240Y367811D02*
Y383559D01*
X405760Y367811D02*
X413240D01*
X405760Y383559D02*
X413240D01*
X361032Y376953D02*
X364969D01*
X363000Y374984D02*
Y378921D01*
X366740Y369079D02*
Y384827D01*
X359260Y369079D02*
Y384827D01*
X366740D01*
X359260Y369079D02*
X366740D01*
X372532Y377047D02*
X376469D01*
X374500Y375079D02*
Y379016D01*
X378240Y369173D02*
Y384921D01*
X370760Y369173D02*
Y384921D01*
X378240D01*
X370760Y369173D02*
X378240D01*
X453032Y460047D02*
X456969D01*
X455000Y458079D02*
Y462016D01*
X458740Y452173D02*
Y467921D01*
X451260Y452173D02*
Y467921D01*
X458740D01*
X451260Y452173D02*
X458740D01*
X515685Y392032D02*
Y395969D01*
X513717Y394000D02*
X517654D01*
X507811Y390260D02*
X523559D01*
X507811Y397740D02*
X523559D01*
Y390260D02*
Y397740D01*
X507811Y390260D02*
Y397740D01*
X454032Y433000D02*
X457969D01*
X456000Y431032D02*
Y434969D01*
X452260Y425126D02*
Y440874D01*
X459740Y425126D02*
Y440874D01*
X452260Y425126D02*
X459740D01*
X452260Y440874D02*
X459740D01*
X341000Y377532D02*
Y381469D01*
X339032Y379500D02*
X342969D01*
X408031Y340000D02*
X411969D01*
X410000Y338031D02*
Y341968D01*
X256968Y399165D02*
X260905D01*
X258937Y397197D02*
Y401134D01*
X532094Y465835D02*
X536031D01*
X534063Y463866D02*
Y467803D01*
D17*
X246992Y466252D02*
X271008D01*
X246992Y447748D02*
Y466252D01*
X271008Y447748D02*
Y466252D01*
X246992Y447748D02*
X271008D01*
X246992Y437252D02*
X271008D01*
X246992Y418748D02*
Y437252D01*
X271008Y418748D02*
Y437252D01*
X246992Y418748D02*
X271008D01*
X558734Y358777D02*
Y474915D01*
Y358777D02*
X670153D01*
Y474915D01*
X558734D02*
X670153D01*
X514929Y360583D02*
X554693D01*
X514929D02*
Y379087D01*
X554693Y360583D02*
Y379087D01*
X514929D02*
X554693D01*
X345394Y444390D02*
Y510138D01*
X404606D01*
Y444390D02*
Y510138D01*
X345394Y444390D02*
X404606D01*
X443610Y375799D02*
X457390D01*
Y363201D02*
Y375799D01*
X443610Y363201D02*
X457390D01*
X443610D02*
Y375799D01*
X412858Y438567D02*
X445142D01*
X412858D02*
Y459433D01*
X445142D01*
Y438567D02*
Y459433D01*
X466827Y459543D02*
X469583D01*
X466827D02*
Y475488D01*
X515646D01*
Y459543D02*
Y475488D01*
X512890Y459543D02*
X515646D01*
X512890Y412496D02*
Y459543D01*
X469583Y412496D02*
X512890D01*
X469583D02*
Y459543D01*
X333126Y371626D02*
X348874D01*
X333126Y387374D02*
X348874D01*
Y371626D02*
Y387374D01*
X333126Y371626D02*
Y387374D01*
X246929Y389913D02*
X270945D01*
Y408417D01*
X246929Y389913D02*
Y408417D01*
X270945D01*
X522055Y475087D02*
X546071D01*
X522055Y456583D02*
Y475087D01*
X546071Y456583D02*
Y475087D01*
X522055Y456583D02*
X546071D01*
D18*
X634366Y471571D02*
D03*
D19*
X589602Y469012D02*
D03*
Y464287D02*
D03*
D20*
X591728Y362220D02*
D03*
D21*
X573303Y371689D02*
D03*
Y465390D02*
D03*
D22*
X606000Y401315D02*
D03*
Y411157D02*
D03*
Y421000D02*
D03*
Y430842D02*
D03*
Y440685D02*
D03*
Y391472D02*
D03*
Y446590D02*
D03*
Y452496D02*
D03*
Y381630D02*
D03*
D23*
X666512Y471571D02*
D03*
D24*
X666079Y448461D02*
D03*
D25*
X661551Y362220D02*
D03*
D26*
X455815Y373437D02*
D03*
Y369500D02*
D03*
Y365563D02*
D03*
X445185D02*
D03*
Y369500D02*
D03*
Y373437D02*
D03*
D27*
X450500Y369500D02*
D03*
D28*
X467000Y382000D02*
D03*
X478000D02*
D03*
X333000Y317000D02*
D03*
X322000D02*
D03*
X350000Y338000D02*
D03*
X339000D02*
D03*
X426500Y399000D02*
D03*
X437500D02*
D03*
D29*
X499000Y372685D02*
D03*
Y383315D02*
D03*
X430000Y369870D02*
D03*
Y380500D02*
D03*
X409500Y370370D02*
D03*
Y381000D02*
D03*
X363000Y382268D02*
D03*
Y371638D02*
D03*
X374500Y382362D02*
D03*
Y371732D02*
D03*
X455000Y465362D02*
D03*
Y454732D02*
D03*
X456000Y427685D02*
D03*
Y438315D02*
D03*
D30*
X439827Y442701D02*
D03*
Y455299D02*
D03*
X418173Y442701D02*
D03*
Y455299D02*
D03*
D31*
X445370Y354000D02*
D03*
X456000D02*
D03*
X521000Y394000D02*
D03*
X510370D02*
D03*
D32*
X472929Y458756D02*
D03*
Y454425D02*
D03*
Y451276D02*
D03*
Y444976D02*
D03*
X476472Y443402D02*
D03*
X472929Y441827D02*
D03*
X476472Y440252D02*
D03*
X472929Y438677D02*
D03*
X476472Y437102D02*
D03*
X472929Y435528D02*
D03*
X476472Y433953D02*
D03*
X472929Y432378D02*
D03*
X476472Y430803D02*
D03*
X472929Y429228D02*
D03*
X509543Y419780D02*
D03*
Y422929D02*
D03*
X506000Y424504D02*
D03*
X509543Y426079D02*
D03*
X506000Y427654D02*
D03*
X509543Y429228D02*
D03*
X506000Y430803D02*
D03*
X509543Y432378D02*
D03*
X506000Y433953D02*
D03*
Y437102D02*
D03*
X509543Y438677D02*
D03*
X506000Y440252D02*
D03*
X509543Y441827D02*
D03*
X506000Y443402D02*
D03*
X509543Y444976D02*
D03*
X506000Y446551D02*
D03*
Y449701D02*
D03*
X509543Y451276D02*
D03*
X506000Y452850D02*
D03*
X509543Y454425D02*
D03*
X506000Y456000D02*
D03*
X509543Y458756D02*
D03*
D33*
X472339Y415842D02*
D03*
X475488D02*
D03*
X478638D02*
D03*
X481787D02*
D03*
X483362Y419386D02*
D03*
X484937Y415842D02*
D03*
X486512Y419386D02*
D03*
X488087Y415842D02*
D03*
X489661Y419386D02*
D03*
X491236Y415842D02*
D03*
X492811Y419386D02*
D03*
X494386Y415842D02*
D03*
X495961Y419386D02*
D03*
X497535Y415842D02*
D03*
X499110Y419386D02*
D03*
X500685Y415842D02*
D03*
X503835D02*
D03*
X506984D02*
D03*
X510134D02*
D03*
X483362Y441827D02*
D03*
X486512D02*
D03*
X489661D02*
D03*
X492811D02*
D03*
X495961D02*
D03*
X499110D02*
D03*
D34*
X335488Y382453D02*
D03*
Y380484D02*
D03*
Y378516D02*
D03*
Y376547D02*
D03*
X346512D02*
D03*
Y378516D02*
D03*
Y380484D02*
D03*
Y382453D02*
D03*
D35*
X338047Y373988D02*
D03*
X340016D02*
D03*
X341984D02*
D03*
X343953D02*
D03*
Y385012D02*
D03*
X341984D02*
D03*
X340016D02*
D03*
X338047D02*
D03*
D36*
X341000Y379500D02*
D03*
D37*
X455000Y406000D02*
D03*
Y417000D02*
D03*
X390000Y426000D02*
D03*
Y415000D02*
D03*
X375000Y426000D02*
D03*
Y415000D02*
D03*
X301000Y406000D02*
D03*
Y395000D02*
D03*
X321000Y426000D02*
D03*
Y415000D02*
D03*
X340000Y426000D02*
D03*
Y415000D02*
D03*
X358000Y426000D02*
D03*
Y415000D02*
D03*
D38*
X349094Y317000D02*
D03*
X355000D02*
D03*
X367047Y338000D02*
D03*
X372953D02*
D03*
X473453Y404500D02*
D03*
X467547D02*
D03*
D39*
X327000Y463874D02*
D03*
Y448126D02*
D03*
X304000Y464874D02*
D03*
Y449126D02*
D03*
D40*
X255063Y454835D02*
D03*
Y425835D02*
D03*
X538748Y372000D02*
D03*
X530874D02*
D03*
X546622D02*
D03*
X255000Y397000D02*
D03*
X538000Y468000D02*
D03*
D41*
X262937Y454835D02*
D03*
Y425835D02*
D03*
X523000Y372000D02*
D03*
X262874Y397000D02*
D03*
X530126Y468000D02*
D03*
D42*
X370079Y458602D02*
D03*
X379921D02*
D03*
Y450728D02*
D03*
D43*
X370079D02*
D03*
D44*
X351299Y469272D02*
D03*
X398701D02*
D03*
D45*
X491142Y332205D02*
D03*
D46*
Y357795D02*
D03*
X508858Y332205D02*
D03*
Y357795D02*
D03*
D47*
X400000Y340000D02*
D03*
D48*
X410000D02*
D03*
X420000D02*
D03*
D49*
X421500Y380000D02*
D03*
X332000Y404500D02*
D03*
X355000Y383500D02*
D03*
X338000Y366500D02*
D03*
X340000Y442000D02*
D03*
X320500Y387500D02*
D03*
X344500Y400500D02*
D03*
X351000Y420500D02*
D03*
X346500Y366000D02*
D03*
X363000Y358500D02*
D03*
X329000Y369000D02*
D03*
X504500Y407500D02*
D03*
X522333Y413177D02*
D03*
X438000Y420000D02*
D03*
X489500Y407000D02*
D03*
X390000Y400000D02*
D03*
X535000Y417000D02*
D03*
X595000Y420000D02*
D03*
X615000Y425921D02*
D03*
X590000Y425000D02*
D03*
X585000Y400000D02*
D03*
X496308Y434692D02*
D03*
X545000Y451000D02*
D03*
X551500Y447000D02*
D03*
X519459Y421500D02*
D03*
X483459Y427500D02*
D03*
X497500Y427000D02*
D03*
X375000Y404500D02*
D03*
X500000Y450000D02*
D03*
X570000Y420000D02*
D03*
D50*
X341000Y379500D02*
D03*
X342969Y377532D02*
D03*
Y381469D02*
D03*
X339032D02*
D03*
Y377532D02*
D03*
M02*
