G04*
G04 #@! TF.GenerationSoftware,Altium Limited,Altium Designer,21.2.0 (30)*
G04*
G04 Layer_Physical_Order=2*
G04 Layer_Color=16711680*
%FSLAX25Y25*%
%MOIN*%
G70*
G04*
G04 #@! TF.SameCoordinates,1891EFD9-0032-4EA4-A798-630DAF25FF75*
G04*
G04*
G04 #@! TF.FilePolarity,Positive*
G04*
G01*
G75*
%ADD11C,0.00787*%
%ADD12C,0.01000*%
%ADD13C,0.00500*%
%ADD14C,0.00800*%
%ADD15C,0.00630*%
%ADD16C,0.00394*%
%ADD17C,0.00197*%
%ADD45C,0.06063*%
%ADD46R,0.06063X0.06063*%
%ADD72C,0.01200*%
%ADD73C,0.05906*%
%ADD74R,0.05906X0.05906*%
%ADD75C,0.06693*%
%ADD76R,0.06693X0.06693*%
%ADD77O,0.08661X0.04331*%
%ADD78O,0.07087X0.04331*%
%ADD79C,0.05000*%
%ADD80C,0.01968*%
G36*
X429000Y0D02*
X0D01*
Y167000D01*
X221046D01*
X221243Y166500D01*
X221115Y166191D01*
Y151231D01*
X221274Y150848D01*
X221656Y150690D01*
X236470D01*
Y146506D01*
X236628Y146124D01*
X237011Y145965D01*
X243310D01*
X243693Y146124D01*
X243851Y146506D01*
Y150690D01*
X270475D01*
X270858Y150848D01*
X271017Y151231D01*
Y166191D01*
X270889Y166500D01*
X271086Y167000D01*
X429000D01*
Y0D01*
D02*
G37*
%LPC*%
G36*
X127947Y153969D02*
X126032D01*
Y151530D01*
X130603D01*
X130544Y151976D01*
X130275Y152624D01*
X129848Y153181D01*
X129291Y153609D01*
X128643Y153877D01*
X127947Y153969D01*
D02*
G37*
G36*
X125532D02*
X123617D01*
X122921Y153877D01*
X122272Y153609D01*
X121716Y153181D01*
X121288Y152624D01*
X121020Y151976D01*
X120961Y151530D01*
X125532D01*
Y153969D01*
D02*
G37*
G36*
X130603Y151030D02*
X126032D01*
Y148592D01*
X127947D01*
X128643Y148684D01*
X129291Y148952D01*
X129848Y149379D01*
X130275Y149936D01*
X130544Y150584D01*
X130603Y151030D01*
D02*
G37*
G36*
X125532D02*
X120961D01*
X121020Y150584D01*
X121288Y149936D01*
X121716Y149379D01*
X122272Y148952D01*
X122921Y148684D01*
X123617Y148592D01*
X125532D01*
Y151030D01*
D02*
G37*
G36*
X288455Y155453D02*
X287545D01*
X286667Y155218D01*
X285880Y154763D01*
X285237Y154120D01*
X284783Y153333D01*
X284547Y152455D01*
Y151545D01*
X284783Y150667D01*
X285237Y149880D01*
X285880Y149237D01*
X286667Y148783D01*
X287545Y148547D01*
X288455D01*
X289333Y148783D01*
X290120Y149237D01*
X290763Y149880D01*
X291217Y150667D01*
X291453Y151545D01*
Y152455D01*
X291217Y153333D01*
X290763Y154120D01*
X290120Y154763D01*
X289333Y155218D01*
X288455Y155453D01*
D02*
G37*
G36*
X283579D02*
X276673D01*
Y148547D01*
X283579D01*
Y155453D01*
D02*
G37*
G36*
X10518Y150287D02*
X10313D01*
Y147085D01*
X13516D01*
Y147289D01*
X13280Y148167D01*
X12826Y148955D01*
X12183Y149598D01*
X11396Y150052D01*
X10518Y150287D01*
D02*
G37*
G36*
X9813D02*
X9608D01*
X8730Y150052D01*
X7943Y149598D01*
X7300Y148955D01*
X6846Y148167D01*
X6610Y147289D01*
Y147085D01*
X9813D01*
Y150287D01*
D02*
G37*
G36*
X21390D02*
X14484D01*
Y143382D01*
X21390D01*
Y150287D01*
D02*
G37*
G36*
X13516Y146585D02*
X10313D01*
Y143382D01*
X10518D01*
X11396Y143617D01*
X12183Y144072D01*
X12826Y144715D01*
X13280Y145502D01*
X13516Y146380D01*
Y146585D01*
D02*
G37*
G36*
X9813D02*
X6610D01*
Y146380D01*
X6846Y145502D01*
X7300Y144715D01*
X7943Y144072D01*
X8730Y143617D01*
X9608Y143382D01*
X9813D01*
Y146585D01*
D02*
G37*
G36*
X138183Y145504D02*
X137056D01*
Y143066D01*
X140839D01*
X140780Y143512D01*
X140512Y144160D01*
X140084Y144717D01*
X139528Y145144D01*
X138879Y145413D01*
X138183Y145504D01*
D02*
G37*
G36*
X116136D02*
X115008D01*
Y143066D01*
X118792D01*
X118733Y143512D01*
X118464Y144160D01*
X118037Y144717D01*
X117480Y145144D01*
X116832Y145413D01*
X116136Y145504D01*
D02*
G37*
G36*
X136556D02*
X135428D01*
X134732Y145413D01*
X134083Y145144D01*
X133527Y144717D01*
X133099Y144160D01*
X132831Y143512D01*
X132772Y143066D01*
X136556D01*
Y145504D01*
D02*
G37*
G36*
X114508D02*
X113380D01*
X112685Y145413D01*
X112036Y145144D01*
X111479Y144717D01*
X111052Y144160D01*
X110784Y143512D01*
X110725Y143066D01*
X114508D01*
Y145504D01*
D02*
G37*
G36*
X140839Y142566D02*
X137056D01*
Y140127D01*
X138183D01*
X138879Y140219D01*
X139528Y140488D01*
X140084Y140915D01*
X140512Y141472D01*
X140780Y142120D01*
X140839Y142566D01*
D02*
G37*
G36*
X136556D02*
X132772D01*
X132831Y142120D01*
X133099Y141472D01*
X133527Y140915D01*
X134083Y140488D01*
X134732Y140219D01*
X135428Y140127D01*
X136556D01*
Y142566D01*
D02*
G37*
G36*
X118792D02*
X115008D01*
Y140127D01*
X116136D01*
X116832Y140219D01*
X117480Y140488D01*
X118037Y140915D01*
X118464Y141472D01*
X118733Y142120D01*
X118792Y142566D01*
D02*
G37*
G36*
X114508D02*
X110725D01*
X110784Y142120D01*
X111052Y141472D01*
X111479Y140915D01*
X112036Y140488D01*
X112685Y140219D01*
X113380Y140127D01*
X114508D01*
Y142566D01*
D02*
G37*
G36*
X377411Y157385D02*
X377021Y157307D01*
X376690Y157086D01*
X367623Y148020D01*
X253000D01*
X252610Y147942D01*
X252279Y147721D01*
X245391Y140833D01*
X245170Y140502D01*
X245093Y140112D01*
Y127576D01*
X239480Y121964D01*
X239446Y121983D01*
X238684Y122187D01*
X237894D01*
X237131Y121983D01*
X236446Y121588D01*
X235888Y121029D01*
X235493Y120345D01*
X235289Y119582D01*
Y118792D01*
X235493Y118029D01*
X235888Y117345D01*
X236446Y116787D01*
X237131Y116392D01*
X237894Y116188D01*
X238654D01*
X238718Y116116D01*
X238902Y115728D01*
X236193Y113020D01*
X195967D01*
X195796Y113658D01*
X195401Y114342D01*
X194842Y114901D01*
X194158Y115296D01*
X193395Y115500D01*
X192605D01*
X191842Y115296D01*
X191158Y114901D01*
X190599Y114342D01*
X190204Y113658D01*
X190000Y112895D01*
Y112105D01*
X190204Y111342D01*
X190599Y110658D01*
X191158Y110099D01*
X191842Y109704D01*
X192605Y109500D01*
X193395D01*
X194158Y109704D01*
X194842Y110099D01*
X195401Y110658D01*
X195587Y110980D01*
X236616D01*
X237006Y111058D01*
X237337Y111279D01*
X249765Y123708D01*
X249980Y123584D01*
X250743Y123380D01*
X251533D01*
X252296Y123584D01*
X252980Y123979D01*
X253538Y124538D01*
X253933Y125222D01*
X254138Y125985D01*
Y126775D01*
X253933Y127538D01*
X253538Y128222D01*
X252980Y128780D01*
X252296Y129175D01*
X251533Y129380D01*
X250743D01*
X249980Y129175D01*
X249295Y128780D01*
X248737Y128222D01*
X248342Y127538D01*
X248138Y126775D01*
Y125985D01*
X248342Y125222D01*
X248362Y125188D01*
X241748Y118574D01*
X241360Y118759D01*
X241289Y118822D01*
Y119582D01*
X241084Y120345D01*
X240960Y120560D01*
X246833Y126432D01*
X247054Y126763D01*
X247132Y127153D01*
Y139690D01*
X253422Y145980D01*
X298596D01*
X298672Y145483D01*
X297988Y145088D01*
X297429Y144529D01*
X297034Y143845D01*
X296830Y143082D01*
Y142292D01*
X297034Y141530D01*
X297429Y140845D01*
X297988Y140287D01*
X298672Y139892D01*
X298980Y139809D01*
Y78548D01*
X287487Y67055D01*
X287207Y67217D01*
X286329Y67453D01*
X285419D01*
X284541Y67217D01*
X283754Y66763D01*
X283111Y66120D01*
X282657Y65333D01*
X282421Y64455D01*
Y63545D01*
X282657Y62667D01*
X283111Y61880D01*
X283754Y61237D01*
X284541Y60783D01*
X285419Y60547D01*
X286329D01*
X287207Y60783D01*
X287994Y61237D01*
X288637Y61880D01*
X289091Y62667D01*
X289327Y63545D01*
Y64455D01*
X289091Y65333D01*
X288929Y65614D01*
X300721Y77405D01*
X300942Y77736D01*
X301020Y78126D01*
Y139910D01*
X301672Y140287D01*
X302230Y140845D01*
X302625Y141530D01*
X302830Y142292D01*
Y143082D01*
X302625Y143845D01*
X302230Y144529D01*
X301672Y145088D01*
X300988Y145483D01*
X301063Y145980D01*
X340578D01*
X357276Y129282D01*
X357204Y129158D01*
X357000Y128395D01*
Y127605D01*
X357204Y126842D01*
X357599Y126158D01*
X358158Y125599D01*
X358842Y125204D01*
X359605Y125000D01*
X360395D01*
X361158Y125204D01*
X361842Y125599D01*
X362401Y126158D01*
X362796Y126842D01*
X363000Y127605D01*
Y128395D01*
X362796Y129158D01*
X362401Y129842D01*
X361842Y130401D01*
X361158Y130796D01*
X360395Y131000D01*
X359605D01*
X358842Y130796D01*
X358718Y130724D01*
X343923Y145519D01*
X344115Y145980D01*
X368046D01*
X368436Y146058D01*
X368767Y146279D01*
X378132Y155644D01*
X378353Y155975D01*
X378431Y156365D01*
X378353Y156755D01*
X378132Y157086D01*
X377801Y157307D01*
X377411Y157385D01*
D02*
G37*
G36*
X10518Y121287D02*
X10313D01*
Y118085D01*
X13516D01*
Y118289D01*
X13280Y119167D01*
X12826Y119955D01*
X12183Y120598D01*
X11396Y121052D01*
X10518Y121287D01*
D02*
G37*
G36*
X9813D02*
X9608D01*
X8730Y121052D01*
X7943Y120598D01*
X7300Y119955D01*
X6846Y119167D01*
X6610Y118289D01*
Y118085D01*
X9813D01*
Y121287D01*
D02*
G37*
G36*
X13516Y117585D02*
X10313D01*
Y114382D01*
X10518D01*
X11396Y114617D01*
X12183Y115072D01*
X12826Y115715D01*
X13280Y116502D01*
X13516Y117380D01*
Y117585D01*
D02*
G37*
G36*
X9813D02*
X6610D01*
Y117380D01*
X6846Y116502D01*
X7300Y115715D01*
X7943Y115072D01*
X8730Y114617D01*
X9608Y114382D01*
X9813D01*
Y117585D01*
D02*
G37*
G36*
X95395Y137000D02*
X94605D01*
X93842Y136796D01*
X93158Y136401D01*
X92599Y135842D01*
X92204Y135158D01*
X92000Y134395D01*
Y133605D01*
X92204Y132842D01*
X92599Y132158D01*
X93158Y131599D01*
X93842Y131204D01*
X93980Y131167D01*
Y123500D01*
X94058Y123110D01*
X94279Y122779D01*
X103276Y113782D01*
X103204Y113658D01*
X103000Y112895D01*
Y112105D01*
X103204Y111342D01*
X103599Y110658D01*
X104158Y110099D01*
X104842Y109704D01*
X105605Y109500D01*
X106395D01*
X107158Y109704D01*
X107842Y110099D01*
X108401Y110658D01*
X108796Y111342D01*
X109000Y112105D01*
Y112895D01*
X108796Y113658D01*
X108401Y114342D01*
X107842Y114901D01*
X107158Y115296D01*
X106395Y115500D01*
X105605D01*
X104842Y115296D01*
X104718Y115224D01*
X96020Y123922D01*
Y131167D01*
X96158Y131204D01*
X96842Y131599D01*
X97401Y132158D01*
X97796Y132842D01*
X98000Y133605D01*
Y134395D01*
X97796Y135158D01*
X97401Y135842D01*
X96842Y136401D01*
X96158Y136796D01*
X95395Y137000D01*
D02*
G37*
G36*
X154395Y128300D02*
X153605D01*
X152842Y128096D01*
X152158Y127701D01*
X151599Y127142D01*
X151204Y126458D01*
X151000Y125695D01*
Y124905D01*
X151204Y124142D01*
X151599Y123458D01*
X152158Y122899D01*
X152842Y122504D01*
X153605Y122300D01*
X154395D01*
X155158Y122504D01*
X155842Y122899D01*
X156401Y123458D01*
X156796Y124142D01*
X156805Y124178D01*
X163735D01*
X194694Y93220D01*
X194692Y93165D01*
X194536Y92720D01*
X158922D01*
X150421Y101221D01*
X150090Y101442D01*
X149700Y101520D01*
X139100D01*
X138710Y101442D01*
X138379Y101221D01*
X133282Y96124D01*
X133158Y96196D01*
X132395Y96400D01*
X131605D01*
X130842Y96196D01*
X130158Y95801D01*
X129599Y95242D01*
X129204Y94558D01*
X129000Y93795D01*
Y93005D01*
X129204Y92242D01*
X129599Y91558D01*
X130158Y90999D01*
X130842Y90604D01*
X131605Y90400D01*
X132395D01*
X133158Y90604D01*
X133842Y90999D01*
X134401Y91558D01*
X134796Y92242D01*
X135000Y93005D01*
Y93795D01*
X134796Y94558D01*
X134724Y94682D01*
X139522Y99480D01*
X143562D01*
X143696Y98980D01*
X143558Y98901D01*
X142999Y98342D01*
X142604Y97658D01*
X142400Y96895D01*
Y96105D01*
X142604Y95342D01*
X142999Y94658D01*
X143558Y94099D01*
X144242Y93704D01*
X145005Y93500D01*
X145795D01*
X146239Y93619D01*
X153779Y86079D01*
X154110Y85858D01*
X154500Y85780D01*
X258300D01*
X258690Y85858D01*
X259021Y86079D01*
X275375Y102433D01*
X276005Y102069D01*
X276768Y101865D01*
X277558D01*
X278321Y102069D01*
X279005Y102464D01*
X279564Y103023D01*
X279959Y103707D01*
X280163Y104470D01*
Y105260D01*
X279959Y106023D01*
X279564Y106707D01*
X279005Y107265D01*
X278321Y107660D01*
X277558Y107865D01*
X276768D01*
X276005Y107660D01*
X275919Y107611D01*
X275473Y107930D01*
X275478Y107959D01*
Y110410D01*
X276131Y110787D01*
X276689Y111345D01*
X277084Y112030D01*
X277289Y112793D01*
Y113582D01*
X277084Y114345D01*
X276689Y115030D01*
X276131Y115588D01*
X275447Y115983D01*
X274683Y116188D01*
X273894D01*
X273131Y115983D01*
X272446Y115588D01*
X271888Y115030D01*
X271493Y114345D01*
X271289Y113582D01*
Y112793D01*
X271493Y112030D01*
X271888Y111345D01*
X272446Y110787D01*
X273131Y110392D01*
X273439Y110309D01*
Y108381D01*
X257778Y92720D01*
X251464D01*
X251308Y93165D01*
X251306Y93220D01*
X256255Y98169D01*
X256267Y98174D01*
X256847Y98095D01*
X257099Y97658D01*
X257658Y97099D01*
X258342Y96704D01*
X259105Y96500D01*
X259895D01*
X260658Y96704D01*
X261342Y97099D01*
X261901Y97658D01*
X262296Y98342D01*
X262500Y99105D01*
Y99895D01*
X262296Y100658D01*
X261901Y101342D01*
X261342Y101901D01*
X260658Y102296D01*
X259895Y102500D01*
X259105D01*
X258342Y102296D01*
X257658Y101901D01*
X257099Y101342D01*
X256704Y100658D01*
X256695Y100622D01*
X256000D01*
X255571Y100536D01*
X255207Y100293D01*
X255207Y100293D01*
X250035Y95122D01*
X195965D01*
X164993Y126093D01*
X164629Y126336D01*
X164200Y126422D01*
X164200Y126422D01*
X156805D01*
X156796Y126458D01*
X156401Y127142D01*
X155842Y127701D01*
X155158Y128096D01*
X154395Y128300D01*
D02*
G37*
G36*
X252725Y121687D02*
X251935D01*
X251172Y121483D01*
X250488Y121088D01*
X249929Y120529D01*
X249534Y119845D01*
X249330Y119082D01*
Y118292D01*
X249534Y117529D01*
X249929Y116845D01*
X250488Y116287D01*
X251172Y115892D01*
X251480Y115809D01*
Y107922D01*
X245418Y101860D01*
X244895Y102000D01*
X244105D01*
X243342Y101796D01*
X242658Y101401D01*
X242099Y100842D01*
X241704Y100158D01*
X241500Y99395D01*
Y98605D01*
X241704Y97842D01*
X242099Y97158D01*
X242658Y96599D01*
X243342Y96204D01*
X244105Y96000D01*
X244895D01*
X245658Y96204D01*
X246342Y96599D01*
X246901Y97158D01*
X247296Y97842D01*
X247500Y98605D01*
Y99395D01*
X247296Y100158D01*
X247041Y100599D01*
X253221Y106779D01*
X253442Y107110D01*
X253520Y107500D01*
Y115910D01*
X254172Y116287D01*
X254730Y116845D01*
X255125Y117529D01*
X255330Y118292D01*
Y119082D01*
X255125Y119845D01*
X254730Y120529D01*
X254172Y121088D01*
X253488Y121483D01*
X252725Y121687D01*
D02*
G37*
G36*
X10455Y92453D02*
X10250D01*
Y89250D01*
X13453D01*
Y89455D01*
X13217Y90333D01*
X12763Y91120D01*
X12120Y91763D01*
X11333Y92217D01*
X10455Y92453D01*
D02*
G37*
G36*
X9750D02*
X9545D01*
X8667Y92217D01*
X7880Y91763D01*
X7237Y91120D01*
X6783Y90333D01*
X6547Y89455D01*
Y89250D01*
X9750D01*
Y92453D01*
D02*
G37*
G36*
X21327D02*
X14421D01*
Y85547D01*
X21327D01*
Y92453D01*
D02*
G37*
G36*
X13453Y88750D02*
X10250D01*
Y85547D01*
X10455D01*
X11333Y85783D01*
X12120Y86237D01*
X12763Y86880D01*
X13217Y87667D01*
X13453Y88545D01*
Y88750D01*
D02*
G37*
G36*
X9750D02*
X6547D01*
Y88545D01*
X6783Y87667D01*
X7237Y86880D01*
X7880Y86237D01*
X8667Y85783D01*
X9545Y85547D01*
X9750D01*
Y88750D01*
D02*
G37*
G36*
X21390Y121287D02*
X14484D01*
Y114382D01*
X21390D01*
Y116713D01*
X36701D01*
X72723Y80691D01*
X72704Y80658D01*
X72500Y79895D01*
Y79105D01*
X72704Y78342D01*
X73099Y77658D01*
X73658Y77099D01*
X74342Y76704D01*
X75105Y76500D01*
X75895D01*
X76658Y76704D01*
X77342Y77099D01*
X77901Y77658D01*
X78296Y78342D01*
X78500Y79105D01*
Y79895D01*
X78296Y80658D01*
X77901Y81342D01*
X77342Y81901D01*
X76658Y82296D01*
X75895Y82500D01*
X75105D01*
X74342Y82296D01*
X74309Y82277D01*
X37958Y118628D01*
X37595Y118871D01*
X37165Y118956D01*
X37165Y118956D01*
X21390D01*
Y121287D01*
D02*
G37*
G36*
X98282Y75043D02*
X97655D01*
X97076Y74804D01*
X96633Y74361D01*
X96394Y73782D01*
Y73537D01*
X96370Y73399D01*
X96158Y73280D01*
X95606Y73537D01*
Y73782D01*
X95367Y74361D01*
X94924Y74804D01*
X94345Y75043D01*
X93718D01*
X93139Y74804D01*
X92696Y74361D01*
X92457Y73782D01*
Y73155D01*
X92696Y72576D01*
X93139Y72133D01*
X93718Y71894D01*
X93963D01*
X94101Y71870D01*
X94220Y71658D01*
X93963Y71106D01*
X93718D01*
X93139Y70867D01*
X92696Y70424D01*
X92457Y69845D01*
Y69218D01*
X92696Y68639D01*
X93139Y68196D01*
X93718Y67957D01*
X94345D01*
X94924Y68196D01*
X95367Y68639D01*
X95606Y69218D01*
Y69463D01*
X95630Y69601D01*
X95841Y69720D01*
X96394Y69463D01*
Y69218D01*
X96633Y68639D01*
X97076Y68196D01*
X97655Y67957D01*
X98282D01*
X98861Y68196D01*
X99304Y68639D01*
X99543Y69218D01*
Y69845D01*
X99304Y70424D01*
X98861Y70867D01*
X98282Y71106D01*
X98037D01*
X97899Y71130D01*
X97780Y71342D01*
X98037Y71894D01*
X98282D01*
X98861Y72133D01*
X99304Y72576D01*
X99543Y73155D01*
Y73782D01*
X99304Y74361D01*
X98861Y74804D01*
X98282Y75043D01*
D02*
G37*
G36*
X175395Y75000D02*
X174605D01*
X173842Y74796D01*
X173158Y74401D01*
X172599Y73842D01*
X172204Y73158D01*
X172000Y72395D01*
Y71605D01*
X172204Y70842D01*
X172223Y70809D01*
X158825Y57411D01*
X158158Y57796D01*
X157395Y58000D01*
X156605D01*
X155842Y57796D01*
X155158Y57401D01*
X154599Y56842D01*
X154204Y56158D01*
X154000Y55395D01*
Y54605D01*
X154204Y53842D01*
X154599Y53158D01*
X155158Y52599D01*
X155842Y52204D01*
X156605Y52000D01*
X157395D01*
X158158Y52204D01*
X158842Y52599D01*
X159401Y53158D01*
X159796Y53842D01*
X160000Y54605D01*
Y55395D01*
X159996Y55410D01*
X173809Y69223D01*
X173842Y69204D01*
X174605Y69000D01*
X175395D01*
X176158Y69204D01*
X176842Y69599D01*
X177401Y70158D01*
X177796Y70842D01*
X178000Y71605D01*
Y72395D01*
X177796Y73158D01*
X177401Y73842D01*
X176842Y74401D01*
X176158Y74796D01*
X175395Y75000D01*
D02*
G37*
G36*
X306725Y141688D02*
X305935D01*
X305172Y141483D01*
X304488Y141088D01*
X303929Y140530D01*
X303534Y139845D01*
X303330Y139082D01*
Y138293D01*
X303534Y137530D01*
X303929Y136845D01*
X304488Y136287D01*
X305172Y135892D01*
X305480Y135809D01*
Y77174D01*
X295361Y67055D01*
X295081Y67217D01*
X294203Y67453D01*
X293293D01*
X292415Y67217D01*
X291628Y66763D01*
X290985Y66120D01*
X290530Y65333D01*
X290295Y64455D01*
Y63545D01*
X290530Y62667D01*
X290985Y61880D01*
X291628Y61237D01*
X292415Y60783D01*
X293293Y60547D01*
X294203D01*
X295081Y60783D01*
X295868Y61237D01*
X296511Y61880D01*
X296966Y62667D01*
X297201Y63545D01*
Y64455D01*
X296966Y65333D01*
X296803Y65614D01*
X307221Y76031D01*
X307442Y76362D01*
X307520Y76752D01*
Y135910D01*
X308172Y136287D01*
X308730Y136845D01*
X309125Y137530D01*
X309330Y138293D01*
Y139082D01*
X309125Y139845D01*
X308730Y140530D01*
X308172Y141088D01*
X307488Y141483D01*
X306725Y141688D01*
D02*
G37*
G36*
X281453Y67453D02*
X278250D01*
Y64250D01*
X281453D01*
Y67453D01*
D02*
G37*
G36*
X277750D02*
X274547D01*
Y64250D01*
X277750D01*
Y67453D01*
D02*
G37*
G36*
X302077D02*
X301167D01*
X300289Y67217D01*
X299502Y66763D01*
X298859Y66120D01*
X298405Y65333D01*
X298169Y64455D01*
Y63545D01*
X298405Y62667D01*
X298859Y61880D01*
X299502Y61237D01*
X300289Y60783D01*
X301167Y60547D01*
X302077D01*
X302955Y60783D01*
X303742Y61237D01*
X304385Y61880D01*
X304839Y62667D01*
X305075Y63545D01*
Y64455D01*
X304839Y65333D01*
X304385Y66120D01*
X303742Y66763D01*
X302955Y67217D01*
X302077Y67453D01*
D02*
G37*
G36*
X281453Y63750D02*
X278250D01*
Y60547D01*
X281453D01*
Y63750D01*
D02*
G37*
G36*
X277750D02*
X274547D01*
Y60547D01*
X277750D01*
Y63750D01*
D02*
G37*
G36*
X322395Y121000D02*
X321605D01*
X320842Y120796D01*
X320158Y120401D01*
X319599Y119842D01*
X319204Y119158D01*
X319000Y118395D01*
Y117605D01*
X319204Y116842D01*
X319599Y116158D01*
X320158Y115599D01*
X320842Y115204D01*
X320980Y115167D01*
Y102000D01*
X321058Y101610D01*
X321279Y101279D01*
X359276Y63282D01*
X359204Y63158D01*
X359000Y62395D01*
Y61605D01*
X359204Y60842D01*
X359599Y60158D01*
X360158Y59599D01*
X360842Y59204D01*
X361605Y59000D01*
X362395D01*
X363158Y59204D01*
X363842Y59599D01*
X364401Y60158D01*
X364796Y60842D01*
X365000Y61605D01*
Y62395D01*
X364796Y63158D01*
X364401Y63842D01*
X363842Y64401D01*
X363158Y64796D01*
X362395Y65000D01*
X361605D01*
X360842Y64796D01*
X360718Y64724D01*
X323020Y102422D01*
Y115167D01*
X323158Y115204D01*
X323842Y115599D01*
X324401Y116158D01*
X324796Y116842D01*
X325000Y117605D01*
Y118395D01*
X324796Y119158D01*
X324401Y119842D01*
X323842Y120401D01*
X323158Y120796D01*
X322395Y121000D01*
D02*
G37*
G36*
X331416Y132969D02*
X330626D01*
X329863Y132765D01*
X329179Y132370D01*
X328621Y131811D01*
X328226Y131127D01*
X328021Y130364D01*
Y129574D01*
X328226Y128811D01*
X328621Y128127D01*
X329179Y127569D01*
X329863Y127174D01*
X330626Y126969D01*
X331416D01*
X332179Y127174D01*
X332303Y127245D01*
X365980Y93568D01*
Y56833D01*
X365842Y56796D01*
X365158Y56401D01*
X364599Y55842D01*
X364204Y55158D01*
X364000Y54395D01*
Y53605D01*
X364204Y52842D01*
X364599Y52158D01*
X365158Y51599D01*
X365842Y51204D01*
X366605Y51000D01*
X367395D01*
X368158Y51204D01*
X368842Y51599D01*
X369401Y52158D01*
X369796Y52842D01*
X370000Y53605D01*
Y54395D01*
X369796Y55158D01*
X369401Y55842D01*
X368842Y56401D01*
X368158Y56796D01*
X368020Y56833D01*
Y93991D01*
X367942Y94381D01*
X367721Y94712D01*
X333745Y128687D01*
X333817Y128811D01*
X334021Y129574D01*
Y130364D01*
X333817Y131127D01*
X333422Y131811D01*
X332863Y132370D01*
X332179Y132765D01*
X331416Y132969D01*
D02*
G37*
G36*
X246607Y53327D02*
X246392D01*
Y50045D01*
X249673D01*
Y50260D01*
X249433Y51158D01*
X248968Y51964D01*
X248310Y52621D01*
X247505Y53086D01*
X246607Y53327D01*
D02*
G37*
G36*
X245892D02*
X245677D01*
X244779Y53086D01*
X243973Y52621D01*
X243316Y51964D01*
X242851Y51158D01*
X242610Y50260D01*
Y50045D01*
X245892D01*
Y53327D01*
D02*
G37*
G36*
X255225Y144687D02*
X254435D01*
X253672Y144483D01*
X252988Y144088D01*
X252429Y143529D01*
X252034Y142845D01*
X251830Y142082D01*
Y141293D01*
X252034Y140530D01*
X252429Y139845D01*
X252988Y139287D01*
X253672Y138892D01*
X254435Y138688D01*
X255225D01*
X255988Y138892D01*
X256672Y139287D01*
X257230Y139845D01*
X257625Y140530D01*
X257746Y140980D01*
X274578D01*
X281980Y133578D01*
Y79422D01*
X281078Y78520D01*
X281000D01*
X280610Y78442D01*
X280279Y78221D01*
X263137Y61079D01*
X262916Y60748D01*
X262839Y60358D01*
Y53178D01*
X262495Y53086D01*
X261690Y52621D01*
X261032Y51964D01*
X260567Y51158D01*
X260327Y50260D01*
Y49330D01*
X260567Y48432D01*
X261032Y47627D01*
X261690Y46969D01*
X262495Y46504D01*
X263393Y46264D01*
X264323D01*
X265221Y46504D01*
X266027Y46969D01*
X266684Y47627D01*
X267149Y48432D01*
X267390Y49330D01*
Y50260D01*
X267149Y51158D01*
X266684Y51964D01*
X266027Y52621D01*
X265221Y53086D01*
X264878Y53178D01*
Y59936D01*
X281422Y76480D01*
X281500D01*
X281890Y76558D01*
X282221Y76779D01*
X283721Y78279D01*
X283942Y78610D01*
X284020Y79000D01*
Y134000D01*
X283942Y134390D01*
X283721Y134721D01*
X275721Y142721D01*
X275390Y142942D01*
X275000Y143020D01*
X257525D01*
X257230Y143529D01*
X256672Y144088D01*
X255988Y144483D01*
X255225Y144687D01*
D02*
G37*
G36*
X249673Y49545D02*
X246392D01*
Y46264D01*
X246607D01*
X247505Y46504D01*
X248310Y46969D01*
X248968Y47627D01*
X249433Y48432D01*
X249673Y49330D01*
Y49545D01*
D02*
G37*
G36*
X245892D02*
X242610D01*
Y49330D01*
X242851Y48432D01*
X243316Y47627D01*
X243973Y46969D01*
X244779Y46504D01*
X245677Y46264D01*
X245892D01*
Y49545D01*
D02*
G37*
G36*
X165506Y35846D02*
X165250D01*
Y32250D01*
X168846D01*
Y32506D01*
X168584Y33485D01*
X168078Y34362D01*
X167362Y35078D01*
X166485Y35584D01*
X165506Y35846D01*
D02*
G37*
G36*
X164750D02*
X164494D01*
X163515Y35584D01*
X162638Y35078D01*
X161922Y34362D01*
X161416Y33485D01*
X161153Y32506D01*
Y32250D01*
X164750D01*
Y35846D01*
D02*
G37*
G36*
X84395Y64000D02*
X83605D01*
X82842Y63796D01*
X82158Y63401D01*
X81599Y62842D01*
X81204Y62158D01*
X81000Y61395D01*
Y60605D01*
X81204Y59842D01*
X81599Y59158D01*
X82158Y58599D01*
X82842Y58204D01*
X83605Y58000D01*
X84395D01*
X85158Y58204D01*
X85282Y58276D01*
X93779Y49779D01*
X94110Y49558D01*
X94500Y49480D01*
X115167D01*
X115204Y49342D01*
X115599Y48658D01*
X116158Y48099D01*
X116842Y47704D01*
X117605Y47500D01*
X118395D01*
X119158Y47704D01*
X119842Y48099D01*
X120401Y48658D01*
X120796Y49342D01*
X120860Y49582D01*
X156120D01*
X171153Y34549D01*
Y28154D01*
X178847D01*
Y35846D01*
X172451D01*
X157149Y51149D01*
X156851Y51348D01*
X156500Y51418D01*
X120860D01*
X120796Y51658D01*
X120401Y52342D01*
X119842Y52901D01*
X119158Y53296D01*
X118395Y53500D01*
X117605D01*
X116842Y53296D01*
X116158Y52901D01*
X115599Y52342D01*
X115204Y51658D01*
X115167Y51520D01*
X94922D01*
X86724Y59718D01*
X86796Y59842D01*
X87000Y60605D01*
Y61395D01*
X86796Y62158D01*
X86401Y62842D01*
X85842Y63401D01*
X85158Y63796D01*
X84395Y64000D01*
D02*
G37*
G36*
X168846Y31750D02*
X165250D01*
Y28154D01*
X165506D01*
X166485Y28416D01*
X167362Y28922D01*
X168078Y29638D01*
X168584Y30515D01*
X168846Y31494D01*
Y31750D01*
D02*
G37*
G36*
X164750D02*
X161153D01*
Y31494D01*
X161416Y30515D01*
X161922Y29638D01*
X162638Y28922D01*
X163515Y28416D01*
X164494Y28154D01*
X164750D01*
Y31750D01*
D02*
G37*
G36*
X155506Y35846D02*
X154494D01*
X153515Y35584D01*
X152638Y35078D01*
X151922Y34362D01*
X151416Y33485D01*
X151154Y32506D01*
Y31494D01*
X151416Y30515D01*
X151922Y29638D01*
X152638Y28922D01*
X153515Y28416D01*
X154494Y28154D01*
X155506D01*
X156485Y28416D01*
X157362Y28922D01*
X158078Y29638D01*
X158584Y30515D01*
X158846Y31494D01*
Y32506D01*
X158584Y33485D01*
X158078Y34362D01*
X157362Y35078D01*
X156485Y35584D01*
X155506Y35846D01*
D02*
G37*
G36*
X249673Y27736D02*
X246392D01*
Y24455D01*
X249673D01*
Y27736D01*
D02*
G37*
G36*
X245892D02*
X242610D01*
Y24455D01*
X245892D01*
Y27736D01*
D02*
G37*
G36*
X264323D02*
X263393D01*
X262495Y27496D01*
X261690Y27031D01*
X261032Y26373D01*
X260567Y25568D01*
X260327Y24670D01*
Y23740D01*
X260567Y22842D01*
X261032Y22036D01*
X261690Y21379D01*
X262495Y20914D01*
X263393Y20673D01*
X264323D01*
X265221Y20914D01*
X266027Y21379D01*
X266684Y22036D01*
X267149Y22842D01*
X267390Y23740D01*
Y24670D01*
X267149Y25568D01*
X266684Y26373D01*
X266027Y27031D01*
X265221Y27496D01*
X264323Y27736D01*
D02*
G37*
G36*
X249673Y23955D02*
X246392D01*
Y20673D01*
X249673D01*
Y23955D01*
D02*
G37*
G36*
X245892D02*
X242610D01*
Y20673D01*
X245892D01*
Y23955D01*
D02*
G37*
%LPD*%
G36*
X274256Y105607D02*
X274163Y105260D01*
Y104470D01*
X274240Y104182D01*
X257878Y87820D01*
X154922D01*
X147904Y94838D01*
X148196Y95342D01*
X148400Y96105D01*
Y96895D01*
X148196Y97658D01*
X147801Y98342D01*
X147242Y98901D01*
X147104Y98980D01*
X147238Y99480D01*
X149278D01*
X157779Y90979D01*
X158110Y90758D01*
X158500Y90680D01*
X258200Y90680D01*
X258590Y90758D01*
X258921Y90979D01*
X273808Y105866D01*
X274256Y105607D01*
D02*
G37*
D11*
X242618Y24618D02*
X267382D01*
Y49382D01*
X242618D02*
X267382D01*
X242618Y24618D02*
Y49382D01*
X222154Y98272D02*
X228846D01*
Y94728D02*
Y98272D01*
X222154Y94728D02*
X228846D01*
X222154D02*
Y98272D01*
X104291Y7228D02*
Y10772D01*
Y7228D02*
X109803D01*
Y10772D01*
X104291D02*
X109803D01*
X122244Y28228D02*
Y31772D01*
Y28228D02*
X127756D01*
Y31772D01*
X122244D02*
X127756D01*
X76252Y131945D02*
Y150055D01*
X87748D01*
Y131945D02*
Y150055D01*
X76252Y131945D02*
X87748D01*
X53252Y132945D02*
Y151055D01*
X64748D01*
Y132945D02*
Y151055D01*
X53252Y132945D02*
X64748D01*
X223822Y150443D02*
G03*
X223822Y150443I-394J0D01*
G01*
D12*
X307000Y147000D02*
X341000D01*
X253000D02*
X307000D01*
X360000Y128000D02*
X361000Y127000D01*
X341000Y147000D02*
X360000Y128000D01*
X341000Y147000D02*
X368046D01*
X377411Y156365D01*
X331021Y129969D02*
Y130969D01*
X367000Y54000D02*
Y93991D01*
X331021Y129969D02*
X367000Y93991D01*
X193000Y112500D02*
X193500Y112000D01*
X236616D01*
X322000Y102000D02*
Y118000D01*
Y102000D02*
X362000Y62000D01*
X276677Y105177D02*
X277333D01*
X258300Y86800D02*
X276677Y105177D01*
X258200Y91700D02*
X274459Y107959D01*
Y113500D01*
X306500Y76752D02*
Y139000D01*
X293748Y64000D02*
X306500Y76752D01*
X300000Y78126D02*
Y143000D01*
X255000Y142000D02*
X275000D01*
X283000Y134000D01*
X139100Y100500D02*
X149700D01*
X158500Y91700D01*
X132000Y93400D02*
X139100Y100500D01*
X145400Y95900D02*
Y96500D01*
X158500Y91700D02*
X258200Y91700D01*
X154500Y86800D02*
X258300D01*
X145400Y95900D02*
X154500Y86800D01*
X246112Y140112D02*
X253000Y147000D01*
X285874Y64000D02*
X300000Y78126D01*
X84000Y61000D02*
X94500Y50500D01*
X118000D01*
X154250Y31250D02*
X155000Y32000D01*
X95000Y123500D02*
Y134000D01*
Y123500D02*
X106000Y112500D01*
X252500Y107500D02*
Y119000D01*
X245000Y100000D02*
X252500Y107500D01*
X236616Y112000D02*
X251308Y126692D01*
X238459Y119500D02*
X246112Y127153D01*
Y140112D01*
X281500Y77500D02*
X283000Y79000D01*
Y134000D01*
X263858Y60358D02*
X281000Y77500D01*
X263858Y49795D02*
Y60358D01*
X281000Y77500D02*
X281500D01*
X429000Y0D02*
Y167000D01*
X0D02*
X429000D01*
X0Y0D02*
Y167000D01*
Y0D02*
X429000D01*
D13*
X225397Y105168D02*
Y166191D01*
Y105168D02*
X266735D01*
Y166191D01*
X225397D02*
X266735D01*
D14*
X157000Y55000D02*
X158000D01*
X156500Y50500D02*
X175000Y32000D01*
X118000Y50500D02*
X156500D01*
D15*
X90000Y73074D02*
Y70450D01*
X90525Y69925D01*
X91574D01*
X92099Y70450D01*
Y73074D01*
X95248Y69925D02*
X93149D01*
X95248Y72024D01*
Y72549D01*
X94723Y73074D01*
X93673D01*
X93149Y72549D01*
D16*
X95606Y73862D02*
G03*
X95606Y73862I-1969J0D01*
G01*
D02*
G03*
X95606Y73862I-1969J0D01*
G01*
X112790Y153190D02*
G03*
X111018Y151418I-0J-1772D01*
G01*
X110034Y146753D02*
G03*
X113183Y143603I3150J0D01*
G01*
X113183Y155807D02*
G03*
X110034Y152658I-0J-3149D01*
G01*
X111018Y144824D02*
G03*
X113183Y142225I2382J-216D01*
G01*
X117810Y141438D02*
G03*
X120959Y138288I3150J-0D01*
G01*
X140546Y151418D02*
G03*
X138774Y153190I-1772J-0D01*
G01*
X138380Y143603D02*
G03*
X141530Y146753I0J3150D01*
G01*
Y152658D02*
G03*
X138379Y155807I-3150J-1D01*
G01*
X138380Y142225D02*
G03*
X140546Y144824I-216J2382D01*
G01*
X130605Y138288D02*
G03*
X133754Y141438I0J3150D01*
G01*
X423949Y30266D02*
Y142864D01*
X314502Y30266D02*
Y142864D01*
X423949D01*
X314502Y30266D02*
X423949D01*
X272449Y140976D02*
X295677D01*
Y158693D01*
X272449Y140976D02*
Y158693D01*
X295677D01*
X90095Y65595D02*
Y77406D01*
X101906Y65595D02*
Y77406D01*
X90095D02*
X101906D01*
X90095Y65595D02*
X101906D01*
X2386Y128858D02*
X25614D01*
X2386Y111142D02*
Y128858D01*
X25614Y111142D02*
Y128858D01*
X2386Y111142D02*
X25614D01*
X2323Y82307D02*
X25551D01*
Y100024D01*
X2323Y82307D02*
Y100024D01*
X25551D01*
X90094Y65594D02*
Y77406D01*
X101906Y65594D02*
Y77406D01*
X90094D02*
X101906D01*
X2386Y140142D02*
X25614D01*
Y157858D01*
X2386Y140142D02*
Y157858D01*
X25614D01*
X206457Y145354D02*
X213543D01*
X206457Y158740D02*
X213543D01*
X206457Y145354D02*
Y158740D01*
X213543Y145354D02*
Y158740D01*
X199594Y55594D02*
Y67406D01*
Y55594D02*
X211406D01*
Y67406D01*
X199594D02*
X211406D01*
X199594Y55594D02*
X211405D01*
Y67405D01*
X199594D02*
X211405D01*
X199594Y55594D02*
Y67405D01*
X199748Y133520D02*
Y148480D01*
X168252D02*
X199748D01*
X168252Y133520D02*
Y148480D01*
Y133520D02*
X199748D01*
X143937Y20780D02*
X186063D01*
Y39283D01*
X143937Y20780D02*
Y39283D01*
X186063D01*
X143937Y26291D02*
X186063D01*
X270323Y70693D02*
X309299D01*
Y52976D02*
Y70693D01*
X270323Y52976D02*
Y70693D01*
Y52976D02*
X309299D01*
X110034Y146753D02*
Y152658D01*
X111018Y144824D02*
Y151418D01*
X113183Y143603D02*
X117809D01*
Y141438D02*
Y143603D01*
X141530Y146753D02*
Y152658D01*
X140546Y144824D02*
Y151418D01*
X112790Y153190D02*
X138774D01*
X113183Y142225D02*
X138380D01*
X133754Y143603D02*
X138380D01*
X113183Y155807D02*
X138379D01*
X133754Y141438D02*
Y143603D01*
X120959Y138288D02*
X130605D01*
X198992Y49543D02*
X212378D01*
X198992Y42457D02*
X212378D01*
X198992D02*
Y49543D01*
X212378Y42457D02*
Y49543D01*
X181457Y73878D02*
X188543D01*
X181457Y60492D02*
X188543D01*
Y73878D01*
X181457Y60492D02*
Y73878D01*
X160957Y74378D02*
X168043D01*
X160957Y60992D02*
X168043D01*
Y74378D01*
X160957Y60992D02*
Y74378D01*
X114457Y62260D02*
X121543D01*
X114457Y75646D02*
X121543D01*
X114457Y62260D02*
Y75646D01*
X121543Y62260D02*
Y75646D01*
X125957Y62354D02*
X133043D01*
X125957Y75740D02*
X133043D01*
X125957Y62354D02*
Y75740D01*
X133043Y62354D02*
Y75740D01*
X263992Y82457D02*
Y89543D01*
X277378Y82457D02*
Y89543D01*
X263992D02*
X277378D01*
X263992Y82457D02*
X277378D01*
X207457Y131693D02*
X214543D01*
X207457Y118307D02*
X214543D01*
Y131693D01*
X207457Y118307D02*
Y131693D01*
X250457Y76693D02*
X257543D01*
X250457Y63307D02*
X257543D01*
Y76693D01*
X250457Y63307D02*
Y76693D01*
X361203Y86565D02*
X365140D01*
X363171Y84596D02*
Y88533D01*
X284063Y147866D02*
Y151803D01*
X282095Y149835D02*
X286032D01*
X94032Y71500D02*
X97969D01*
X96000Y69532D02*
Y73469D01*
X14000Y118031D02*
Y121968D01*
X12031Y120000D02*
X15968D01*
X11968Y91165D02*
X15905D01*
X13937Y89197D02*
Y93134D01*
X12031Y149000D02*
X15968D01*
X14000Y147031D02*
Y150968D01*
X206260Y144173D02*
X213740D01*
X206260Y159921D02*
X213740D01*
X206260Y144173D02*
Y159921D01*
X213740Y144173D02*
Y159921D01*
X210000Y150079D02*
Y154016D01*
X208032Y152047D02*
X211969D01*
X203532Y61500D02*
X207469D01*
X205500Y59532D02*
Y63469D01*
X184000Y139032D02*
Y142969D01*
X182032Y141000D02*
X185969D01*
X165000Y30032D02*
Y33969D01*
X163031Y32000D02*
X166969D01*
X287843Y61835D02*
X291780D01*
X289811Y59866D02*
Y63803D01*
X125782Y145080D02*
Y149016D01*
X123813Y147048D02*
X127750D01*
X205685Y44031D02*
Y47969D01*
X203717Y46000D02*
X207654D01*
X197811Y49740D02*
X213559D01*
X197811Y42260D02*
X213559D01*
X197811D02*
Y49740D01*
X213559Y42260D02*
Y49740D01*
X181260Y75059D02*
X188740D01*
X181260Y59311D02*
X188740D01*
Y75059D01*
X181260Y59311D02*
Y75059D01*
X185000Y65217D02*
Y69154D01*
X183032Y67185D02*
X186969D01*
X160760Y75559D02*
X168240D01*
X160760Y59811D02*
X168240D01*
Y75559D01*
X160760Y59811D02*
Y75559D01*
X164500Y65717D02*
Y69654D01*
X162532Y67685D02*
X166469D01*
X114260Y61079D02*
X121740D01*
X114260Y76827D02*
X121740D01*
X114260Y61079D02*
Y76827D01*
X121740Y61079D02*
Y76827D01*
X118000Y66984D02*
Y70921D01*
X116032Y68953D02*
X119969D01*
X125760Y61173D02*
X133240D01*
X125760Y76921D02*
X133240D01*
X125760Y61173D02*
Y76921D01*
X133240Y61173D02*
Y76921D01*
X129500Y67079D02*
Y71016D01*
X127532Y69047D02*
X131469D01*
X262811Y82260D02*
Y89740D01*
X278559Y82260D02*
Y89740D01*
X262811D02*
X278559D01*
X262811Y82260D02*
X278559D01*
X268717Y86000D02*
X272654D01*
X270685Y84032D02*
Y87969D01*
X207260Y132874D02*
X214740D01*
X207260Y117126D02*
X214740D01*
Y132874D01*
X207260Y117126D02*
Y132874D01*
X211000Y123032D02*
Y126969D01*
X209032Y125000D02*
X212969D01*
X250260Y77874D02*
X257740D01*
X250260Y62126D02*
X257740D01*
Y77874D01*
X250260Y62126D02*
Y77874D01*
X254000Y68032D02*
Y71969D01*
X252032Y70000D02*
X255969D01*
D17*
X424344Y28545D02*
Y144683D01*
X312925D02*
X424344D01*
X312925Y28545D02*
Y144683D01*
Y28545D02*
X424344D01*
X272055Y140583D02*
X296071D01*
Y159087D01*
X272055Y140583D02*
Y159087D01*
X296071D01*
X88126Y63626D02*
Y79374D01*
X103874Y63626D02*
Y79374D01*
X88126D02*
X103874D01*
X88126Y63626D02*
X103874D01*
X1992Y129252D02*
X26008D01*
X1992Y110748D02*
Y129252D01*
X26008Y110748D02*
Y129252D01*
X1992Y110748D02*
X26008D01*
X1929Y81913D02*
X25945D01*
Y100417D01*
X1929Y81913D02*
Y100417D01*
X25945D01*
X88126Y63626D02*
Y79374D01*
X103874Y63626D02*
Y79374D01*
X88126D02*
X103874D01*
X88126Y63626D02*
X103874D01*
X224412Y104183D02*
Y151231D01*
Y104183D02*
X267720D01*
Y151231D01*
X270475D01*
Y167176D01*
X221657D02*
X270475D01*
X221657Y151231D02*
Y167176D01*
Y151231D02*
X224412D01*
X1992Y139748D02*
X26008D01*
Y158252D01*
X1992Y139748D02*
Y158252D01*
X26008D01*
X198610Y55201D02*
Y67799D01*
Y55201D02*
X212390D01*
Y67799D01*
X198610D02*
X212390D01*
X200142Y130567D02*
Y151433D01*
X167858D02*
X200142D01*
X167858Y130567D02*
Y151433D01*
Y130567D02*
X200142D01*
X269929Y71087D02*
X309693D01*
Y52583D02*
Y71087D01*
X269929Y52583D02*
Y71087D01*
Y52583D02*
X309693D01*
X141924Y137895D02*
Y156201D01*
X109640D02*
X141924D01*
X109640Y137895D02*
X141924D01*
X109640D02*
Y156201D01*
D45*
X263858Y49795D02*
D03*
Y24205D02*
D03*
X246142Y49795D02*
D03*
D46*
Y24205D02*
D03*
D72*
X158000Y55000D02*
X175000Y72000D01*
X164200Y125300D02*
X195500Y94000D01*
X154000Y125300D02*
X164200D01*
X250500Y94000D02*
X256000Y99500D01*
X195500Y94000D02*
X250500D01*
X37165Y117835D02*
X75500Y79500D01*
X17937Y117835D02*
X37165D01*
X256000Y99500D02*
X259500D01*
D73*
X288000Y152000D02*
D03*
X10063Y117835D02*
D03*
X10000Y89000D02*
D03*
X10063Y146835D02*
D03*
X301622Y64000D02*
D03*
X285874D02*
D03*
X293748D02*
D03*
D74*
X280126Y152000D02*
D03*
X17937Y117835D02*
D03*
X17874Y89000D02*
D03*
X17937Y146835D02*
D03*
X278000Y64000D02*
D03*
D75*
X155000Y32000D02*
D03*
X165000D02*
D03*
D76*
X175000D02*
D03*
D77*
X125782Y151280D02*
D03*
D78*
X114758Y142816D02*
D03*
X136805D02*
D03*
D79*
X375000Y132000D02*
D03*
X360000Y128000D02*
D03*
X395000Y92000D02*
D03*
X355000D02*
D03*
X84000Y61000D02*
D03*
X75500Y79500D02*
D03*
X415000Y52000D02*
D03*
X395000Y12000D02*
D03*
X355000D02*
D03*
X315000Y92000D02*
D03*
Y12000D02*
D03*
X255000Y52000D02*
D03*
X195000Y12000D02*
D03*
X175000Y52000D02*
D03*
X155000Y12000D02*
D03*
X55000Y52000D02*
D03*
X35000Y12000D02*
D03*
X362000Y62000D02*
D03*
X367000Y54000D02*
D03*
X193000Y112500D02*
D03*
X238289Y119187D02*
D03*
X251138Y126380D02*
D03*
X274289Y113188D02*
D03*
X252330Y118687D02*
D03*
X277163Y104865D02*
D03*
X254830Y141688D02*
D03*
X306330Y138688D02*
D03*
X299830Y142687D02*
D03*
X157000Y55000D02*
D03*
X175000Y72000D02*
D03*
X322000Y118000D02*
D03*
X331021Y129969D02*
D03*
X154000Y125300D02*
D03*
X132000Y93400D02*
D03*
X145400Y96500D02*
D03*
X95000Y134000D02*
D03*
X106000Y112500D02*
D03*
X118000Y50500D02*
D03*
X259500Y99500D02*
D03*
X244500Y99000D02*
D03*
D80*
X94032Y69532D02*
D03*
Y73469D02*
D03*
X97969D02*
D03*
Y69532D02*
D03*
X96000Y71500D02*
D03*
M02*
