G04*
G04 #@! TF.GenerationSoftware,Altium Limited,Altium Designer,21.2.0 (30)*
G04*
G04 Layer_Color=65535*
%FSLAX25Y25*%
%MOIN*%
G70*
G04*
G04 #@! TF.SameCoordinates,1891EFD9-0032-4EA4-A798-630DAF25FF75*
G04*
G04*
G04 #@! TF.FilePolarity,Positive*
G04*
G01*
G75*
%ADD10C,0.00984*%
%ADD11C,0.00787*%
%ADD12C,0.01000*%
%ADD13C,0.00500*%
%ADD14C,0.00800*%
%ADD15C,0.00630*%
%ADD16C,0.00394*%
%ADD17C,0.00197*%
D10*
X427016Y111986D02*
G03*
X427016Y111986I-500J0D01*
G01*
X87732Y77110D02*
G03*
X87732Y77110I-492J0D01*
G01*
D02*
G03*
X87732Y77110I-492J0D01*
G01*
X195319Y153205D02*
G03*
X195319Y153205I-492J0D01*
G01*
X183996Y36724D02*
G03*
X183996Y36724I-492J0D01*
G01*
X247028Y18614D02*
G03*
X247028Y18614I-492J0D01*
G01*
X131392Y138682D02*
G03*
X131392Y138682I-492J0D01*
G01*
X219299Y96500D02*
G03*
X219299Y96500I-492J0D01*
G01*
X100748Y9000D02*
G03*
X100748Y9000I-492J0D01*
G01*
X118701Y30000D02*
G03*
X118701Y30000I-492J0D01*
G01*
X82492Y126039D02*
G03*
X82492Y126039I-492J0D01*
G01*
X59492Y127039D02*
G03*
X59492Y127039I-492J0D01*
G01*
D11*
X223822Y150443D02*
G03*
X223822Y150443I-394J0D01*
G01*
X197429Y65437D02*
G03*
X197429Y65437I-394J0D01*
G01*
X140546Y151418D02*
G03*
X138774Y153190I-1772J-0D01*
G01*
X112790D02*
G03*
X111018Y151418I-0J-1772D01*
G01*
X314502Y59722D02*
Y136612D01*
Y36415D02*
Y50278D01*
X321390Y30266D02*
X344972D01*
X352453D02*
X423949D01*
Y142864D01*
X397256D02*
X423949D01*
X331311D02*
X385445D01*
X272449Y158693D02*
X295677D01*
X272449Y140976D02*
Y158693D01*
X295677Y140976D02*
Y158693D01*
X272449Y140976D02*
X295677D01*
X89799Y76579D02*
Y77701D01*
X90921D01*
X101079D02*
X102201D01*
Y76579D02*
Y77701D01*
Y65299D02*
Y66421D01*
X101079Y65299D02*
X102201D01*
X89799D02*
Y66421D01*
Y65299D02*
X90921D01*
X2386Y111142D02*
X25614D01*
Y128858D01*
X2386Y111142D02*
Y128858D01*
X25614D01*
X2323Y100024D02*
X25551D01*
X2323Y82307D02*
Y100024D01*
X25551Y82307D02*
Y100024D01*
X2323Y82307D02*
X25551D01*
X89799Y76579D02*
Y77701D01*
X90921D01*
X101079D02*
X102201D01*
Y76579D02*
Y77701D01*
Y65299D02*
Y66421D01*
X101079Y65299D02*
X102201D01*
X89799D02*
Y66421D01*
Y65299D02*
X90921D01*
X2386Y157858D02*
X25614D01*
X2386Y140142D02*
Y157858D01*
X25614Y140142D02*
Y157858D01*
X2386Y140142D02*
X25614D01*
X207047Y150472D02*
Y153622D01*
X212953Y150472D02*
Y153622D01*
X198961Y148480D02*
X199748D01*
Y133520D02*
Y148480D01*
X198961Y133520D02*
X199748D01*
X168252Y148480D02*
X169039D01*
X168252Y133520D02*
Y148480D01*
Y133520D02*
X169039D01*
X177307Y148480D02*
X190693D01*
X177307Y133520D02*
X190693D01*
X143937Y20780D02*
X186063D01*
X143937Y39283D02*
X186063D01*
Y20780D02*
Y39283D01*
X143937Y20780D02*
Y39283D01*
Y22748D02*
X186063D01*
X250650Y24618D02*
X259350D01*
X267382Y28713D02*
Y45287D01*
X250650Y49382D02*
X259350D01*
X242618Y28713D02*
Y45287D01*
X270323Y52976D02*
X309299D01*
X270323D02*
Y70693D01*
X309299Y52976D02*
Y70693D01*
X270323D02*
X309299D01*
X111018Y145717D02*
Y151418D01*
X140546Y145717D02*
Y151418D01*
X131164Y153190D02*
X138774D01*
X112790D02*
X120400D01*
X222350Y99551D02*
X228650D01*
X222295Y93399D02*
X228594D01*
X104291Y5850D02*
X109803D01*
X104291Y12150D02*
X109803D01*
X122244Y26850D02*
X127756D01*
X122244Y33150D02*
X127756D01*
X76252Y131945D02*
Y150055D01*
X86823D02*
X87748D01*
X76252D02*
X77177D01*
X87748Y131945D02*
Y150055D01*
X86823Y131945D02*
X87748D01*
X76252D02*
X77177D01*
X53252Y132945D02*
Y151055D01*
X63823D02*
X64748D01*
X53252D02*
X54177D01*
X64748Y132945D02*
Y151055D01*
X63823Y132945D02*
X64748D01*
X53252D02*
X54177D01*
X204110Y48953D02*
X207260D01*
X204110Y43047D02*
X207260D01*
X187953Y65610D02*
Y68760D01*
X182047Y65610D02*
Y68760D01*
X167453Y66110D02*
Y69260D01*
X161547Y66110D02*
Y69260D01*
X115047Y67378D02*
Y70528D01*
X120953Y67378D02*
Y70528D01*
X126547Y67472D02*
Y70622D01*
X132453Y67472D02*
Y70622D01*
X269110Y88953D02*
X272260D01*
X269110Y83047D02*
X272260D01*
X213953Y123425D02*
Y126575D01*
X208047Y123425D02*
Y126575D01*
X256953Y68425D02*
Y71575D01*
X251047Y68425D02*
Y71575D01*
X242618Y24618D02*
X267382D01*
Y49382D01*
X242618D02*
X267382D01*
X242618Y24618D02*
Y49382D01*
X222154Y98272D02*
X228846D01*
Y94728D02*
Y98272D01*
X222154Y94728D02*
X228846D01*
X222154D02*
Y98272D01*
X104291Y7228D02*
Y10772D01*
Y7228D02*
X109803D01*
Y10772D01*
X104291D02*
X109803D01*
X122244Y28228D02*
Y31772D01*
Y28228D02*
X127756D01*
Y31772D01*
X122244D02*
X127756D01*
X76252Y131945D02*
Y150055D01*
X87748D01*
Y131945D02*
Y150055D01*
X76252Y131945D02*
X87748D01*
X53252Y132945D02*
Y151055D01*
X64748D01*
Y132945D02*
Y151055D01*
X53252Y132945D02*
X64748D01*
X223822Y150443D02*
G03*
X223822Y150443I-394J0D01*
G01*
D12*
X224500Y148500D02*
X225000Y148000D01*
X267000Y104000D02*
Y151000D01*
X225000Y104000D02*
X267000D01*
X225000D02*
Y148000D01*
X359901Y24899D02*
X358901Y25899D01*
X356902D01*
X355902Y24899D01*
Y23900D01*
X356902Y22900D01*
X358901D01*
X359901Y21900D01*
Y20901D01*
X358901Y19901D01*
X356902D01*
X355902Y20901D01*
X361900Y25899D02*
Y19901D01*
X364899D01*
X365899Y20901D01*
Y24899D01*
X364899Y25899D01*
X361900D01*
X367898Y19901D02*
X369898D01*
X368898D01*
Y25899D01*
X367898Y24899D01*
X301701Y155299D02*
X300702Y156299D01*
X298702D01*
X297703Y155299D01*
Y154300D01*
X298702Y153300D01*
X300702D01*
X301701Y152300D01*
Y151301D01*
X300702Y150301D01*
X298702D01*
X297703Y151301D01*
X303701Y156299D02*
Y150301D01*
X305700Y152300D01*
X307699Y150301D01*
Y156299D01*
X309699D02*
Y150301D01*
X312698D01*
X313697Y151301D01*
Y155299D01*
X312698Y156299D01*
X309699D01*
X28499Y151000D02*
Y148001D01*
X29999Y149501D02*
X27000D01*
X28499Y121000D02*
Y118001D01*
X29999Y119501D02*
X27000D01*
X290498Y140000D02*
Y138500D01*
Y139250D01*
X286000D01*
Y140000D01*
Y138500D01*
X290498Y134002D02*
Y135501D01*
X289749Y136251D01*
X286750D01*
X286000Y135501D01*
Y134002D01*
X286750Y133252D01*
X289749D01*
X290498Y134002D01*
X281749Y137001D02*
X282499Y137751D01*
Y139250D01*
X281749Y140000D01*
X278750D01*
X278000Y139250D01*
Y137751D01*
X278750Y137001D01*
X282499Y135501D02*
X278000D01*
Y132502D01*
X282499Y131003D02*
X278000D01*
X279500D01*
X282499Y128004D01*
X280249Y130253D01*
X278000Y128004D01*
X304749Y50000D02*
X305499Y49250D01*
Y47751D01*
X304749Y47001D01*
X303999D01*
X303249Y47751D01*
Y48500D01*
Y47751D01*
X302500Y47001D01*
X301750D01*
X301000Y47751D01*
Y49250D01*
X301750Y50000D01*
X305499Y45501D02*
X302500D01*
X301000Y44002D01*
X302500Y42502D01*
X305499D01*
X304749Y41003D02*
X305499Y40253D01*
Y38754D01*
X304749Y38004D01*
X303999D01*
X303249Y38754D01*
Y39503D01*
Y38754D01*
X302500Y38004D01*
X301750D01*
X301000Y38754D01*
Y40253D01*
X301750Y41003D01*
X296498Y50000D02*
Y47001D01*
Y48500D01*
X292000D01*
X296498Y45501D02*
X292000Y42502D01*
X296498D02*
X292000Y45501D01*
X284000Y50000D02*
X288498D01*
Y47751D01*
X287749Y47001D01*
X286249D01*
X285500Y47751D01*
Y50000D01*
Y48500D02*
X284000Y47001D01*
X288498Y45501D02*
X284000Y42502D01*
X288498D02*
X284000Y45501D01*
X279749Y48001D02*
X280499Y48751D01*
Y50250D01*
X279749Y51000D01*
X276750D01*
X276000Y50250D01*
Y48751D01*
X276750Y48001D01*
X278249D01*
Y49501D01*
X276000Y46501D02*
X280499D01*
X276000Y43502D01*
X280499D01*
Y42003D02*
X276000D01*
Y39754D01*
X276750Y39004D01*
X279749D01*
X280499Y39754D01*
Y42003D01*
X87300Y88498D02*
Y83500D01*
X88300Y82500D01*
X90299D01*
X91299Y83500D01*
Y88498D01*
X97297Y82500D02*
X93298D01*
X97297Y86499D01*
Y87498D01*
X96297Y88498D01*
X94298D01*
X93298Y87498D01*
X109002Y124001D02*
Y129999D01*
X112001D01*
X113000Y128999D01*
Y127000D01*
X112001Y126000D01*
X109002D01*
X111001D02*
X113000Y124001D01*
X115000Y128999D02*
X115999Y129999D01*
X117999D01*
X118998Y128999D01*
Y128000D01*
X117999Y127000D01*
X116999D01*
X117999D01*
X118998Y126000D01*
Y125001D01*
X117999Y124001D01*
X115999D01*
X115000Y125001D01*
X201002Y73999D02*
Y69001D01*
X202001Y68001D01*
X204001D01*
X205000Y69001D01*
Y73999D01*
X209999Y68001D02*
Y73999D01*
X207000Y71000D01*
X210998D01*
X168800Y163198D02*
X172799Y157200D01*
Y163198D02*
X168800Y157200D01*
X174798D02*
X176797D01*
X175798D01*
Y163198D01*
X174798Y162198D01*
X144500Y48698D02*
Y43700D01*
X145500Y42700D01*
X147499D01*
X148499Y43700D01*
Y48698D01*
X150498Y47698D02*
X151498Y48698D01*
X153497D01*
X154497Y47698D01*
Y46699D01*
X153497Y45699D01*
X152497D01*
X153497D01*
X154497Y44699D01*
Y43700D01*
X153497Y42700D01*
X151498D01*
X150498Y43700D01*
X240941Y163513D02*
Y158515D01*
X241941Y157515D01*
X243940D01*
X244940Y158515D01*
Y163513D01*
X246939Y157515D02*
X248939D01*
X247939D01*
Y163513D01*
X246939Y162514D01*
X252001Y38999D02*
X251001Y39999D01*
X249002D01*
X248002Y38999D01*
Y38000D01*
X249002Y37000D01*
X251001D01*
X252001Y36000D01*
Y35001D01*
X251001Y34001D01*
X249002D01*
X248002Y35001D01*
X254000Y39999D02*
Y34001D01*
X256000Y36000D01*
X257999Y34001D01*
Y39999D01*
X259998Y34001D02*
X261998D01*
X260998D01*
Y39999D01*
X259998Y38999D01*
X212999Y80502D02*
X207001D01*
Y83501D01*
X208001Y84501D01*
X210000D01*
X211000Y83501D01*
Y80502D01*
Y82502D02*
X212999Y84501D01*
Y86500D02*
Y88499D01*
Y87500D01*
X207001D01*
X208001Y86500D01*
X212999Y91499D02*
Y93498D01*
Y92498D01*
X207001D01*
X208001Y91499D01*
X74100Y16900D02*
Y22898D01*
X77099D01*
X78099Y21898D01*
Y19899D01*
X77099Y18899D01*
X74100D01*
X76099D02*
X78099Y16900D01*
X80098D02*
X82097D01*
X81098D01*
Y22898D01*
X80098Y21898D01*
X85096D02*
X86096Y22898D01*
X88095D01*
X89095Y21898D01*
Y17900D01*
X88095Y16900D01*
X86096D01*
X85096Y17900D01*
Y21898D01*
X95002Y37001D02*
Y42999D01*
X98001D01*
X99000Y41999D01*
Y40000D01*
X98001Y39000D01*
X95002D01*
X97001D02*
X99000Y37001D01*
X101000Y38001D02*
X101999Y37001D01*
X103999D01*
X104998Y38001D01*
Y41999D01*
X103999Y42999D01*
X101999D01*
X101000Y41999D01*
Y41000D01*
X101999Y40000D01*
X104998D01*
X128100Y126300D02*
Y132298D01*
X131099D01*
X132099Y131298D01*
Y129299D01*
X131099Y128299D01*
X128100D01*
X130099D02*
X132099Y126300D01*
X134098Y131298D02*
X135098Y132298D01*
X137097D01*
X138097Y131298D01*
Y130299D01*
X137097Y129299D01*
X138097Y128299D01*
Y127300D01*
X137097Y126300D01*
X135098D01*
X134098Y127300D01*
Y128299D01*
X135098Y129299D01*
X134098Y130299D01*
Y131298D01*
X135098Y129299D02*
X137097D01*
X142202Y124101D02*
Y130099D01*
X145201D01*
X146200Y129099D01*
Y127100D01*
X145201Y126100D01*
X142202D01*
X144201D02*
X146200Y124101D01*
X148200Y130099D02*
X152198D01*
Y129099D01*
X148200Y125101D01*
Y124101D01*
X52002Y105501D02*
Y111499D01*
X55001D01*
X56000Y110499D01*
Y108500D01*
X55001Y107500D01*
X52002D01*
X54001D02*
X56000Y105501D01*
X61998Y111499D02*
X59999Y110499D01*
X58000Y108500D01*
Y106501D01*
X58999Y105501D01*
X60999D01*
X61998Y106501D01*
Y107500D01*
X60999Y108500D01*
X58000D01*
X72002Y125001D02*
Y130999D01*
X75001D01*
X76000Y129999D01*
Y128000D01*
X75001Y127000D01*
X72002D01*
X74001D02*
X76000Y125001D01*
X81998Y130999D02*
X78000D01*
Y128000D01*
X79999Y129000D01*
X80999D01*
X81998Y128000D01*
Y126001D01*
X80999Y125001D01*
X78999D01*
X78000Y126001D01*
X91100Y124900D02*
Y130898D01*
X94099D01*
X95099Y129898D01*
Y127899D01*
X94099Y126899D01*
X91100D01*
X93099D02*
X95099Y124900D01*
X100097D02*
Y130898D01*
X97098Y127899D01*
X101097D01*
X177004Y97001D02*
Y102999D01*
X180003D01*
X181002Y101999D01*
Y100000D01*
X180003Y99000D01*
X177004D01*
X179003D02*
X181002Y97001D01*
X187000Y101999D02*
X186001Y102999D01*
X184001D01*
X183002Y101999D01*
Y101000D01*
X184001Y100000D01*
X186001D01*
X187000Y99000D01*
Y98001D01*
X186001Y97001D01*
X184001D01*
X183002Y98001D01*
X189000Y102999D02*
Y97001D01*
X191999D01*
X192998Y98001D01*
Y101999D01*
X191999Y102999D01*
X189000D01*
X194998Y97001D02*
Y101000D01*
X196997Y102999D01*
X198996Y101000D01*
Y97001D01*
Y100000D01*
X194998D01*
X216004Y62001D02*
Y67999D01*
X219003D01*
X220002Y66999D01*
Y65000D01*
X219003Y64000D01*
X216004D01*
X218003D02*
X220002Y62001D01*
X226000Y66999D02*
X225001Y67999D01*
X223001D01*
X222002Y66999D01*
Y66000D01*
X223001Y65000D01*
X225001D01*
X226000Y64000D01*
Y63001D01*
X225001Y62001D01*
X223001D01*
X222002Y63001D01*
X231998Y66999D02*
X230999Y67999D01*
X228999D01*
X228000Y66999D01*
Y63001D01*
X228999Y62001D01*
X230999D01*
X231998Y63001D01*
X233998Y67999D02*
Y62001D01*
X237997D01*
X274799Y79198D02*
X273799Y80198D01*
X271800D01*
X270800Y79198D01*
Y75200D01*
X271800Y74200D01*
X273799D01*
X274799Y75200D01*
X276798Y74200D02*
Y78199D01*
X278797Y80198D01*
X280797Y78199D01*
Y74200D01*
Y77199D01*
X276798D01*
X282796Y74200D02*
Y80198D01*
X284795Y78199D01*
X286795Y80198D01*
Y74200D01*
X141103Y147999D02*
Y143001D01*
X142102Y142001D01*
X144102D01*
X145101Y143001D01*
Y147999D01*
X151099Y146999D02*
X150100Y147999D01*
X148100D01*
X147101Y146999D01*
Y146000D01*
X148100Y145000D01*
X150100D01*
X151099Y144000D01*
Y143001D01*
X150100Y142001D01*
X148100D01*
X147101Y143001D01*
X153099Y147999D02*
Y142001D01*
X156098D01*
X157097Y143001D01*
Y144000D01*
X156098Y145000D01*
X153099D01*
X156098D01*
X157097Y146000D01*
Y146999D01*
X156098Y147999D01*
X153099D01*
X3005Y79999D02*
X7003D01*
X5004D01*
Y74001D01*
X9003Y79999D02*
Y74001D01*
Y77000D01*
X10002Y78000D01*
X12002D01*
X13001Y77000D01*
Y74001D01*
X18000D02*
X16000D01*
X15001Y75001D01*
Y77000D01*
X16000Y78000D01*
X18000D01*
X18999Y77000D01*
Y76000D01*
X15001D01*
X20999Y78000D02*
Y74001D01*
Y76000D01*
X21998Y77000D01*
X22998Y78000D01*
X23998D01*
X26997Y74001D02*
Y78000D01*
X27996D01*
X28996Y77000D01*
Y74001D01*
Y77000D01*
X29996Y78000D01*
X30996Y77000D01*
Y74001D01*
X8001Y136999D02*
X7002Y137999D01*
X5002D01*
X4003Y136999D01*
Y136000D01*
X5002Y135000D01*
X7002D01*
X8001Y134000D01*
Y133001D01*
X7002Y132001D01*
X5002D01*
X4003Y133001D01*
X13000Y137999D02*
X11000D01*
X10001Y136999D01*
Y133001D01*
X11000Y132001D01*
X13000D01*
X13999Y133001D01*
Y136999D01*
X13000Y137999D01*
X15999D02*
Y132001D01*
X19997D01*
X3003Y108999D02*
Y103001D01*
X6002D01*
X7001Y104001D01*
Y105000D01*
X6002Y106000D01*
X3003D01*
X6002D01*
X7001Y107000D01*
Y107999D01*
X6002Y108999D01*
X3003D01*
X9001Y103001D02*
Y107000D01*
X11000Y108999D01*
X12999Y107000D01*
Y103001D01*
Y106000D01*
X9001D01*
X14999Y108999D02*
X18997D01*
X16998D01*
Y103001D01*
X220002Y90999D02*
Y85001D01*
X223001D01*
X224000Y86001D01*
Y89999D01*
X223001Y90999D01*
X220002D01*
X229998D02*
X226000D01*
Y88000D01*
X227999Y89000D01*
X228999D01*
X229998Y88000D01*
Y86001D01*
X228999Y85001D01*
X226999D01*
X226000Y86001D01*
X100300Y21498D02*
Y15500D01*
X103299D01*
X104299Y16500D01*
Y20498D01*
X103299Y21498D01*
X100300D01*
X109297Y15500D02*
Y21498D01*
X106298Y18499D01*
X110297D01*
X121002Y19999D02*
Y14001D01*
X124001D01*
X125000Y15001D01*
Y18999D01*
X124001Y19999D01*
X121002D01*
X127000Y18999D02*
X127999Y19999D01*
X129999D01*
X130998Y18999D01*
Y18000D01*
X129999Y17000D01*
X128999D01*
X129999D01*
X130998Y16000D01*
Y15001D01*
X129999Y14001D01*
X127999D01*
X127000Y15001D01*
X76500Y163598D02*
Y157600D01*
X79499D01*
X80499Y158600D01*
Y162598D01*
X79499Y163598D01*
X76500D01*
X86497Y157600D02*
X82498D01*
X86497Y161599D01*
Y162598D01*
X85497Y163598D01*
X83498D01*
X82498Y162598D01*
X53500Y164598D02*
Y158600D01*
X56499D01*
X57499Y159600D01*
Y163598D01*
X56499Y164598D01*
X53500D01*
X59498Y158600D02*
X61497D01*
X60498D01*
Y164598D01*
X59498Y163598D01*
X205000Y39999D02*
X204001Y40999D01*
X202001D01*
X201002Y39999D01*
Y36001D01*
X202001Y35001D01*
X204001D01*
X205000Y36001D01*
X207000D02*
X207999Y35001D01*
X209999D01*
X210998Y36001D01*
Y39999D01*
X209999Y40999D01*
X207999D01*
X207000Y39999D01*
Y39000D01*
X207999Y38000D01*
X210998D01*
X185000Y56999D02*
X184001Y57999D01*
X182001D01*
X181002Y56999D01*
Y53001D01*
X182001Y52001D01*
X184001D01*
X185000Y53001D01*
X187000Y57999D02*
X190998D01*
Y56999D01*
X187000Y53001D01*
Y52001D01*
X154000Y69999D02*
X153001Y70999D01*
X151001D01*
X150002Y69999D01*
Y66001D01*
X151001Y65001D01*
X153001D01*
X154000Y66001D01*
X156000Y69999D02*
X156999Y70999D01*
X158999D01*
X159998Y69999D01*
Y69000D01*
X158999Y68000D01*
X159998Y67000D01*
Y66001D01*
X158999Y65001D01*
X156999D01*
X156000Y66001D01*
Y67000D01*
X156999Y68000D01*
X156000Y69000D01*
Y69999D01*
X156999Y68000D02*
X158999D01*
X116000Y81999D02*
X115001Y82999D01*
X113001D01*
X112002Y81999D01*
Y78001D01*
X113001Y77001D01*
X115001D01*
X116000Y78001D01*
X121998Y82999D02*
X119999Y81999D01*
X118000Y80000D01*
Y78001D01*
X118999Y77001D01*
X120999D01*
X121998Y78001D01*
Y79000D01*
X120999Y80000D01*
X118000D01*
X131199Y82798D02*
X130199Y83798D01*
X128200D01*
X127200Y82798D01*
Y78800D01*
X128200Y77800D01*
X130199D01*
X131199Y78800D01*
X137197Y83798D02*
X133198D01*
Y80799D01*
X135197Y81799D01*
X136197D01*
X137197Y80799D01*
Y78800D01*
X136197Y77800D01*
X134198D01*
X133198Y78800D01*
X199000Y162999D02*
X198001Y163999D01*
X196001D01*
X195002Y162999D01*
Y159001D01*
X196001Y158001D01*
X198001D01*
X199000Y159001D01*
X203999Y158001D02*
Y163999D01*
X201000Y161000D01*
X204998D01*
X267599Y97898D02*
X266599Y98898D01*
X264600D01*
X263600Y97898D01*
Y93900D01*
X264600Y92900D01*
X266599D01*
X267599Y93900D01*
X269598Y97898D02*
X270598Y98898D01*
X272597D01*
X273597Y97898D01*
Y96899D01*
X272597Y95899D01*
X271597D01*
X272597D01*
X273597Y94899D01*
Y93900D01*
X272597Y92900D01*
X270598D01*
X269598Y93900D01*
X197500Y128547D02*
X196501Y129546D01*
X194501D01*
X193502Y128547D01*
Y124548D01*
X194501Y123548D01*
X196501D01*
X197500Y124548D01*
X203498Y123548D02*
X199500D01*
X203498Y127547D01*
Y128547D01*
X202499Y129546D01*
X200499D01*
X199500Y128547D01*
X247499Y70453D02*
X248499Y71452D01*
Y73452D01*
X247499Y74451D01*
X243501D01*
X242501Y73452D01*
Y71452D01*
X243501Y70453D01*
X242501Y68453D02*
Y66454D01*
Y67454D01*
X248499D01*
X247499Y68453D01*
X429000Y0D02*
Y167000D01*
X0D02*
X429000D01*
X0Y0D02*
Y167000D01*
Y0D02*
X429000D01*
D13*
X225397Y109892D02*
Y119144D01*
X266735Y152412D02*
Y166191D01*
X225397D02*
X266735D01*
X225397Y152412D02*
Y166191D01*
Y105168D02*
Y166191D01*
Y105168D02*
X266735D01*
Y166191D01*
X225397D02*
X266735D01*
D14*
X108500Y103500D02*
Y121500D01*
Y103500D02*
X117500D01*
Y121500D01*
X108500D02*
X117500D01*
X214500Y94500D02*
Y112500D01*
X205500D02*
X214500D01*
X205500Y94500D02*
Y112500D01*
Y94500D02*
X214500D01*
X73500Y13500D02*
X91500D01*
X73500Y4500D02*
Y13500D01*
Y4500D02*
X91500D01*
Y13500D01*
X90500Y34500D02*
X108500D01*
X90500Y25500D02*
Y34500D01*
Y25500D02*
X108500D01*
Y34500D01*
X127500Y122900D02*
X136500D01*
X127500Y104900D02*
X136500D01*
X127500D02*
Y122900D01*
X136500Y104900D02*
Y122900D01*
X140900Y103500D02*
Y121500D01*
Y103500D02*
X150400D01*
Y121500D01*
X140900D02*
X150400D01*
X51500Y83500D02*
Y101500D01*
Y83500D02*
X60500D01*
Y101500D01*
X51500D02*
X60500D01*
X71500Y103500D02*
Y121500D01*
Y103500D02*
X80500D01*
Y121500D01*
X71500D02*
X80500D01*
X90500Y103500D02*
Y121500D01*
Y103500D02*
X99500D01*
Y121500D01*
X90500D02*
X99500D01*
X178000Y86500D02*
X196000D01*
Y95500D01*
X178000D02*
X196000D01*
X178000Y86500D02*
Y95500D01*
X236500Y69500D02*
Y78500D01*
X218500Y69500D02*
X236500D01*
X218500D02*
Y78500D01*
X236500D01*
D15*
X90000Y73074D02*
Y70450D01*
X90525Y69925D01*
X91574D01*
X92099Y70450D01*
Y73074D01*
X95248Y69925D02*
X93149D01*
X95248Y72024D01*
Y72549D01*
X94723Y73074D01*
X93673D01*
X93149Y72549D01*
D16*
X95606Y73862D02*
G03*
X95606Y73862I-1969J0D01*
G01*
D02*
G03*
X95606Y73862I-1969J0D01*
G01*
X112790Y153190D02*
G03*
X111018Y151418I-0J-1772D01*
G01*
X110034Y146753D02*
G03*
X113183Y143603I3150J0D01*
G01*
X113183Y155807D02*
G03*
X110034Y152658I-0J-3149D01*
G01*
X111018Y144824D02*
G03*
X113183Y142225I2382J-216D01*
G01*
X117810Y141438D02*
G03*
X120959Y138288I3150J-0D01*
G01*
X140546Y151418D02*
G03*
X138774Y153190I-1772J-0D01*
G01*
X138380Y143603D02*
G03*
X141530Y146753I0J3150D01*
G01*
Y152658D02*
G03*
X138379Y155807I-3150J-1D01*
G01*
X138380Y142225D02*
G03*
X140546Y144824I-216J2382D01*
G01*
X130605Y138288D02*
G03*
X133754Y141438I0J3150D01*
G01*
X423949Y30266D02*
Y142864D01*
X314502Y30266D02*
Y142864D01*
X423949D01*
X314502Y30266D02*
X423949D01*
X272449Y140976D02*
X295677D01*
Y158693D01*
X272449Y140976D02*
Y158693D01*
X295677D01*
X90095Y65595D02*
Y77406D01*
X101906Y65595D02*
Y77406D01*
X90095D02*
X101906D01*
X90095Y65595D02*
X101906D01*
X2386Y128858D02*
X25614D01*
X2386Y111142D02*
Y128858D01*
X25614Y111142D02*
Y128858D01*
X2386Y111142D02*
X25614D01*
X2323Y82307D02*
X25551D01*
Y100024D01*
X2323Y82307D02*
Y100024D01*
X25551D01*
X90094Y65594D02*
Y77406D01*
X101906Y65594D02*
Y77406D01*
X90094D02*
X101906D01*
X2386Y140142D02*
X25614D01*
Y157858D01*
X2386Y140142D02*
Y157858D01*
X25614D01*
X206457Y145354D02*
X213543D01*
X206457Y158740D02*
X213543D01*
X206457Y145354D02*
Y158740D01*
X213543Y145354D02*
Y158740D01*
X199594Y55594D02*
Y67406D01*
Y55594D02*
X211406D01*
Y67406D01*
X199594D02*
X211406D01*
X199594Y55594D02*
X211405D01*
Y67405D01*
X199594D02*
X211405D01*
X199594Y55594D02*
Y67405D01*
X199748Y133520D02*
Y148480D01*
X168252D02*
X199748D01*
X168252Y133520D02*
Y148480D01*
Y133520D02*
X199748D01*
X143937Y20780D02*
X186063D01*
Y39283D01*
X143937Y20780D02*
Y39283D01*
X186063D01*
X143937Y26291D02*
X186063D01*
X270323Y70693D02*
X309299D01*
Y52976D02*
Y70693D01*
X270323Y52976D02*
Y70693D01*
Y52976D02*
X309299D01*
X110034Y146753D02*
Y152658D01*
X111018Y144824D02*
Y151418D01*
X113183Y143603D02*
X117809D01*
Y141438D02*
Y143603D01*
X141530Y146753D02*
Y152658D01*
X140546Y144824D02*
Y151418D01*
X112790Y153190D02*
X138774D01*
X113183Y142225D02*
X138380D01*
X133754Y143603D02*
X138380D01*
X113183Y155807D02*
X138379D01*
X133754Y141438D02*
Y143603D01*
X120959Y138288D02*
X130605D01*
X198992Y49543D02*
X212378D01*
X198992Y42457D02*
X212378D01*
X198992D02*
Y49543D01*
X212378Y42457D02*
Y49543D01*
X181457Y73878D02*
X188543D01*
X181457Y60492D02*
X188543D01*
Y73878D01*
X181457Y60492D02*
Y73878D01*
X160957Y74378D02*
X168043D01*
X160957Y60992D02*
X168043D01*
Y74378D01*
X160957Y60992D02*
Y74378D01*
X114457Y62260D02*
X121543D01*
X114457Y75646D02*
X121543D01*
X114457Y62260D02*
Y75646D01*
X121543Y62260D02*
Y75646D01*
X125957Y62354D02*
X133043D01*
X125957Y75740D02*
X133043D01*
X125957Y62354D02*
Y75740D01*
X133043Y62354D02*
Y75740D01*
X263992Y82457D02*
Y89543D01*
X277378Y82457D02*
Y89543D01*
X263992D02*
X277378D01*
X263992Y82457D02*
X277378D01*
X207457Y131693D02*
X214543D01*
X207457Y118307D02*
X214543D01*
Y131693D01*
X207457Y118307D02*
Y131693D01*
X250457Y76693D02*
X257543D01*
X250457Y63307D02*
X257543D01*
Y76693D01*
X250457Y63307D02*
Y76693D01*
X361203Y86565D02*
X365140D01*
X363171Y84596D02*
Y88533D01*
X284063Y147866D02*
Y151803D01*
X282095Y149835D02*
X286032D01*
X94032Y71500D02*
X97969D01*
X96000Y69532D02*
Y73469D01*
X14000Y118031D02*
Y121968D01*
X12031Y120000D02*
X15968D01*
X11968Y91165D02*
X15905D01*
X13937Y89197D02*
Y93134D01*
X12031Y149000D02*
X15968D01*
X14000Y147031D02*
Y150968D01*
X206260Y144173D02*
X213740D01*
X206260Y159921D02*
X213740D01*
X206260Y144173D02*
Y159921D01*
X213740Y144173D02*
Y159921D01*
X210000Y150079D02*
Y154016D01*
X208032Y152047D02*
X211969D01*
X203532Y61500D02*
X207469D01*
X205500Y59532D02*
Y63469D01*
X184000Y139032D02*
Y142969D01*
X182032Y141000D02*
X185969D01*
X165000Y30032D02*
Y33969D01*
X163031Y32000D02*
X166969D01*
X287843Y61835D02*
X291780D01*
X289811Y59866D02*
Y63803D01*
X125782Y145080D02*
Y149016D01*
X123813Y147048D02*
X127750D01*
X205685Y44031D02*
Y47969D01*
X203717Y46000D02*
X207654D01*
X197811Y49740D02*
X213559D01*
X197811Y42260D02*
X213559D01*
X197811D02*
Y49740D01*
X213559Y42260D02*
Y49740D01*
X181260Y75059D02*
X188740D01*
X181260Y59311D02*
X188740D01*
Y75059D01*
X181260Y59311D02*
Y75059D01*
X185000Y65217D02*
Y69154D01*
X183032Y67185D02*
X186969D01*
X160760Y75559D02*
X168240D01*
X160760Y59811D02*
X168240D01*
Y75559D01*
X160760Y59811D02*
Y75559D01*
X164500Y65717D02*
Y69654D01*
X162532Y67685D02*
X166469D01*
X114260Y61079D02*
X121740D01*
X114260Y76827D02*
X121740D01*
X114260Y61079D02*
Y76827D01*
X121740Y61079D02*
Y76827D01*
X118000Y66984D02*
Y70921D01*
X116032Y68953D02*
X119969D01*
X125760Y61173D02*
X133240D01*
X125760Y76921D02*
X133240D01*
X125760Y61173D02*
Y76921D01*
X133240Y61173D02*
Y76921D01*
X129500Y67079D02*
Y71016D01*
X127532Y69047D02*
X131469D01*
X262811Y82260D02*
Y89740D01*
X278559Y82260D02*
Y89740D01*
X262811D02*
X278559D01*
X262811Y82260D02*
X278559D01*
X268717Y86000D02*
X272654D01*
X270685Y84032D02*
Y87969D01*
X207260Y132874D02*
X214740D01*
X207260Y117126D02*
X214740D01*
Y132874D01*
X207260Y117126D02*
Y132874D01*
X211000Y123032D02*
Y126969D01*
X209032Y125000D02*
X212969D01*
X250260Y77874D02*
X257740D01*
X250260Y62126D02*
X257740D01*
Y77874D01*
X250260Y62126D02*
Y77874D01*
X254000Y68032D02*
Y71969D01*
X252032Y70000D02*
X255969D01*
D17*
X424344Y28545D02*
Y144683D01*
X312925D02*
X424344D01*
X312925Y28545D02*
Y144683D01*
Y28545D02*
X424344D01*
X272055Y140583D02*
X296071D01*
Y159087D01*
X272055Y140583D02*
Y159087D01*
X296071D01*
X88126Y63626D02*
Y79374D01*
X103874Y63626D02*
Y79374D01*
X88126D02*
X103874D01*
X88126Y63626D02*
X103874D01*
X1992Y129252D02*
X26008D01*
X1992Y110748D02*
Y129252D01*
X26008Y110748D02*
Y129252D01*
X1992Y110748D02*
X26008D01*
X1929Y81913D02*
X25945D01*
Y100417D01*
X1929Y81913D02*
Y100417D01*
X25945D01*
X88126Y63626D02*
Y79374D01*
X103874Y63626D02*
Y79374D01*
X88126D02*
X103874D01*
X88126Y63626D02*
X103874D01*
X224412Y104183D02*
Y151231D01*
Y104183D02*
X267720D01*
Y151231D01*
X270475D01*
Y167176D01*
X221657D02*
X270475D01*
X221657Y151231D02*
Y167176D01*
Y151231D02*
X224412D01*
X1992Y139748D02*
X26008D01*
Y158252D01*
X1992Y139748D02*
Y158252D01*
X26008D01*
X198610Y55201D02*
Y67799D01*
Y55201D02*
X212390D01*
Y67799D01*
X198610D02*
X212390D01*
X200142Y130567D02*
Y151433D01*
X167858D02*
X200142D01*
X167858Y130567D02*
Y151433D01*
Y130567D02*
X200142D01*
X269929Y71087D02*
X309693D01*
Y52583D02*
Y71087D01*
X269929Y52583D02*
Y71087D01*
Y52583D02*
X309693D01*
X141924Y137895D02*
Y156201D01*
X109640D02*
X141924D01*
X109640Y137895D02*
X141924D01*
X109640D02*
Y156201D01*
M02*
