G04*
G04 #@! TF.GenerationSoftware,Altium Limited,Altium Designer,21.0.9 (235)*
G04*
G04 Layer_Physical_Order=1*
G04 Layer_Color=255*
%FSLAX25Y25*%
%MOIN*%
G70*
G04*
G04 #@! TF.SameCoordinates,45B737F9-4C2A-4F44-B11E-15A99866B8DE*
G04*
G04*
G04 #@! TF.FilePolarity,Positive*
G04*
G01*
G75*
%ADD11C,0.00787*%
%ADD12C,0.00800*%
%ADD13C,0.00500*%
%ADD14C,0.01000*%
%ADD15C,0.00630*%
%ADD16C,0.00394*%
%ADD17C,0.00197*%
%ADD38R,0.03150X0.03150*%
%ADD39R,0.06693X0.09843*%
%ADD45R,0.06063X0.06063*%
%ADD46C,0.06063*%
%ADD51R,0.04331X0.05906*%
%ADD52R,0.07874X0.03937*%
%ADD53R,0.08661X0.06102*%
%ADD54R,0.12598X0.08268*%
%ADD55R,0.07677X0.04724*%
%ADD56R,0.06496X0.05906*%
%ADD57R,0.07362X0.06299*%
%ADD58R,0.16417X0.06102*%
%ADD59R,0.02362X0.01575*%
%ADD60R,0.05906X0.09449*%
%ADD61R,0.06000X0.08000*%
%ADD62R,0.06693X0.04331*%
%ADD63R,0.05118X0.07480*%
%ADD64R,0.04331X0.06693*%
%ADD65R,0.02362X0.01575*%
%ADD66R,0.01575X0.02362*%
G04:AMPARAMS|DCode=67|XSize=9.84mil|YSize=23.62mil|CornerRadius=1.97mil|HoleSize=0mil|Usage=FLASHONLY|Rotation=90.000|XOffset=0mil|YOffset=0mil|HoleType=Round|Shape=RoundedRectangle|*
%AMROUNDEDRECTD67*
21,1,0.00984,0.01968,0,0,90.0*
21,1,0.00591,0.02362,0,0,90.0*
1,1,0.00394,0.00984,0.00295*
1,1,0.00394,0.00984,-0.00295*
1,1,0.00394,-0.00984,-0.00295*
1,1,0.00394,-0.00984,0.00295*
%
%ADD67ROUNDEDRECTD67*%
G04:AMPARAMS|DCode=68|XSize=9.84mil|YSize=23.62mil|CornerRadius=1.97mil|HoleSize=0mil|Usage=FLASHONLY|Rotation=0.000|XOffset=0mil|YOffset=0mil|HoleType=Round|Shape=RoundedRectangle|*
%AMROUNDEDRECTD68*
21,1,0.00984,0.01968,0,0,0.0*
21,1,0.00591,0.02362,0,0,0.0*
1,1,0.00394,0.00295,-0.00984*
1,1,0.00394,-0.00295,-0.00984*
1,1,0.00394,-0.00295,0.00984*
1,1,0.00394,0.00295,0.00984*
%
%ADD68ROUNDEDRECTD68*%
G04:AMPARAMS|DCode=69|XSize=66.93mil|YSize=66.93mil|CornerRadius=2.01mil|HoleSize=0mil|Usage=FLASHONLY|Rotation=0.000|XOffset=0mil|YOffset=0mil|HoleType=Round|Shape=RoundedRectangle|*
%AMROUNDEDRECTD69*
21,1,0.06693,0.06291,0,0,0.0*
21,1,0.06291,0.06693,0,0,0.0*
1,1,0.00402,0.03146,-0.03146*
1,1,0.00402,-0.03146,-0.03146*
1,1,0.00402,-0.03146,0.03146*
1,1,0.00402,0.03146,0.03146*
%
%ADD69ROUNDEDRECTD69*%
%ADD70R,0.08000X0.06000*%
%ADD71C,0.01200*%
%ADD72C,0.01500*%
%ADD73C,0.05906*%
%ADD74R,0.05906X0.05906*%
%ADD75C,0.05709*%
%ADD76R,0.05709X0.05709*%
%ADD77C,0.11024*%
%ADD78R,0.06693X0.06693*%
%ADD79C,0.06693*%
%ADD80C,0.05000*%
%ADD81C,0.01968*%
D11*
X487618Y332618D02*
Y357382D01*
X512382D01*
Y332618D02*
Y357382D01*
X487618Y332618D02*
X512382D01*
X349291Y318772D02*
X354803D01*
Y315228D02*
Y318772D01*
X349291Y315228D02*
X354803D01*
X349291D02*
Y318772D01*
X367244Y339772D02*
X372756D01*
Y336228D02*
Y339772D01*
X367244Y336228D02*
X372756D01*
X367244D02*
Y339772D01*
X467154Y402728D02*
Y406272D01*
Y402728D02*
X473846D01*
Y406272D01*
X467154D02*
X473846D01*
X321252Y446945D02*
X332748D01*
Y465055D01*
X321252D02*
X332748D01*
X321252Y446945D02*
Y465055D01*
X298252Y447945D02*
X309748D01*
Y466055D01*
X298252D02*
X309748D01*
X298252Y447945D02*
Y466055D01*
X468992Y458756D02*
G03*
X468992Y458756I-394J0D01*
G01*
D12*
X344045Y385104D02*
Y386545D01*
X345676Y388176D02*
X347117D01*
X344045Y386545D02*
X345676Y388176D01*
X343953Y385012D02*
X344045Y385104D01*
X348453Y382453D02*
X349000Y383000D01*
X346512Y382453D02*
X348453D01*
X331500Y380484D02*
X335488D01*
X334707Y382545D02*
Y382545D01*
X333500Y383752D02*
X334707Y382545D01*
X334799Y382453D02*
X335488D01*
X334707Y382545D02*
X334799Y382453D01*
X333500Y383752D02*
Y385500D01*
X340000Y371582D02*
Y373988D01*
X337000Y412400D02*
X339600Y415000D01*
X337000Y389455D02*
Y412400D01*
Y389455D02*
X339947Y386508D01*
Y385080D02*
Y386508D01*
Y385080D02*
X340016Y385012D01*
X339600Y415000D02*
X340000D01*
X328984Y378516D02*
X335488D01*
X320453Y376547D02*
X335488D01*
X347117Y388176D02*
X349500Y390559D01*
X321000Y402732D02*
X338047Y385685D01*
X351000Y351000D02*
Y372059D01*
X346512Y376547D02*
X351000Y372059D01*
X343953Y368547D02*
Y373988D01*
X337366Y373307D02*
X338039D01*
X333059Y369000D02*
X337366Y373307D01*
X341984Y355646D02*
Y373988D01*
X346512Y378516D02*
X354941D01*
D13*
X470567Y474504D02*
X511905D01*
Y413480D02*
Y474504D01*
X470567Y413480D02*
X511905D01*
X470567D02*
Y474504D01*
D14*
X593980Y428980D02*
X604138D01*
X437500Y380728D02*
X444791Y373437D01*
X363000Y358500D02*
Y371638D01*
X329000Y369000D02*
X333059D01*
X266374Y400500D02*
X318500D01*
X440394Y454732D02*
X455000D01*
X439827Y455299D02*
X440394Y454732D01*
X426929Y380000D02*
X428460Y381531D01*
X349000Y383000D02*
Y386000D01*
X358000Y395000D01*
X321000Y387000D02*
X324984D01*
X331500Y380484D01*
X320750Y386750D02*
X328984Y378516D01*
X408319Y370370D02*
X409500D01*
X406653Y372035D02*
Y372066D01*
Y372035D02*
X408319Y370370D01*
X409591Y340409D02*
X410000Y340000D01*
X409817Y370687D02*
X410819Y369685D01*
X412000D01*
X411500Y380315D02*
X411815Y380000D01*
X412000Y369685D02*
X412252Y369937D01*
X430567D02*
X431000Y370370D01*
X426052Y398552D02*
X426500Y399000D01*
X255063Y425835D02*
X255165D01*
X255063Y425249D02*
Y425835D01*
X320500Y387500D02*
X321000Y387000D01*
X508858Y332205D02*
Y357795D01*
X453819Y465362D02*
X455000D01*
X361768Y383500D02*
X363000Y382268D01*
X332000Y404500D02*
Y418000D01*
X338000Y366500D02*
X338765Y367265D01*
Y370348D01*
X340000Y371582D01*
X333874Y448126D02*
X340000Y442000D01*
X327000Y448126D02*
X333874D01*
X262874Y397000D02*
X266374Y400500D01*
X318500D02*
X333500Y385500D01*
X346512Y382453D02*
X347185D01*
X358000Y395000D02*
Y415000D01*
X301000Y395000D02*
X302000D01*
X320453Y376547D01*
X332000Y418000D02*
X336500Y422500D01*
X339000Y426000D02*
X340000D01*
X336500Y423500D02*
X339000Y426000D01*
X336500Y422500D02*
Y423500D01*
X341984Y397984D02*
X344500Y400500D01*
X341984Y385012D02*
Y397984D01*
X349500Y390559D02*
Y405870D01*
X351000Y407370D01*
Y419357D01*
X338047Y385012D02*
Y385685D01*
X321000Y402732D02*
Y415000D01*
X341000Y426000D02*
X343500Y428500D01*
Y429414D02*
X344086Y430000D01*
X354500Y428500D02*
Y429414D01*
X343500Y428500D02*
Y429414D01*
X340000Y426000D02*
X341000D01*
X353914Y430000D02*
X354500Y429414D01*
X339000Y339000D02*
X351000Y351000D01*
X343953Y368547D02*
X346500Y366000D01*
X338047Y373315D02*
Y373988D01*
X338039Y373307D02*
X338047Y373315D01*
X361819Y371638D02*
X363000D01*
X354941Y378516D02*
X361819Y371638D01*
X339000Y338000D02*
Y339000D01*
X324500Y338161D02*
X341984Y355646D01*
X322000Y317000D02*
X324500Y319500D01*
Y338161D01*
X455917Y427769D02*
X456000Y427685D01*
X439827Y442701D02*
X450433D01*
X454819Y438315D01*
X510370Y395181D02*
Y410630D01*
Y394000D02*
Y395181D01*
X515522Y419780D02*
X522125Y413177D01*
X522333D01*
X510134Y413695D02*
Y415842D01*
Y413695D02*
X512370Y411458D01*
X507116Y413884D02*
Y415711D01*
Y413884D02*
X510370Y410630D01*
X506984Y415842D02*
X507116Y415711D01*
X512370Y407630D02*
X521000Y399000D01*
X512370Y407630D02*
Y411458D01*
X521000Y394000D02*
Y399000D01*
X500685Y415449D02*
Y415842D01*
X499000Y383315D02*
Y414157D01*
X500004Y415161D02*
X500398D01*
X499000Y414157D02*
X500004Y415161D01*
X500398D02*
X500685Y415449D01*
X497248Y415161D02*
X497535Y415449D01*
X493500Y411807D02*
X494954Y413261D01*
X496573Y414575D02*
X497159Y415161D01*
X495753Y413261D02*
X496573Y414081D01*
X493500Y388815D02*
X499000Y383315D01*
X494954Y413261D02*
X495753D01*
X496573Y414081D02*
Y414575D01*
X497535Y415449D02*
Y415842D01*
X493500Y388815D02*
Y411807D01*
X497159Y415161D02*
X497248D01*
X437500Y399000D02*
X438000Y399500D01*
Y420000D01*
X488735Y406235D02*
X489500Y407000D01*
X467000Y382000D02*
Y383000D01*
X488735Y404735D01*
Y406235D01*
X390000Y400000D02*
Y415000D01*
X604138Y428980D02*
X606000Y430842D01*
X607476Y440685D02*
X609339Y438823D01*
X604524Y391472D02*
X606000D01*
X591211Y404785D02*
X604524Y391472D01*
X607476Y411157D02*
X609339Y413020D01*
X535000Y417000D02*
X547215Y404785D01*
X605000Y420000D02*
X606000Y421000D01*
X547215Y404785D02*
X591211D01*
X606000Y411157D02*
X607476D01*
X590000Y425000D02*
X593980Y428980D01*
X606000Y440685D02*
X607476D01*
X576610Y429228D02*
X604524Y401315D01*
X509543Y429228D02*
X576610D01*
X496308Y434692D02*
X503346Y427654D01*
X523828Y451000D02*
X545000D01*
X520342Y447513D02*
X523828Y451000D01*
X509543Y444976D02*
X548394D01*
X550418Y447000D01*
X551500D01*
X518376Y421500D02*
X519459D01*
X483459Y427500D02*
X487500D01*
X509543Y422929D02*
X516947D01*
X487500Y427500D02*
X492811Y422189D01*
X516947Y422929D02*
X518376Y421500D01*
X509543Y419780D02*
X515522D01*
X499996Y424504D02*
X506000D01*
X497500Y427000D02*
X499996Y424504D01*
X492811Y419386D02*
Y422189D01*
X503346Y427654D02*
X506000D01*
X375000Y404500D02*
Y415000D01*
X415654Y335653D02*
X420000Y340000D01*
X394087Y335653D02*
X415654D01*
X391741Y338000D02*
X394087Y335653D01*
X372953Y338000D02*
X391741D01*
X502119Y433885D02*
Y447881D01*
X504239Y431765D02*
X504644D01*
X505606Y430803D01*
X506000D01*
X502119Y433885D02*
X504239Y431765D01*
X500000Y450000D02*
X502119Y447881D01*
X506681Y446928D02*
X507267Y447513D01*
X520342D01*
X506681Y446839D02*
Y446928D01*
X506394Y446551D02*
X506681Y446839D01*
X506000Y446551D02*
X506394D01*
X471575Y417000D02*
X472339Y416236D01*
Y415842D02*
Y416236D01*
X455000Y417000D02*
X471575D01*
X477676Y417109D02*
Y417603D01*
X478261Y416524D02*
X478350D01*
X458847Y435634D02*
Y436650D01*
Y435634D02*
X476057Y418424D01*
X476856D01*
X478350Y416524D02*
X478638Y416236D01*
Y415842D02*
Y416236D01*
X476856Y418424D02*
X477676Y417603D01*
Y417109D02*
X478261Y416524D01*
X509331Y458543D02*
X509543Y458756D01*
X501043Y458543D02*
X509331D01*
X496319Y453819D02*
X501043Y458543D01*
X480949Y454425D02*
X481556Y453819D01*
X472929Y454425D02*
X480949D01*
X481556Y453819D02*
X496319D01*
X497819Y372685D02*
X499000D01*
X496153Y371020D02*
X497819Y372685D01*
X485653Y410000D02*
X488087Y412434D01*
X478953Y410000D02*
X485653D01*
X488087Y412434D02*
Y415842D01*
X473453Y404500D02*
X478953Y410000D01*
X521000Y392819D02*
Y394000D01*
X522315Y372685D02*
X523000Y372000D01*
X445185Y369500D02*
X450500D01*
X456000Y352819D02*
Y354000D01*
X375681Y371732D02*
X377346Y370067D01*
Y367783D02*
Y370067D01*
Y367783D02*
X400000Y345130D01*
X374500Y371732D02*
X375681D01*
X400000Y340000D02*
Y345130D01*
X372953Y334953D02*
Y338000D01*
X355000Y317000D02*
X372953Y334953D01*
X333000Y317000D02*
X349094D01*
X350000Y338000D02*
X367047D01*
X363000Y371638D02*
X374406D01*
X374500Y371732D01*
X374406Y382268D02*
X374500Y382362D01*
X456000Y354000D02*
Y355181D01*
X457665Y356846D01*
X458347D01*
X455815Y369500D02*
X456209D01*
X445370Y354000D02*
Y355181D01*
X444791Y373437D02*
X445185D01*
X437500Y380728D02*
Y399000D01*
X455815Y373437D02*
X459437D01*
X467000Y381000D01*
Y382000D01*
X497685D02*
X499000Y383315D01*
X509543Y426079D02*
X563921D01*
X570000Y420000D01*
X604524Y401315D02*
X606000D01*
X559468Y444728D02*
X604138D01*
X606000Y446590D01*
X509543Y438677D02*
X553417D01*
X559468Y444728D01*
X509543Y451276D02*
X521276D01*
X538000Y468000D01*
X514055Y458543D02*
X516136D01*
X525593Y468000D01*
X530126D01*
X509543Y454425D02*
X509937D01*
X514055Y458543D01*
X455000Y465362D02*
X456181D01*
X467118Y454425D02*
X472929D01*
Y458756D01*
X481175Y417625D02*
X481500Y417300D01*
X471168Y427041D02*
X472959D01*
X481500Y416130D02*
Y417300D01*
X472959Y427041D02*
X481175Y418825D01*
Y417625D02*
Y418825D01*
X481500Y416130D02*
X481787Y415842D01*
X460746Y437463D02*
X471168Y427041D01*
X454819Y438315D02*
X457181D01*
X455000Y448138D02*
Y454732D01*
X457181Y438315D02*
X458847Y436650D01*
X460746Y437463D02*
Y442392D01*
X455000Y448138D02*
X460746Y442392D01*
X456500Y404500D02*
X467547D01*
X455000Y406000D02*
X456500Y404500D01*
X455000Y426685D02*
X456000Y427685D01*
X390000Y426000D02*
Y448524D01*
X379921Y458602D02*
X390000Y448524D01*
X375000Y445807D02*
X379921Y450728D01*
X375000Y426000D02*
Y445807D01*
X317500Y423500D02*
X320000Y426000D01*
X321000D01*
X301000Y406000D02*
X302000D01*
X304500Y408500D01*
Y409500D01*
X317500Y422500D02*
Y423500D01*
X354500Y428500D02*
X357000Y426000D01*
X358000D01*
X335914Y430000D02*
X336500Y429414D01*
Y428500D02*
Y429414D01*
X324500Y428500D02*
Y429414D01*
X336500Y428500D02*
X339000Y426000D01*
X324500Y429414D02*
X325086Y430000D01*
X321000Y426000D02*
X322000D01*
X324500Y428500D01*
X255000Y397000D02*
X255031Y397031D01*
X304000Y463299D02*
Y464874D01*
X327000Y462299D02*
Y463874D01*
D15*
X335000Y381074D02*
Y378450D01*
X335525Y377925D01*
X336574D01*
X337099Y378450D01*
Y381074D01*
X340248Y377925D02*
X338149D01*
X340248Y380024D01*
Y380549D01*
X339723Y381074D01*
X338673D01*
X338149Y380549D01*
D16*
X340606Y381862D02*
G03*
X340606Y381862I-1969J0D01*
G01*
X247386Y465858D02*
X270614D01*
X247386Y448142D02*
Y465858D01*
X270614Y448142D02*
Y465858D01*
X247386Y448142D02*
X270614D01*
X247386Y436858D02*
X270614D01*
X247386Y419142D02*
Y436858D01*
X270614Y419142D02*
Y436858D01*
X247386Y419142D02*
X270614D01*
X559130Y360596D02*
Y473195D01*
X668577Y360596D02*
Y473195D01*
X559130Y360596D02*
X668577D01*
X559130Y473195D02*
X668577D01*
X515323Y360976D02*
X554299D01*
X515323D02*
Y378693D01*
X554299Y360976D02*
Y378693D01*
X515323D02*
X554299D01*
X351299Y444783D02*
X398701D01*
Y509744D01*
X351299D02*
X398701D01*
X351299Y444783D02*
Y509744D01*
X444594Y363594D02*
Y375405D01*
X456405D01*
Y363594D02*
Y375405D01*
X444594Y363594D02*
X456405D01*
X444594Y375406D02*
X456406D01*
Y363594D02*
Y375406D01*
X444594Y363594D02*
X456406D01*
X444594D02*
Y375406D01*
X495457Y371307D02*
Y384693D01*
X502543Y371307D02*
Y384693D01*
X495457Y371307D02*
X502543D01*
X495457Y384693D02*
X502543D01*
X413252Y441520D02*
X444748D01*
X413252D02*
Y456480D01*
X444748D01*
Y441520D02*
Y456480D01*
X443992Y357543D02*
X457378D01*
X443992Y350457D02*
X457378D01*
X443992D02*
Y357543D01*
X457378Y350457D02*
Y357543D01*
X426457Y368492D02*
Y381878D01*
X433543Y368492D02*
Y381878D01*
X426457Y368492D02*
X433543D01*
X426457Y381878D02*
X433543D01*
X405957Y368992D02*
Y382378D01*
X413043Y368992D02*
Y382378D01*
X405957Y368992D02*
X413043D01*
X405957Y382378D02*
X413043D01*
X366543Y370260D02*
Y383646D01*
X359457Y370260D02*
Y383646D01*
X366543D01*
X359457Y370260D02*
X366543D01*
X378043Y370354D02*
Y383740D01*
X370957Y370354D02*
Y383740D01*
X378043D01*
X370957Y370354D02*
X378043D01*
X458543Y453354D02*
Y466740D01*
X451457Y453354D02*
Y466740D01*
X458543D01*
X451457Y453354D02*
X458543D01*
X508992Y390457D02*
X522378D01*
X508992Y397543D02*
X522378D01*
Y390457D02*
Y397543D01*
X508992Y390457D02*
Y397543D01*
X452457Y426307D02*
Y439693D01*
X459543Y426307D02*
Y439693D01*
X452457Y426307D02*
X459543D01*
X452457Y439693D02*
X459543D01*
X335094Y373594D02*
X346906D01*
X335094Y385406D02*
X346906D01*
Y373594D02*
Y385406D01*
X335094Y373594D02*
Y385406D01*
X388937Y345709D02*
X431063D01*
X388937Y332717D02*
X431063D01*
Y351220D01*
X388937Y332717D02*
Y351220D01*
X431063D01*
X247323Y390307D02*
X270551D01*
Y408024D01*
X247323Y390307D02*
Y408024D01*
X270551D01*
X522449Y474693D02*
X545677D01*
X522449Y456976D02*
Y474693D01*
X545677Y456976D02*
Y474693D01*
X522449Y456976D02*
X545677D01*
X259000Y455031D02*
Y458968D01*
X257031Y457000D02*
X260968D01*
X259000Y426031D02*
Y429968D01*
X257031Y428000D02*
X260968D01*
X617939Y416896D02*
X621876D01*
X619907Y414927D02*
Y418864D01*
X534811Y367866D02*
Y371803D01*
X532843Y369835D02*
X536780D01*
X375000Y458032D02*
Y461969D01*
X373031Y460000D02*
X376969D01*
X450500Y367532D02*
Y371469D01*
X448532Y369500D02*
X452469D01*
X497032Y378000D02*
X500969D01*
X499000Y376032D02*
Y379969D01*
X495260Y370126D02*
Y385874D01*
X502740Y370126D02*
Y385874D01*
X495260Y370126D02*
X502740D01*
X495260Y385874D02*
X502740D01*
X427032Y449000D02*
X430969D01*
X429000Y447032D02*
Y450969D01*
X450685Y352031D02*
Y355969D01*
X448717Y354000D02*
X452654D01*
X442811Y357740D02*
X458559D01*
X442811Y350260D02*
X458559D01*
X442811D02*
Y357740D01*
X458559Y350260D02*
Y357740D01*
X428032Y375185D02*
X431969D01*
X430000Y373217D02*
Y377154D01*
X426260Y367311D02*
Y383059D01*
X433740Y367311D02*
Y383059D01*
X426260Y367311D02*
X433740D01*
X426260Y383059D02*
X433740D01*
X407532Y375685D02*
X411469D01*
X409500Y373717D02*
Y377654D01*
X405760Y367811D02*
Y383559D01*
X413240Y367811D02*
Y383559D01*
X405760Y367811D02*
X413240D01*
X405760Y383559D02*
X413240D01*
X361032Y376953D02*
X364969D01*
X363000Y374984D02*
Y378921D01*
X366740Y369079D02*
Y384827D01*
X359260Y369079D02*
Y384827D01*
X366740D01*
X359260Y369079D02*
X366740D01*
X372532Y377047D02*
X376469D01*
X374500Y375079D02*
Y379016D01*
X378240Y369173D02*
Y384921D01*
X370760Y369173D02*
Y384921D01*
X378240D01*
X370760Y369173D02*
X378240D01*
X453032Y460047D02*
X456969D01*
X455000Y458079D02*
Y462016D01*
X458740Y452173D02*
Y467921D01*
X451260Y452173D02*
Y467921D01*
X458740D01*
X451260Y452173D02*
X458740D01*
X515685Y392032D02*
Y395969D01*
X513717Y394000D02*
X517654D01*
X507811Y390260D02*
X523559D01*
X507811Y397740D02*
X523559D01*
Y390260D02*
Y397740D01*
X507811Y390260D02*
Y397740D01*
X454032Y433000D02*
X457969D01*
X456000Y431032D02*
Y434969D01*
X452260Y425126D02*
Y440874D01*
X459740Y425126D02*
Y440874D01*
X452260Y425126D02*
X459740D01*
X452260Y440874D02*
X459740D01*
X341000Y377532D02*
Y381469D01*
X339032Y379500D02*
X342969D01*
X408031Y340000D02*
X411969D01*
X410000Y338031D02*
Y341968D01*
X256968Y399165D02*
X260905D01*
X258937Y397197D02*
Y401134D01*
X532094Y465835D02*
X536031D01*
X534063Y463866D02*
Y467803D01*
D17*
X246992Y466252D02*
X271008D01*
X246992Y447748D02*
Y466252D01*
X271008Y447748D02*
Y466252D01*
X246992Y447748D02*
X271008D01*
X246992Y437252D02*
X271008D01*
X246992Y418748D02*
Y437252D01*
X271008Y418748D02*
Y437252D01*
X246992Y418748D02*
X271008D01*
X558734Y358777D02*
Y474915D01*
Y358777D02*
X670153D01*
Y474915D01*
X558734D02*
X670153D01*
X514929Y360583D02*
X554693D01*
X514929D02*
Y379087D01*
X554693Y360583D02*
Y379087D01*
X514929D02*
X554693D01*
X345394Y444390D02*
Y510138D01*
X404606D01*
Y444390D02*
Y510138D01*
X345394Y444390D02*
X404606D01*
X443610Y375799D02*
X457390D01*
Y363201D02*
Y375799D01*
X443610Y363201D02*
X457390D01*
X443610D02*
Y375799D01*
X412858Y438567D02*
X445142D01*
X412858D02*
Y459433D01*
X445142D01*
Y438567D02*
Y459433D01*
X466827Y459543D02*
X469583D01*
X466827D02*
Y475488D01*
X515646D01*
Y459543D02*
Y475488D01*
X512890Y459543D02*
X515646D01*
X512890Y412496D02*
Y459543D01*
X469583Y412496D02*
X512890D01*
X469583D02*
Y459543D01*
X333126Y371626D02*
X348874D01*
X333126Y387374D02*
X348874D01*
Y371626D02*
Y387374D01*
X333126Y371626D02*
Y387374D01*
X246929Y389913D02*
X270945D01*
Y408417D01*
X246929Y389913D02*
Y408417D01*
X270945D01*
X522055Y475087D02*
X546071D01*
X522055Y456583D02*
Y475087D01*
X546071Y456583D02*
Y475087D01*
X522055Y456583D02*
X546071D01*
D38*
X349094Y317000D02*
D03*
X355000D02*
D03*
X367047Y338000D02*
D03*
X372953D02*
D03*
X473453Y404500D02*
D03*
X467547D02*
D03*
D39*
X327000Y463874D02*
D03*
Y448126D02*
D03*
X304000Y464874D02*
D03*
Y449126D02*
D03*
D45*
X491142Y332205D02*
D03*
D46*
Y357795D02*
D03*
X508858Y332205D02*
D03*
Y357795D02*
D03*
D51*
X634366Y471571D02*
D03*
D52*
X589602Y469012D02*
D03*
Y464287D02*
D03*
D53*
X591728Y362220D02*
D03*
D54*
X573303Y371689D02*
D03*
Y465390D02*
D03*
D55*
X606000Y401315D02*
D03*
Y411157D02*
D03*
Y421000D02*
D03*
Y430842D02*
D03*
Y440685D02*
D03*
Y391472D02*
D03*
Y446590D02*
D03*
Y452496D02*
D03*
Y381630D02*
D03*
D56*
X666512Y471571D02*
D03*
D57*
X666079Y448461D02*
D03*
D58*
X661551Y362220D02*
D03*
D59*
X455815Y373437D02*
D03*
Y369500D02*
D03*
Y365563D02*
D03*
X445185D02*
D03*
Y369500D02*
D03*
Y373437D02*
D03*
D60*
X450500Y369500D02*
D03*
D61*
X467000Y382000D02*
D03*
X478000D02*
D03*
X333000Y317000D02*
D03*
X322000D02*
D03*
X350000Y338000D02*
D03*
X339000D02*
D03*
X426500Y399000D02*
D03*
X437500D02*
D03*
D62*
X499000Y372685D02*
D03*
Y383315D02*
D03*
X430000Y369870D02*
D03*
Y380500D02*
D03*
X409500Y370370D02*
D03*
Y381000D02*
D03*
X363000Y382268D02*
D03*
Y371638D02*
D03*
X374500Y382362D02*
D03*
Y371732D02*
D03*
X455000Y465362D02*
D03*
Y454732D02*
D03*
X456000Y427685D02*
D03*
Y438315D02*
D03*
D63*
X439827Y442701D02*
D03*
Y455299D02*
D03*
X418173Y442701D02*
D03*
Y455299D02*
D03*
D64*
X445370Y354000D02*
D03*
X456000D02*
D03*
X521000Y394000D02*
D03*
X510370D02*
D03*
D65*
X472929Y458756D02*
D03*
Y454425D02*
D03*
Y451276D02*
D03*
Y444976D02*
D03*
X476472Y443402D02*
D03*
X472929Y441827D02*
D03*
X476472Y440252D02*
D03*
X472929Y438677D02*
D03*
X476472Y437102D02*
D03*
X472929Y435528D02*
D03*
X476472Y433953D02*
D03*
X472929Y432378D02*
D03*
X476472Y430803D02*
D03*
X472929Y429228D02*
D03*
X509543Y419780D02*
D03*
Y422929D02*
D03*
X506000Y424504D02*
D03*
X509543Y426079D02*
D03*
X506000Y427654D02*
D03*
X509543Y429228D02*
D03*
X506000Y430803D02*
D03*
X509543Y432378D02*
D03*
X506000Y433953D02*
D03*
Y437102D02*
D03*
X509543Y438677D02*
D03*
X506000Y440252D02*
D03*
X509543Y441827D02*
D03*
X506000Y443402D02*
D03*
X509543Y444976D02*
D03*
X506000Y446551D02*
D03*
Y449701D02*
D03*
X509543Y451276D02*
D03*
X506000Y452850D02*
D03*
X509543Y454425D02*
D03*
X506000Y456000D02*
D03*
X509543Y458756D02*
D03*
D66*
X472339Y415842D02*
D03*
X475488D02*
D03*
X478638D02*
D03*
X481787D02*
D03*
X483362Y419386D02*
D03*
X484937Y415842D02*
D03*
X486512Y419386D02*
D03*
X488087Y415842D02*
D03*
X489661Y419386D02*
D03*
X491236Y415842D02*
D03*
X492811Y419386D02*
D03*
X494386Y415842D02*
D03*
X495961Y419386D02*
D03*
X497535Y415842D02*
D03*
X499110Y419386D02*
D03*
X500685Y415842D02*
D03*
X503835D02*
D03*
X506984D02*
D03*
X510134D02*
D03*
X483362Y441827D02*
D03*
X486512D02*
D03*
X489661D02*
D03*
X492811D02*
D03*
X495961D02*
D03*
X499110D02*
D03*
D67*
X335488Y382453D02*
D03*
Y380484D02*
D03*
Y378516D02*
D03*
Y376547D02*
D03*
X346512D02*
D03*
Y378516D02*
D03*
Y380484D02*
D03*
Y382453D02*
D03*
D68*
X338047Y373988D02*
D03*
X340016D02*
D03*
X341984D02*
D03*
X343953D02*
D03*
Y385012D02*
D03*
X341984D02*
D03*
X340016D02*
D03*
X338047D02*
D03*
D69*
X341000Y379500D02*
D03*
D70*
X455000Y406000D02*
D03*
Y417000D02*
D03*
X390000Y426000D02*
D03*
Y415000D02*
D03*
X375000Y426000D02*
D03*
Y415000D02*
D03*
X301000Y406000D02*
D03*
Y395000D02*
D03*
X321000Y426000D02*
D03*
Y415000D02*
D03*
X340000Y426000D02*
D03*
Y415000D02*
D03*
X358000Y426000D02*
D03*
Y415000D02*
D03*
D71*
X428460Y381531D02*
Y387950D01*
X426500Y389910D02*
X428460Y387950D01*
X421500Y380000D02*
X426929D01*
X411815D02*
X421500D01*
X374500Y382362D02*
X396357D01*
X406653Y372066D01*
X409591Y340409D02*
Y369944D01*
X412252Y369937D02*
X430567D01*
X431000Y369500D02*
X435685D01*
X426500Y389910D02*
Y398552D01*
X255165Y425835D02*
X266000Y415000D01*
X292000D01*
X255031Y397031D02*
Y425249D01*
X398701Y469272D02*
X449909D01*
X453819Y465362D01*
X355000Y383500D02*
X361768D01*
X344086Y430000D02*
X353914D01*
X427000Y432586D02*
X431817Y427769D01*
X455917D01*
X427000Y432586D02*
Y450751D01*
X437907Y461658D01*
X450115D01*
X453819Y465362D01*
X504500Y401051D02*
X510370Y395181D01*
X504500Y401051D02*
Y407500D01*
X609339Y416158D02*
X615000Y421819D01*
X609339Y435684D02*
Y438823D01*
Y413020D02*
Y416158D01*
Y435684D02*
X615000Y430023D01*
Y425921D02*
Y430023D01*
Y421819D02*
Y425921D01*
X595000Y420000D02*
X605000D01*
X574622Y400000D02*
X585000D01*
X445681Y342500D02*
X456000Y352819D01*
X485500Y319000D02*
X516500D01*
X462000Y342500D02*
X485500Y319000D01*
X445681Y342500D02*
X462000D01*
X443181Y340000D02*
X445681Y342500D01*
X541000Y343500D02*
Y366378D01*
X546622Y372000D01*
X516500Y319000D02*
X541000Y343500D01*
X546622Y372000D02*
X574622Y400000D01*
X496153Y362807D02*
Y371020D01*
X491142Y357795D02*
X496153Y362807D01*
X523000Y372000D02*
Y390819D01*
X521000Y392819D02*
X523000Y390819D01*
X499000Y372685D02*
X522315D01*
X420000Y340000D02*
X443181D01*
X363000Y382268D02*
X374406D01*
X459035Y366673D02*
X468173D01*
X458347Y356846D02*
X468173Y366673D01*
X456209Y369500D02*
X459035Y366673D01*
X468173D02*
X478000Y376500D01*
Y382000D01*
X435685Y369500D02*
X445185D01*
X435685Y364866D02*
X445370Y355181D01*
X435685Y364866D02*
Y369500D01*
X478000Y382000D02*
X497685D01*
X456181Y465362D02*
X467118Y454425D01*
X455000Y417000D02*
Y426685D01*
X304500Y409500D02*
X317500Y422500D01*
X325086Y430000D02*
X335914D01*
X304000Y449126D02*
X309874Y455000D01*
X320126D02*
X327000Y448126D01*
X309874Y455000D02*
X320126D01*
X292000Y415000D02*
X301000Y406000D01*
X255063Y425835D02*
Y454835D01*
X295535D02*
X304000Y463299D01*
X262937Y454835D02*
X295535D01*
X327000Y462299D02*
X338571Y450728D01*
X370079D01*
D72*
X491142Y332205D02*
Y357795D01*
D73*
X255063Y454835D02*
D03*
Y425835D02*
D03*
X538748Y372000D02*
D03*
X530874D02*
D03*
X546622D02*
D03*
X255000Y397000D02*
D03*
X538000Y468000D02*
D03*
D74*
X262937Y454835D02*
D03*
Y425835D02*
D03*
X523000Y372000D02*
D03*
X262874Y397000D02*
D03*
X530126Y468000D02*
D03*
D75*
X370079Y458602D02*
D03*
X379921D02*
D03*
Y450728D02*
D03*
D76*
X370079D02*
D03*
D77*
X351299Y469272D02*
D03*
X398701D02*
D03*
D78*
X400000Y340000D02*
D03*
D79*
X410000D02*
D03*
X420000D02*
D03*
D80*
X421500Y380000D02*
D03*
X332000Y404500D02*
D03*
X355000Y383500D02*
D03*
X338000Y366500D02*
D03*
X340000Y442000D02*
D03*
X320500Y387500D02*
D03*
X344500Y400500D02*
D03*
X351000Y420500D02*
D03*
X346500Y366000D02*
D03*
X363000Y358500D02*
D03*
X329000Y369000D02*
D03*
X504500Y407500D02*
D03*
X522333Y413177D02*
D03*
X438000Y420000D02*
D03*
X489500Y407000D02*
D03*
X390000Y400000D02*
D03*
X535000Y417000D02*
D03*
X595000Y420000D02*
D03*
X615000Y425921D02*
D03*
X590000Y425000D02*
D03*
X585000Y400000D02*
D03*
X496308Y434692D02*
D03*
X545000Y451000D02*
D03*
X551500Y447000D02*
D03*
X519459Y421500D02*
D03*
X483459Y427500D02*
D03*
X497500Y427000D02*
D03*
X375000Y404500D02*
D03*
X500000Y450000D02*
D03*
X570000Y420000D02*
D03*
D81*
X341000Y379500D02*
D03*
X342969Y377532D02*
D03*
Y381469D02*
D03*
X339032D02*
D03*
Y377532D02*
D03*
M02*
