G04*
G04 #@! TF.GenerationSoftware,Altium Limited,Altium Designer,21.2.0 (30)*
G04*
G04 Layer_Physical_Order=1*
G04 Layer_Color=255*
%FSLAX25Y25*%
%MOIN*%
G70*
G04*
G04 #@! TF.SameCoordinates,1891EFD9-0032-4EA4-A798-630DAF25FF75*
G04*
G04*
G04 #@! TF.FilePolarity,Positive*
G04*
G01*
G75*
%ADD11C,0.00787*%
%ADD12C,0.01000*%
%ADD13C,0.00500*%
%ADD14C,0.00800*%
%ADD15C,0.00630*%
%ADD16C,0.00394*%
%ADD17C,0.00197*%
%ADD38R,0.03150X0.03150*%
%ADD39R,0.06693X0.09843*%
%ADD45C,0.06063*%
%ADD46R,0.06063X0.06063*%
%ADD51R,0.04331X0.05906*%
%ADD52R,0.07874X0.03937*%
%ADD53R,0.08661X0.06102*%
%ADD54R,0.12598X0.08268*%
%ADD55R,0.07677X0.04724*%
%ADD56R,0.06496X0.05906*%
%ADD57R,0.07362X0.06299*%
%ADD58R,0.16417X0.06102*%
G04:AMPARAMS|DCode=59|XSize=66.93mil|YSize=66.93mil|CornerRadius=2.01mil|HoleSize=0mil|Usage=FLASHONLY|Rotation=0.000|XOffset=0mil|YOffset=0mil|HoleType=Round|Shape=RoundedRectangle|*
%AMROUNDEDRECTD59*
21,1,0.06693,0.06291,0,0,0.0*
21,1,0.06291,0.06693,0,0,0.0*
1,1,0.00402,0.03146,-0.03146*
1,1,0.00402,-0.03146,-0.03146*
1,1,0.00402,-0.03146,0.03146*
1,1,0.00402,0.03146,0.03146*
%
%ADD59ROUNDEDRECTD59*%
G04:AMPARAMS|DCode=60|XSize=9.84mil|YSize=23.62mil|CornerRadius=1.97mil|HoleSize=0mil|Usage=FLASHONLY|Rotation=0.000|XOffset=0mil|YOffset=0mil|HoleType=Round|Shape=RoundedRectangle|*
%AMROUNDEDRECTD60*
21,1,0.00984,0.01968,0,0,0.0*
21,1,0.00591,0.02362,0,0,0.0*
1,1,0.00394,0.00295,-0.00984*
1,1,0.00394,-0.00295,-0.00984*
1,1,0.00394,-0.00295,0.00984*
1,1,0.00394,0.00295,0.00984*
%
%ADD60ROUNDEDRECTD60*%
G04:AMPARAMS|DCode=61|XSize=9.84mil|YSize=23.62mil|CornerRadius=1.97mil|HoleSize=0mil|Usage=FLASHONLY|Rotation=90.000|XOffset=0mil|YOffset=0mil|HoleType=Round|Shape=RoundedRectangle|*
%AMROUNDEDRECTD61*
21,1,0.00984,0.01968,0,0,90.0*
21,1,0.00591,0.02362,0,0,90.0*
1,1,0.00394,0.00984,0.00295*
1,1,0.00394,0.00984,-0.00295*
1,1,0.00394,-0.00984,-0.00295*
1,1,0.00394,-0.00984,0.00295*
%
%ADD61ROUNDEDRECTD61*%
%ADD62R,0.01575X0.02362*%
%ADD63R,0.02362X0.01575*%
%ADD64R,0.06693X0.04331*%
%ADD65R,0.08000X0.06000*%
%ADD66R,0.02362X0.01575*%
%ADD67R,0.05906X0.09449*%
%ADD68R,0.05118X0.07480*%
%ADD69R,0.06000X0.08000*%
%ADD70R,0.01772X0.05906*%
%ADD71R,0.04331X0.06693*%
%ADD72C,0.01200*%
%ADD73C,0.05906*%
%ADD74R,0.05906X0.05906*%
%ADD75C,0.06693*%
%ADD76R,0.06693X0.06693*%
%ADD77O,0.08661X0.04331*%
%ADD78O,0.07087X0.04331*%
%ADD79C,0.05000*%
%ADD80C,0.01968*%
G36*
X429000Y0D02*
X0D01*
Y167000D01*
X221046D01*
X221243Y166500D01*
X221115Y166191D01*
Y151231D01*
X221274Y150848D01*
X221656Y150690D01*
X226078D01*
Y149156D01*
X227509D01*
Y150443D01*
X228009D01*
Y149156D01*
X229440D01*
Y150690D01*
X236470D01*
Y146506D01*
X236628Y146124D01*
X237011Y145965D01*
X243310D01*
X243693Y146124D01*
X243851Y146506D01*
Y150690D01*
X262338D01*
X262692Y150336D01*
X262692Y149595D01*
X262692Y149490D01*
X262676Y149362D01*
X262565Y149102D01*
X262305Y148991D01*
X262176Y148975D01*
X262071Y148975D01*
X259149D01*
Y146400D01*
X262049Y146400D01*
X262215Y146113D01*
X262049Y145825D01*
X259149D01*
Y143251D01*
X262049Y143251D01*
X262215Y142963D01*
X262049Y142676D01*
X259149D01*
Y140101D01*
X260327D01*
X260595Y139601D01*
X260544Y139526D01*
X259149D01*
Y136951D01*
X262049Y136951D01*
X262215Y136664D01*
X262049Y136377D01*
X259149D01*
Y133802D01*
X262049Y133802D01*
X262215Y133514D01*
X262049Y133227D01*
X259149D01*
Y130652D01*
X262049Y130652D01*
X262215Y130365D01*
X262049Y130077D01*
X259149D01*
Y127503D01*
X262511D01*
Y128652D01*
X262692Y129077D01*
X263011Y129077D01*
X266054D01*
Y129370D01*
X328076D01*
X328226Y128811D01*
X328621Y128127D01*
X329179Y127569D01*
X329863Y127174D01*
X330626Y126969D01*
X331416D01*
X332179Y127174D01*
X332863Y127569D01*
X333422Y128127D01*
X333817Y128811D01*
X334021Y129574D01*
Y130364D01*
X333817Y131127D01*
X333422Y131811D01*
X332863Y132370D01*
X332179Y132765D01*
X331416Y132969D01*
X330626D01*
X329863Y132765D01*
X329179Y132370D01*
X328621Y131811D01*
X328389Y131409D01*
X266054D01*
Y131652D01*
X264768D01*
X264543Y131697D01*
X264318Y131652D01*
X263154Y131652D01*
X262987Y131939D01*
X263154Y132227D01*
X266054D01*
Y134802D01*
X263154Y134802D01*
X262987Y135089D01*
X263154Y135377D01*
X266054D01*
Y135644D01*
X303224D01*
X303614Y135722D01*
X303945Y135943D01*
X304388Y136386D01*
X304488Y136287D01*
X305172Y135892D01*
X305935Y135687D01*
X306725D01*
X307488Y135892D01*
X308172Y136287D01*
X308730Y136845D01*
X309125Y137530D01*
X309330Y138293D01*
Y139082D01*
X309125Y139845D01*
X308730Y140530D01*
X308172Y141088D01*
X307488Y141483D01*
X306725Y141688D01*
X305935D01*
X305172Y141483D01*
X304488Y141088D01*
X303929Y140530D01*
X303534Y139845D01*
X303330Y139082D01*
Y138293D01*
X303347Y138229D01*
X302801Y137683D01*
X275177D01*
X275172Y138181D01*
X275562Y138259D01*
X275892Y138480D01*
X279081Y141668D01*
X296997D01*
X297034Y141530D01*
X297429Y140845D01*
X297988Y140287D01*
X298672Y139892D01*
X299435Y139688D01*
X300225D01*
X300988Y139892D01*
X301672Y140287D01*
X302230Y140845D01*
X302625Y141530D01*
X302830Y142292D01*
Y143082D01*
X302625Y143845D01*
X302230Y144529D01*
X301672Y145088D01*
X300988Y145483D01*
X300225Y145687D01*
X299435D01*
X298672Y145483D01*
X297988Y145088D01*
X297429Y144529D01*
X297034Y143845D01*
X296997Y143707D01*
X278856D01*
X278643Y144201D01*
X280362Y145920D01*
X282940D01*
X283330Y145998D01*
X283661Y146219D01*
X286386Y148945D01*
X286667Y148783D01*
X287545Y148547D01*
X288455D01*
X289333Y148783D01*
X290120Y149237D01*
X290763Y149880D01*
X291217Y150667D01*
X291453Y151545D01*
Y152455D01*
X291217Y153333D01*
X290763Y154120D01*
X290120Y154763D01*
X289333Y155218D01*
X288455Y155453D01*
X287545D01*
X286667Y155218D01*
X285880Y154763D01*
X285237Y154120D01*
X284783Y153333D01*
X284547Y152455D01*
Y151545D01*
X284783Y150667D01*
X284945Y150387D01*
X284041Y149483D01*
X283579Y149674D01*
Y155453D01*
X276673D01*
Y149845D01*
X274171Y147343D01*
X266054D01*
Y147400D01*
X262692Y147400D01*
X262511Y147825D01*
X262511Y148535D01*
X262511Y148641D01*
X262527Y148769D01*
X262638Y149029D01*
X262898Y149140D01*
X263026Y149156D01*
X263131Y149156D01*
X264123D01*
Y150443D01*
X264623D01*
Y149156D01*
X266054D01*
Y150690D01*
X270475D01*
X270858Y150848D01*
X271017Y151231D01*
Y166191D01*
X270889Y166500D01*
X271086Y167000D01*
X429000D01*
Y0D01*
D02*
G37*
%LPC*%
G36*
X213846Y160028D02*
X210250D01*
Y157612D01*
X213846D01*
Y160028D01*
D02*
G37*
G36*
X209750D02*
X206153D01*
Y157612D01*
X209750D01*
Y160028D01*
D02*
G37*
G36*
X213846Y157112D02*
X210250D01*
Y154697D01*
X213846D01*
Y157112D01*
D02*
G37*
G36*
X209750D02*
X206153D01*
Y154697D01*
X209750D01*
Y157112D01*
D02*
G37*
G36*
X127947Y153969D02*
X126032D01*
Y151530D01*
X130603D01*
X130544Y151976D01*
X130275Y152624D01*
X129848Y153181D01*
X129291Y153609D01*
X128643Y153877D01*
X127947Y153969D01*
D02*
G37*
G36*
X125532D02*
X123617D01*
X122921Y153877D01*
X122272Y153609D01*
X121716Y153181D01*
X121288Y152624D01*
X121020Y151976D01*
X120961Y151530D01*
X125532D01*
Y153969D01*
D02*
G37*
G36*
X62846Y155295D02*
X55154D01*
Y151122D01*
X21102D01*
X21102Y151122D01*
X20673Y151036D01*
X20309Y150793D01*
X20309Y150793D01*
X19804Y150287D01*
X14484D01*
Y143382D01*
X21390D01*
Y148701D01*
X21567Y148878D01*
X55154D01*
Y144453D01*
X62846D01*
Y155295D01*
D02*
G37*
G36*
X10518Y150287D02*
X10313D01*
Y147085D01*
X13516D01*
Y147289D01*
X13280Y148167D01*
X12826Y148955D01*
X12183Y149598D01*
X11396Y150052D01*
X10518Y150287D01*
D02*
G37*
G36*
X9813D02*
X9608D01*
X8730Y150052D01*
X7943Y149598D01*
X7300Y148955D01*
X6846Y148167D01*
X6610Y147289D01*
Y147085D01*
X9813D01*
Y150287D01*
D02*
G37*
G36*
X229440Y147400D02*
X228009D01*
Y146363D01*
X229440D01*
Y147400D01*
D02*
G37*
G36*
X227509D02*
X226078D01*
Y146363D01*
X227509D01*
Y147400D01*
D02*
G37*
G36*
X229440Y145863D02*
X228009D01*
Y144825D01*
X229440D01*
Y145863D01*
D02*
G37*
G36*
X227509D02*
X226078D01*
Y144825D01*
X227509D01*
Y145863D01*
D02*
G37*
G36*
X13516Y146585D02*
X10313D01*
Y143382D01*
X10518D01*
X11396Y143617D01*
X12183Y144072D01*
X12826Y144715D01*
X13280Y145502D01*
X13516Y146380D01*
Y146585D01*
D02*
G37*
G36*
X9813D02*
X6610D01*
Y146380D01*
X6846Y145502D01*
X7300Y144715D01*
X7943Y144072D01*
X8730Y143617D01*
X9608Y143382D01*
X9813D01*
Y146585D01*
D02*
G37*
G36*
X138183Y145504D02*
X137056D01*
Y143066D01*
X140839D01*
X140780Y143512D01*
X140512Y144160D01*
X140084Y144717D01*
X139528Y145144D01*
X138879Y145413D01*
X138183Y145504D01*
D02*
G37*
G36*
X114508D02*
X113380D01*
X112685Y145413D01*
X112036Y145144D01*
X111479Y144717D01*
X111052Y144160D01*
X110784Y143512D01*
X110725Y143066D01*
X114508D01*
Y145504D01*
D02*
G37*
G36*
X176232Y151539D02*
X170114D01*
Y143059D01*
X176232D01*
Y151539D01*
D02*
G37*
G36*
X229440Y144251D02*
X226078D01*
Y141676D01*
X229440D01*
Y144251D01*
D02*
G37*
G36*
X75126Y141122D02*
X75126Y141122D01*
X65000D01*
X65000Y141122D01*
X65000Y141122D01*
X64874D01*
X64445Y141036D01*
X64081Y140793D01*
X63838Y140429D01*
X63836Y140423D01*
X63225Y139812D01*
X62846Y139547D01*
Y139547D01*
X62846Y139547D01*
X55154D01*
Y128705D01*
X62846D01*
Y136260D01*
X65465Y138878D01*
X74661D01*
X78154Y135386D01*
Y127705D01*
X85847D01*
Y132980D01*
X92167D01*
X92204Y132842D01*
X92599Y132158D01*
X93158Y131599D01*
X93842Y131204D01*
X94605Y131000D01*
X95395D01*
X96158Y131204D01*
X96842Y131599D01*
X97401Y132158D01*
X97796Y132842D01*
X98000Y133605D01*
Y134395D01*
X97796Y135158D01*
X97401Y135842D01*
X96842Y136401D01*
X96158Y136796D01*
X95395Y137000D01*
X94605D01*
X93842Y136796D01*
X93158Y136401D01*
X92599Y135842D01*
X92204Y135158D01*
X92167Y135020D01*
X85847D01*
Y138547D01*
X78165D01*
X75919Y140793D01*
X75555Y141036D01*
X75126Y141122D01*
D02*
G37*
G36*
X116136Y145504D02*
X115008D01*
Y142816D01*
Y140127D01*
X116136D01*
X116832Y140219D01*
X117480Y140488D01*
X118037Y140915D01*
X118464Y141472D01*
X118733Y142120D01*
X118778Y142462D01*
X119278Y142429D01*
Y140347D01*
X120414D01*
Y143550D01*
X119278D01*
Y143203D01*
X118778Y143170D01*
X118733Y143512D01*
X118464Y144160D01*
X118037Y144717D01*
X117480Y145144D01*
X116832Y145413D01*
X116136Y145504D01*
D02*
G37*
G36*
X140839Y142566D02*
X137056D01*
Y140127D01*
X138183D01*
X138879Y140219D01*
X139528Y140488D01*
X140084Y140915D01*
X140512Y141472D01*
X140780Y142120D01*
X140839Y142566D01*
D02*
G37*
G36*
X85847Y154295D02*
X78154D01*
Y143453D01*
X85847D01*
Y146980D01*
X119278D01*
Y144050D01*
X120664D01*
Y143800D01*
X120914D01*
Y140347D01*
X124762D01*
Y124618D01*
X124840Y124228D01*
X125061Y123897D01*
X127500Y121458D01*
Y115900D01*
X136500D01*
Y122900D01*
X128942D01*
X126802Y125040D01*
Y140347D01*
X127321D01*
Y134059D01*
X127399Y133669D01*
X127620Y133338D01*
X140900Y120058D01*
Y114500D01*
X149900D01*
Y121500D01*
X142342D01*
X129360Y134481D01*
Y140347D01*
X130844D01*
X146612Y124579D01*
X146943Y124358D01*
X147333Y124280D01*
X151167D01*
X151204Y124142D01*
X151599Y123458D01*
X152158Y122899D01*
X152842Y122504D01*
X153605Y122300D01*
X154395D01*
X155158Y122504D01*
X155842Y122899D01*
X156401Y123458D01*
X156796Y124142D01*
X157000Y124905D01*
Y125695D01*
X156796Y126458D01*
X156401Y127142D01*
X155842Y127701D01*
X155158Y128096D01*
X154395Y128300D01*
X153605D01*
X152842Y128096D01*
X152158Y127701D01*
X151599Y127142D01*
X151204Y126458D01*
X151167Y126320D01*
X147755D01*
X134161Y139914D01*
X134444Y140338D01*
X134732Y140219D01*
X135428Y140127D01*
X136556D01*
Y142816D01*
Y145504D01*
X135428D01*
X134732Y145413D01*
X134083Y145144D01*
X133527Y144717D01*
X133099Y144160D01*
X132831Y143512D01*
X132786Y143170D01*
X132286Y143203D01*
Y147253D01*
X131534D01*
Y147414D01*
X131456Y147804D01*
X131235Y148135D01*
X130649Y148721D01*
X130319Y148942D01*
X130145Y148977D01*
X130060Y149092D01*
X129947Y149453D01*
X129949Y149511D01*
X130275Y149936D01*
X130544Y150584D01*
X130603Y151030D01*
X125782D01*
X120961D01*
X121020Y150584D01*
X121288Y149936D01*
X121608Y149520D01*
X121415Y149020D01*
X85847D01*
Y154295D01*
D02*
G37*
G36*
X114508Y142566D02*
X110725D01*
X110784Y142120D01*
X111052Y141472D01*
X111479Y140915D01*
X112036Y140488D01*
X112685Y140219D01*
X113380Y140127D01*
X114508D01*
Y142566D01*
D02*
G37*
G36*
X396181Y144791D02*
X386520D01*
Y137689D01*
X396181D01*
Y144791D01*
D02*
G37*
G36*
X330236D02*
X312819D01*
Y137689D01*
X330236D01*
Y144791D01*
D02*
G37*
G36*
X197886Y151539D02*
X191768D01*
Y143059D01*
X197886D01*
Y145713D01*
X206153D01*
Y144067D01*
X208980D01*
Y140138D01*
X209058Y139748D01*
X209279Y139417D01*
X214727Y133969D01*
Y132980D01*
X208595D01*
X206154Y135422D01*
X205823Y135643D01*
X205433Y135720D01*
X197886D01*
Y138941D01*
X191768D01*
Y130461D01*
X197886D01*
Y133681D01*
X205011D01*
X207154Y131538D01*
Y127650D01*
X212827D01*
Y127634D01*
X212905Y127244D01*
X213125Y126913D01*
X230327Y109711D01*
X230326Y109675D01*
X230171Y109211D01*
X229031D01*
Y105849D01*
X231605D01*
Y107850D01*
X231611Y107860D01*
X232105Y108032D01*
X232180Y107938D01*
Y105849D01*
X234755D01*
Y107170D01*
X235255Y107437D01*
X235330Y107387D01*
Y105849D01*
X237905D01*
X237905Y108749D01*
X238192Y108915D01*
X238479Y108749D01*
Y105849D01*
X241054D01*
X241054Y108749D01*
X241342Y108915D01*
X241629Y108749D01*
Y105849D01*
X242067D01*
Y104856D01*
X240231Y103020D01*
X233953D01*
X233563Y102942D01*
X233232Y102721D01*
X229086Y98575D01*
X226378D01*
Y94425D01*
X230528D01*
Y97133D01*
X234375Y100980D01*
X240653D01*
X241043Y101058D01*
X241374Y101279D01*
X243808Y103713D01*
X244029Y104043D01*
X244106Y104434D01*
Y105849D01*
X244204D01*
X244204Y108749D01*
X244491Y108915D01*
X244779Y108749D01*
Y105849D01*
X247353D01*
X247353Y108749D01*
X247641Y108915D01*
X247928Y108749D01*
Y105849D01*
X249245D01*
X249437Y105387D01*
X247779Y103729D01*
X247558Y103398D01*
X247480Y103008D01*
Y100838D01*
X246980Y100704D01*
X246901Y100842D01*
X246342Y101401D01*
X245658Y101796D01*
X244895Y102000D01*
X244105D01*
X243342Y101796D01*
X242658Y101401D01*
X242099Y100842D01*
X241704Y100158D01*
X241500Y99395D01*
Y98605D01*
X241704Y97842D01*
X242099Y97158D01*
X242408Y96850D01*
X224058Y78500D01*
X218500D01*
Y70942D01*
X214015Y66457D01*
X212496D01*
Y66724D01*
X209453D01*
X208953Y66724D01*
X208634Y66724D01*
X205750D01*
Y61500D01*
Y56276D01*
X208634D01*
X208953Y56276D01*
X209453Y56276D01*
X212496D01*
Y57973D01*
X212958Y58165D01*
X213242Y57880D01*
X213242Y57880D01*
X213606Y57637D01*
X214036Y57552D01*
X219722D01*
X219913Y57090D01*
X212691Y49868D01*
X212565D01*
X212457Y49846D01*
X208335D01*
Y44868D01*
X208198Y44664D01*
X208113Y44235D01*
Y40699D01*
X202707Y35293D01*
X202707Y35293D01*
X192535Y25122D01*
X163176D01*
X158291Y30007D01*
X158584Y30515D01*
X158846Y31494D01*
Y32506D01*
X158584Y33485D01*
X158078Y34362D01*
X157362Y35078D01*
X156485Y35584D01*
X156122Y35682D01*
Y41863D01*
X157793Y43534D01*
X157793Y43534D01*
X158036Y43898D01*
X158122Y44327D01*
X158122Y44327D01*
Y52195D01*
X158158Y52204D01*
X158842Y52599D01*
X159401Y53158D01*
X159796Y53842D01*
X160000Y54605D01*
Y55395D01*
X159796Y56158D01*
X159401Y56842D01*
X158842Y57401D01*
X158158Y57796D01*
X157395Y58000D01*
X156605D01*
X155842Y57796D01*
X155158Y57401D01*
X154599Y56842D01*
X154204Y56158D01*
X154000Y55395D01*
Y54605D01*
X154204Y53842D01*
X154599Y53158D01*
X155158Y52599D01*
X155842Y52204D01*
X155878Y52195D01*
Y44792D01*
X154207Y43120D01*
X153964Y42756D01*
X153878Y42327D01*
X153878Y42327D01*
Y35682D01*
X153515Y35584D01*
X152638Y35078D01*
X151922Y34362D01*
X151416Y33485D01*
X151291Y33020D01*
X148741D01*
X148351Y32942D01*
X148020Y32721D01*
X146318Y31020D01*
X130028D01*
Y32075D01*
X125878D01*
Y27925D01*
X126933D01*
Y27375D01*
X110633Y11075D01*
X107925D01*
Y6925D01*
X112075D01*
Y9633D01*
X128674Y26232D01*
X128895Y26563D01*
X128972Y26953D01*
Y27925D01*
X130028D01*
Y28980D01*
X146741D01*
X147131Y29058D01*
X147462Y29279D01*
X149163Y30980D01*
X151291D01*
X151416Y30515D01*
X151922Y29638D01*
X152638Y28922D01*
X153515Y28416D01*
X154494Y28154D01*
X155506D01*
X156485Y28416D01*
X156993Y28709D01*
X161922Y23780D01*
X161964Y23571D01*
X162207Y23207D01*
X162571Y22964D01*
X163000Y22878D01*
X193000D01*
X193000Y22878D01*
X193429Y22964D01*
X193793Y23207D01*
X204169Y33582D01*
X216332D01*
X239707Y10207D01*
X239707Y10207D01*
X240071Y9964D01*
X240500Y9878D01*
X240500Y9878D01*
X271500D01*
X271500Y9878D01*
X271929Y9964D01*
X272293Y10207D01*
X296793Y34707D01*
X296793Y34707D01*
X297036Y35071D01*
X297122Y35500D01*
Y57913D01*
X300100Y60892D01*
X300289Y60783D01*
X301167Y60547D01*
X302077D01*
X302955Y60783D01*
X303742Y61237D01*
X304385Y61880D01*
X304839Y62667D01*
X304896Y62878D01*
X323486D01*
X326878Y59486D01*
Y40000D01*
X326878Y40000D01*
X326964Y39571D01*
X327207Y39207D01*
X331207Y35207D01*
X331207Y35207D01*
X331571Y34964D01*
X332000Y34878D01*
X332000Y34878D01*
X345000D01*
X345000Y34878D01*
X345429Y34964D01*
X345547Y35043D01*
X346047Y34775D01*
Y28437D01*
X351378D01*
Y35342D01*
X346636D01*
X346429Y35842D01*
X357772Y47186D01*
X357772Y47186D01*
X358015Y47549D01*
X358100Y47979D01*
X358100Y47979D01*
Y63372D01*
X374326Y79598D01*
X381417D01*
Y85323D01*
X372740D01*
Y81185D01*
X356186Y64630D01*
X355942Y64266D01*
X355857Y63837D01*
X355857Y63837D01*
Y48443D01*
X344862Y37448D01*
X344716Y37479D01*
X344254Y37634D01*
Y115351D01*
X344200Y115480D01*
X344502Y115980D01*
X360326D01*
X372740Y103566D01*
Y99283D01*
X381417D01*
Y105008D01*
X374182D01*
X361469Y117721D01*
X361138Y117942D01*
X360748Y118020D01*
X354058D01*
X353701Y118465D01*
Y125571D01*
X353542Y125954D01*
X353159Y126112D01*
X343711D01*
X343328Y125954D01*
X343169Y125571D01*
Y118465D01*
X342812Y118020D01*
X336261D01*
X330560Y123721D01*
X330229Y123942D01*
X329839Y124020D01*
X272000D01*
X271610Y123942D01*
X271279Y123721D01*
X270093Y122535D01*
X266454D01*
X266054Y122778D01*
X266054Y123035D01*
Y125353D01*
X262692Y125353D01*
X262511Y125778D01*
Y126928D01*
X259149D01*
Y125468D01*
X258687Y125277D01*
X257969Y125995D01*
Y139568D01*
X257891Y139958D01*
X257670Y140289D01*
X257554Y140405D01*
X257625Y140530D01*
X257830Y141293D01*
Y142082D01*
X257625Y142845D01*
X257230Y143529D01*
X256672Y144088D01*
X255988Y144483D01*
X255225Y144687D01*
X254435D01*
X253672Y144483D01*
X252988Y144088D01*
X252429Y143529D01*
X252034Y142845D01*
X251830Y142082D01*
Y141293D01*
X252034Y140530D01*
X252429Y139845D01*
X252988Y139287D01*
X253672Y138892D01*
X254435Y138688D01*
X255225D01*
X255533Y138770D01*
X255930Y138466D01*
Y125572D01*
X256007Y125182D01*
X256228Y124851D01*
X258348Y122732D01*
X258679Y122511D01*
X259047Y122438D01*
X259149Y122336D01*
Y121203D01*
X262049Y121203D01*
X262215Y120916D01*
X262049Y120628D01*
X259149D01*
Y120361D01*
X258598D01*
X253861Y125098D01*
X253933Y125222D01*
X254138Y125985D01*
Y126775D01*
X253933Y127538D01*
X253538Y128222D01*
X252980Y128780D01*
X252296Y129175D01*
X251533Y129380D01*
X250743D01*
X249980Y129175D01*
X249295Y128780D01*
X248737Y128222D01*
X248342Y127538D01*
X248138Y126775D01*
Y125985D01*
X248342Y125222D01*
X248737Y124538D01*
X249295Y123979D01*
X249980Y123584D01*
X250743Y123380D01*
X251533D01*
X252296Y123584D01*
X252420Y123656D01*
X257455Y118620D01*
X257786Y118399D01*
X258176Y118322D01*
X259149D01*
Y118054D01*
X262049Y118054D01*
X262215Y117766D01*
X262049Y117479D01*
X259149D01*
Y117211D01*
X255519D01*
X255403Y117305D01*
X255165Y117676D01*
X255330Y118292D01*
Y119082D01*
X255125Y119845D01*
X254730Y120529D01*
X254172Y121088D01*
X253488Y121483D01*
X252725Y121687D01*
X251935D01*
X251172Y121483D01*
X250488Y121088D01*
X249929Y120529D01*
X249534Y119845D01*
X249330Y119082D01*
Y118292D01*
X249534Y117529D01*
X249929Y116845D01*
X250488Y116287D01*
X251172Y115892D01*
X251935Y115688D01*
X252725D01*
X253488Y115892D01*
X253612Y115963D01*
X254105Y115471D01*
X254436Y115250D01*
X254826Y115172D01*
X259149D01*
Y114904D01*
X262511Y114904D01*
X262692Y114479D01*
Y113329D01*
X266054D01*
Y113597D01*
X271277D01*
X271289Y113582D01*
Y112793D01*
X271337Y112613D01*
X270902Y112302D01*
X270742Y112409D01*
X270352Y112487D01*
X266054D01*
Y112754D01*
X262692D01*
Y110180D01*
X266054D01*
Y110448D01*
X269930D01*
X274365Y106012D01*
X274163Y105260D01*
Y104470D01*
X274368Y103707D01*
X274763Y103023D01*
X275321Y102464D01*
X276005Y102069D01*
X276768Y101865D01*
X277558D01*
X278321Y102069D01*
X279005Y102464D01*
X279564Y103023D01*
X279959Y103707D01*
X280163Y104470D01*
Y105260D01*
X279959Y106023D01*
X279564Y106707D01*
X279005Y107265D01*
X278321Y107660D01*
X277558Y107865D01*
X276768D01*
X276005Y107660D01*
X275749Y107512D01*
X273481Y109781D01*
X273739Y110229D01*
X273894Y110187D01*
X274683D01*
X275447Y110392D01*
X276131Y110787D01*
X276689Y111345D01*
X277084Y112030D01*
X277289Y112793D01*
Y113582D01*
X277084Y114345D01*
X276689Y115030D01*
X276131Y115588D01*
X275447Y115983D01*
X274683Y116188D01*
X273894D01*
X273131Y115983D01*
X272446Y115588D01*
X272317Y115459D01*
X272167Y115559D01*
X271777Y115636D01*
X266054D01*
Y115904D01*
X263154Y115904D01*
X262987Y116191D01*
X263154Y116479D01*
X266054D01*
Y117059D01*
X319146D01*
X319204Y116842D01*
X319599Y116158D01*
X320158Y115599D01*
X320842Y115204D01*
X321605Y115000D01*
X322395D01*
X323158Y115204D01*
X323842Y115599D01*
X324401Y116158D01*
X324796Y116842D01*
X325000Y117605D01*
Y118395D01*
X324796Y119158D01*
X324401Y119842D01*
X323842Y120401D01*
X323158Y120796D01*
X322395Y121000D01*
X321605D01*
X320842Y120796D01*
X320158Y120401D01*
X319599Y119842D01*
X319204Y119158D01*
X319188Y119098D01*
X264543D01*
X264318Y119054D01*
X263154Y119054D01*
X262987Y119341D01*
X263154Y119629D01*
X266054D01*
Y120496D01*
X270516D01*
X270906Y120574D01*
X271237Y120795D01*
X272422Y121980D01*
X329416D01*
X335004Y116392D01*
X334861Y115946D01*
X334821Y115892D01*
X333870D01*
X333487Y115734D01*
X333329Y115351D01*
Y37634D01*
X333334Y37622D01*
X333000Y37122D01*
X332465D01*
X329121Y40465D01*
Y59951D01*
X329122Y59951D01*
X329036Y60380D01*
X328793Y60744D01*
X328793Y60744D01*
X324744Y64793D01*
X324380Y65036D01*
X323951Y65122D01*
X323951Y65122D01*
X304896D01*
X304839Y65333D01*
X304385Y66120D01*
X303742Y66763D01*
X302955Y67217D01*
X302077Y67453D01*
X301167D01*
X300289Y67217D01*
X299502Y66763D01*
X298859Y66120D01*
X298405Y65333D01*
X298169Y64455D01*
Y63545D01*
X298405Y62667D01*
X298514Y62478D01*
X295207Y59171D01*
X294964Y58807D01*
X294878Y58378D01*
X294879Y58378D01*
Y35965D01*
X271035Y12122D01*
X240965D01*
X217793Y35293D01*
X217429Y35536D01*
X217000Y35622D01*
X216571Y35536D01*
X216393Y35418D01*
X206657D01*
X206466Y35880D01*
X210028Y39442D01*
X210028Y39442D01*
X210271Y39805D01*
X210356Y40235D01*
X210356Y40235D01*
Y42154D01*
X213665D01*
Y47764D01*
X213949Y47953D01*
X223693Y57698D01*
X223966Y57880D01*
X233793Y67707D01*
X233793Y67707D01*
X234036Y68071D01*
X234122Y68500D01*
X234121Y68500D01*
Y69500D01*
X236500D01*
Y72878D01*
X250153D01*
Y72650D01*
X257846D01*
Y77980D01*
X255020D01*
Y105735D01*
X255133Y105849D01*
X256802D01*
Y109211D01*
X255652D01*
X255227Y109392D01*
X255227Y109711D01*
Y112754D01*
X252653D01*
X252653Y109854D01*
X252365Y109688D01*
X252078Y109854D01*
Y112754D01*
X249503D01*
X249503Y109854D01*
X249216Y109688D01*
X248928Y109854D01*
Y112754D01*
X248660D01*
Y113876D01*
X248583Y114267D01*
X248362Y114597D01*
X243051Y119908D01*
X242720Y120130D01*
X242330Y120207D01*
X241121D01*
X241084Y120345D01*
X240689Y121029D01*
X240131Y121588D01*
X239446Y121983D01*
X238684Y122187D01*
X237894D01*
X237131Y121983D01*
X236446Y121588D01*
X235888Y121029D01*
X235493Y120345D01*
X235289Y119582D01*
Y118792D01*
X235493Y118029D01*
X235888Y117345D01*
X236446Y116787D01*
X237131Y116392D01*
X237894Y116188D01*
X238684D01*
X239446Y116392D01*
X240131Y116787D01*
X240689Y117345D01*
X241084Y118029D01*
X241121Y118168D01*
X241907D01*
X246621Y113454D01*
Y112754D01*
X246353D01*
X246353Y109854D01*
X246066Y109688D01*
X245779Y109854D01*
Y112754D01*
X243204D01*
X243204Y109854D01*
X242916Y109688D01*
X242629Y109854D01*
Y112754D01*
X240054D01*
X240054Y109854D01*
X239767Y109688D01*
X239479Y109854D01*
Y112754D01*
X236905D01*
Y109785D01*
X236405Y109578D01*
X235620Y110363D01*
Y110551D01*
X235542Y110941D01*
X235321Y111272D01*
X227426Y119167D01*
X227617Y119629D01*
X229440D01*
Y120778D01*
X229621Y121203D01*
X229940Y121203D01*
X232983D01*
Y123778D01*
X230083Y123778D01*
X229917Y124065D01*
X230083Y124353D01*
X232983D01*
Y126928D01*
X230083Y126928D01*
X229917Y127215D01*
X230083Y127503D01*
X232983D01*
Y130077D01*
X230083Y130077D01*
X229917Y130365D01*
X230083Y130652D01*
X232983D01*
Y133227D01*
X230083Y133227D01*
X229917Y133514D01*
X230083Y133802D01*
X232983D01*
Y136377D01*
X229621Y136377D01*
X229440Y136802D01*
Y137951D01*
X226078D01*
Y135377D01*
X228978Y135377D01*
X229144Y135089D01*
X228978Y134802D01*
X226078D01*
Y132227D01*
X228978Y132227D01*
X229144Y131939D01*
X228978Y131652D01*
X226078D01*
Y129077D01*
X228978Y129077D01*
X229144Y128790D01*
X228978Y128503D01*
X226078D01*
Y125928D01*
X228978Y125928D01*
X229144Y125640D01*
X228978Y125353D01*
X226078D01*
Y122778D01*
X228978Y122778D01*
X229144Y122491D01*
X228978Y122203D01*
X226078D01*
Y121168D01*
X225616Y120977D01*
X216766Y129827D01*
Y134392D01*
X216688Y134782D01*
X216467Y135113D01*
X211020Y140560D01*
Y144067D01*
X213846D01*
Y149398D01*
X206153D01*
Y147752D01*
X197886D01*
Y151539D01*
D02*
G37*
G36*
X255227Y135195D02*
X252653D01*
Y131833D01*
X255227D01*
Y135195D01*
D02*
G37*
G36*
X252078D02*
X249503D01*
Y131833D01*
X252078D01*
Y135195D01*
D02*
G37*
G36*
X248928D02*
X246353D01*
Y131833D01*
X248928D01*
Y135195D01*
D02*
G37*
G36*
X245779D02*
X243204D01*
Y131833D01*
X245779D01*
Y135195D01*
D02*
G37*
G36*
X242629D02*
X240054D01*
Y131833D01*
X242629D01*
Y135195D01*
D02*
G37*
G36*
X239479D02*
X236905D01*
Y131833D01*
X239479D01*
Y135195D01*
D02*
G37*
G36*
X176232Y138941D02*
X170114D01*
Y130461D01*
X176232D01*
Y138941D01*
D02*
G37*
G36*
X416575Y136406D02*
X402976D01*
Y127138D01*
X416575D01*
Y136406D01*
D02*
G37*
G36*
X424147Y136447D02*
X418045D01*
X417662Y136288D01*
X417504Y135906D01*
Y127638D01*
X417662Y127255D01*
X418045Y127097D01*
X424147D01*
X424530Y127255D01*
X424689Y127638D01*
Y135906D01*
X424530Y136288D01*
X424147Y136447D01*
D02*
G37*
G36*
X214846Y122350D02*
X211250D01*
Y119935D01*
X214846D01*
Y122350D01*
D02*
G37*
G36*
X210750D02*
X207154D01*
Y119935D01*
X210750D01*
Y122350D01*
D02*
G37*
G36*
X381417Y124693D02*
X372740D01*
Y118969D01*
X381417D01*
Y124693D01*
D02*
G37*
G36*
X117500Y121500D02*
X113250D01*
Y118250D01*
X117500D01*
Y121500D01*
D02*
G37*
G36*
X99500D02*
X95250D01*
Y118250D01*
X99500D01*
Y121500D01*
D02*
G37*
G36*
X80500D02*
X76250D01*
Y118250D01*
X80500D01*
Y121500D01*
D02*
G37*
G36*
X75750D02*
X71500D01*
Y118250D01*
X75750D01*
Y121500D01*
D02*
G37*
G36*
X112750D02*
X108500D01*
Y118250D01*
X112750D01*
Y121500D01*
D02*
G37*
G36*
X94750D02*
X90500D01*
Y118250D01*
X94750D01*
Y121500D01*
D02*
G37*
G36*
X10518Y121287D02*
X10313D01*
Y118085D01*
X13516D01*
Y118289D01*
X13280Y119167D01*
X12826Y119955D01*
X12183Y120598D01*
X11396Y121052D01*
X10518Y121287D01*
D02*
G37*
G36*
X9813D02*
X9608D01*
X8730Y121052D01*
X7943Y120598D01*
X7300Y119955D01*
X6846Y119167D01*
X6610Y118289D01*
Y118085D01*
X9813D01*
Y121287D01*
D02*
G37*
G36*
X214846Y119435D02*
X211250D01*
Y117020D01*
X214846D01*
Y119435D01*
D02*
G37*
G36*
X210750D02*
X207154D01*
Y117020D01*
X210750D01*
Y119435D01*
D02*
G37*
G36*
X112750Y117750D02*
X108500D01*
Y114950D01*
X108000Y114743D01*
X107842Y114901D01*
X107158Y115296D01*
X106395Y115500D01*
X105605D01*
X104842Y115296D01*
X104158Y114901D01*
X103599Y114342D01*
X103204Y113658D01*
X103000Y112895D01*
Y112105D01*
X103204Y111342D01*
X103599Y110658D01*
X104158Y110099D01*
X104842Y109704D01*
X104980Y109667D01*
Y99792D01*
X103779Y98591D01*
X103558Y98260D01*
X103480Y97870D01*
Y82837D01*
X101737Y81094D01*
X100676D01*
X100325Y81024D01*
X100027Y80825D01*
X98396Y79194D01*
X98197Y78896D01*
X98176Y78791D01*
X98090Y78727D01*
X97662Y78593D01*
X97624Y78604D01*
X97551Y78653D01*
X97280Y78707D01*
X97234D01*
Y77012D01*
X96734D01*
Y78707D01*
X96689D01*
X96417Y78653D01*
X96354Y78610D01*
X95863Y78755D01*
X95807Y78800D01*
X95795Y78859D01*
X95596Y79157D01*
X92918Y81836D01*
Y103500D01*
X99500D01*
Y110500D01*
X90500D01*
Y103500D01*
X91082D01*
Y81655D01*
X90588Y81442D01*
X77020Y95010D01*
Y103500D01*
X80500D01*
Y110500D01*
X71500D01*
Y103500D01*
X74980D01*
Y94732D01*
X75058Y94342D01*
X75279Y94011D01*
X75610Y93790D01*
X75653Y93782D01*
X92028Y77407D01*
Y77012D01*
X92041Y76942D01*
Y76028D01*
X92092Y75774D01*
X92036Y75697D01*
X91803Y75463D01*
X91726Y75408D01*
X91472Y75459D01*
X90091D01*
X89418Y76132D01*
Y77073D01*
X89442Y77110D01*
X89520Y77500D01*
X89442Y77890D01*
X89221Y78221D01*
X74221Y93221D01*
X73890Y93442D01*
X73500Y93520D01*
X21374D01*
X20984Y93442D01*
X20653Y93221D01*
X19885Y92453D01*
X14421D01*
Y85547D01*
X21327D01*
Y91011D01*
X21796Y91480D01*
X73078D01*
X87582Y76976D01*
Y75752D01*
X87652Y75401D01*
X87851Y75103D01*
X88793Y74161D01*
Y74158D01*
X88844Y73902D01*
X88847Y73884D01*
X88569Y73402D01*
X87024D01*
X80705Y79721D01*
X80374Y79942D01*
X79984Y80020D01*
X78467D01*
X78296Y80658D01*
X77901Y81342D01*
X77342Y81901D01*
X76658Y82296D01*
X75895Y82500D01*
X75105D01*
X74342Y82296D01*
X73658Y81901D01*
X73099Y81342D01*
X72704Y80658D01*
X72500Y79895D01*
Y79105D01*
X72704Y78342D01*
X73099Y77658D01*
X73658Y77099D01*
X74342Y76704D01*
X75105Y76500D01*
X75895D01*
X76418Y76640D01*
X83093Y69965D01*
X82886Y69465D01*
X75977D01*
X60500Y84942D01*
Y90500D01*
X51500D01*
Y83500D01*
X59058D01*
X74732Y67826D01*
X75063Y67605D01*
X75453Y67528D01*
X75843Y67605D01*
X75879Y67630D01*
X89181D01*
X89232Y67596D01*
X89504Y67541D01*
X91472D01*
X91726Y67592D01*
X91803Y67536D01*
X92036Y67303D01*
X92092Y67226D01*
X92041Y66972D01*
Y66160D01*
X92015Y66155D01*
X91717Y65956D01*
X87781Y62020D01*
X86833D01*
X86796Y62158D01*
X86401Y62842D01*
X85842Y63401D01*
X85158Y63796D01*
X84395Y64000D01*
X83605D01*
X82842Y63796D01*
X82158Y63401D01*
X81599Y62842D01*
X81204Y62158D01*
X81000Y61395D01*
Y60605D01*
X81204Y59842D01*
X81599Y59158D01*
X82158Y58599D01*
X82842Y58204D01*
X83605Y58000D01*
X84395D01*
X85158Y58204D01*
X85842Y58599D01*
X86401Y59158D01*
X86796Y59842D01*
X86833Y59980D01*
X88059D01*
X88449Y60058D01*
X88780Y60279D01*
X89001Y60610D01*
X89009Y60653D01*
X92667Y64310D01*
X92752Y64293D01*
X93343D01*
X93614Y64347D01*
X93845Y64502D01*
X94218D01*
X94449Y64347D01*
X94721Y64293D01*
X94766D01*
Y65988D01*
X95266D01*
Y64293D01*
X95311D01*
X95567Y64344D01*
X95584Y64347D01*
X96067Y64069D01*
Y48170D01*
X78779Y30882D01*
X78558Y30552D01*
X78480Y30161D01*
Y13500D01*
X73500D01*
Y4500D01*
X80500D01*
Y11401D01*
X80520Y11500D01*
Y29739D01*
X97705Y46925D01*
X97926Y47256D01*
X98004Y47646D01*
X97926Y48036D01*
X97902Y48072D01*
Y64069D01*
X98384Y64347D01*
X98402Y64344D01*
X98658Y64293D01*
X98703D01*
Y65988D01*
X98953D01*
Y66238D01*
X99958D01*
Y66972D01*
X99908Y67226D01*
X99963Y67303D01*
X100197Y67536D01*
X100274Y67592D01*
X100528Y67541D01*
X101220D01*
X105082Y63679D01*
Y43524D01*
X96058Y34500D01*
X90500D01*
Y25500D01*
X97500D01*
Y33058D01*
X106721Y42279D01*
X106942Y42610D01*
X107020Y43000D01*
X106942Y43390D01*
X106918Y43427D01*
Y64059D01*
X106848Y64410D01*
X106649Y64708D01*
X103190Y68167D01*
X103207Y68252D01*
Y68843D01*
X103156Y69098D01*
X103153Y69116D01*
X103431Y69598D01*
X109417D01*
X114154Y64861D01*
Y60972D01*
X116980D01*
Y53333D01*
X116842Y53296D01*
X116158Y52901D01*
X115599Y52342D01*
X115204Y51658D01*
X115000Y50895D01*
Y50105D01*
X115204Y49342D01*
X115599Y48658D01*
X116158Y48099D01*
X116842Y47704D01*
X117605Y47500D01*
X118395D01*
X119158Y47704D01*
X119842Y48099D01*
X120401Y48658D01*
X120796Y49342D01*
X121000Y50105D01*
Y50895D01*
X120796Y51658D01*
X120401Y52342D01*
X119842Y52901D01*
X119158Y53296D01*
X119020Y53333D01*
Y60972D01*
X121846D01*
Y62618D01*
X125654D01*
Y61067D01*
X132248D01*
X132346Y61047D01*
X132445Y61067D01*
X133346D01*
Y61968D01*
X133366Y62067D01*
X133346Y62165D01*
Y66398D01*
X125654D01*
Y64657D01*
X121846D01*
Y66303D01*
X115595D01*
X110662Y71237D01*
X110331Y71458D01*
X109941Y71535D01*
X109551Y71458D01*
X109514Y71433D01*
X103431D01*
X103153Y71916D01*
X103156Y71933D01*
X103207Y72189D01*
Y72780D01*
X103156Y73035D01*
X103153Y73053D01*
X103431Y73535D01*
X103453D01*
X103804Y73605D01*
X104102Y73804D01*
X104347Y74050D01*
X104390Y74058D01*
X104721Y74279D01*
X104942Y74610D01*
X105020Y75000D01*
Y77578D01*
X113721Y86279D01*
X113942Y86610D01*
X114020Y87000D01*
Y103500D01*
X117500D01*
Y110500D01*
X108887D01*
X108598Y111000D01*
X108796Y111342D01*
X109000Y112105D01*
Y112895D01*
X108796Y113658D01*
X108598Y114000D01*
X108887Y114500D01*
X112750D01*
Y117750D01*
D02*
G37*
G36*
X117500D02*
X113250D01*
Y114500D01*
X117500D01*
Y117750D01*
D02*
G37*
G36*
X99500D02*
X95250D01*
Y114500D01*
X99500D01*
Y117750D01*
D02*
G37*
G36*
X94750D02*
X90500D01*
Y114500D01*
X94750D01*
Y117750D01*
D02*
G37*
G36*
X80500D02*
X76250D01*
Y114500D01*
X80500D01*
Y117750D01*
D02*
G37*
G36*
X75750D02*
X71500D01*
Y114500D01*
X75750D01*
Y117750D01*
D02*
G37*
G36*
X21390Y121287D02*
X14484D01*
Y114382D01*
X21390D01*
Y121287D01*
D02*
G37*
G36*
X13516Y117585D02*
X10313D01*
Y114382D01*
X10518D01*
X11396Y114617D01*
X12183Y115072D01*
X12826Y115715D01*
X13280Y116502D01*
X13516Y117380D01*
Y117585D01*
D02*
G37*
G36*
X9813D02*
X6610D01*
Y117380D01*
X6846Y116502D01*
X7300Y115715D01*
X7943Y115072D01*
X8730Y114617D01*
X9608Y114382D01*
X9813D01*
Y117585D01*
D02*
G37*
G36*
X214500Y112500D02*
X210250D01*
Y109250D01*
X214500D01*
Y112500D01*
D02*
G37*
G36*
X209750D02*
X205500D01*
Y109250D01*
X209750D01*
Y112500D01*
D02*
G37*
G36*
X360395Y131000D02*
X359605D01*
X358842Y130796D01*
X358158Y130401D01*
X357599Y129842D01*
X357204Y129158D01*
X357000Y128395D01*
Y127605D01*
X357204Y126842D01*
X357599Y126158D01*
X358158Y125599D01*
X358842Y125204D01*
X359605Y125000D01*
X360395D01*
X360989Y125159D01*
X372740Y113409D01*
Y109126D01*
X381417D01*
Y114850D01*
X374182D01*
X362574Y126458D01*
X362796Y126842D01*
X363000Y127605D01*
Y128395D01*
X362796Y129158D01*
X362401Y129842D01*
X361842Y130401D01*
X361158Y130796D01*
X360395Y131000D01*
D02*
G37*
G36*
X266251Y109211D02*
X265214D01*
Y107780D01*
X266251D01*
Y109211D01*
D02*
G37*
G36*
X264714D02*
X263676D01*
Y107780D01*
X264714D01*
Y109211D01*
D02*
G37*
G36*
X228456D02*
X227418D01*
Y107780D01*
X228456D01*
Y109211D01*
D02*
G37*
G36*
X226918D02*
X225881D01*
Y107780D01*
X226918D01*
Y109211D01*
D02*
G37*
G36*
X266251Y107280D02*
X265214D01*
Y105849D01*
X266251D01*
Y107280D01*
D02*
G37*
G36*
X259952Y109211D02*
X257377D01*
Y105849D01*
X259952D01*
Y109211D01*
D02*
G37*
G36*
X228456Y107280D02*
X227418D01*
Y105849D01*
X228456D01*
Y107280D01*
D02*
G37*
G36*
X226918D02*
X225881D01*
Y105849D01*
X226918D01*
Y107280D01*
D02*
G37*
G36*
X214500Y108750D02*
X210250D01*
Y105500D01*
X214500D01*
Y108750D01*
D02*
G37*
G36*
X209750D02*
X205500D01*
Y105500D01*
X209750D01*
Y108750D01*
D02*
G37*
G36*
X60500Y101500D02*
X56250D01*
Y98250D01*
X60500D01*
Y101500D01*
D02*
G37*
G36*
X55750D02*
X51500D01*
Y98250D01*
X55750D01*
Y101500D01*
D02*
G37*
G36*
X60500Y97750D02*
X56250D01*
Y94500D01*
X60500D01*
Y97750D01*
D02*
G37*
G36*
X55750D02*
X51500D01*
Y94500D01*
X55750D01*
Y97750D01*
D02*
G37*
G36*
X214500Y101500D02*
X205500D01*
Y94500D01*
X214500D01*
Y95480D01*
X220472D01*
Y94425D01*
X224622D01*
Y98575D01*
X220472D01*
Y97520D01*
X214500D01*
Y101500D01*
D02*
G37*
G36*
X149900Y110500D02*
X140900D01*
Y103500D01*
X144380D01*
Y99333D01*
X144242Y99296D01*
X143558Y98901D01*
X142999Y98342D01*
X142604Y97658D01*
X142400Y96895D01*
Y96105D01*
X142604Y95342D01*
X142999Y94658D01*
X143558Y94099D01*
X144242Y93704D01*
X145005Y93500D01*
X145795D01*
X146558Y93704D01*
X147242Y94099D01*
X147801Y94658D01*
X148196Y95342D01*
X148400Y96105D01*
Y96895D01*
X148196Y97658D01*
X147801Y98342D01*
X147242Y98901D01*
X146558Y99296D01*
X146420Y99333D01*
Y103500D01*
X149900D01*
Y110500D01*
D02*
G37*
G36*
X381417Y95165D02*
X377329D01*
Y92553D01*
X381417D01*
Y95165D01*
D02*
G37*
G36*
X376829D02*
X372740D01*
Y92553D01*
X376829D01*
Y95165D01*
D02*
G37*
G36*
X136500Y111900D02*
X127500D01*
Y104900D01*
X130980D01*
Y96233D01*
X130842Y96196D01*
X130158Y95801D01*
X129599Y95242D01*
X129204Y94558D01*
X129000Y93795D01*
Y93005D01*
X129204Y92242D01*
X129599Y91558D01*
X130158Y90999D01*
X130842Y90604D01*
X131605Y90400D01*
X132395D01*
X133158Y90604D01*
X133842Y90999D01*
X134401Y91558D01*
X134796Y92242D01*
X135000Y93005D01*
Y93795D01*
X134796Y94558D01*
X134401Y95242D01*
X133842Y95801D01*
X133158Y96196D01*
X133020Y96233D01*
Y104900D01*
X136500D01*
Y111900D01*
D02*
G37*
G36*
X381417Y92053D02*
X377329D01*
Y89441D01*
X381417D01*
Y92053D01*
D02*
G37*
G36*
X376829D02*
X372740D01*
Y89441D01*
X376829D01*
Y92053D01*
D02*
G37*
G36*
X10455Y92453D02*
X10250D01*
Y89250D01*
X13453D01*
Y89455D01*
X13217Y90333D01*
X12763Y91120D01*
X12120Y91763D01*
X11333Y92217D01*
X10455Y92453D01*
D02*
G37*
G36*
X9750D02*
X9545D01*
X8667Y92217D01*
X7880Y91763D01*
X7237Y91120D01*
X6783Y90333D01*
X6547Y89455D01*
Y89250D01*
X9750D01*
Y92453D01*
D02*
G37*
G36*
X263101Y109211D02*
X260527D01*
Y105849D01*
X261103D01*
X261174Y105494D01*
X261395Y105163D01*
X264350Y102208D01*
Y89846D01*
X262705D01*
Y88014D01*
X261168D01*
X261122Y88060D01*
Y96972D01*
X261342Y97099D01*
X261901Y97658D01*
X262296Y98342D01*
X262500Y99105D01*
Y99895D01*
X262296Y100658D01*
X261901Y101342D01*
X261342Y101901D01*
X260658Y102296D01*
X259895Y102500D01*
X259105D01*
X258342Y102296D01*
X257658Y101901D01*
X257099Y101342D01*
X256704Y100658D01*
X256500Y99895D01*
Y99105D01*
X256704Y98342D01*
X257099Y97658D01*
X257658Y97099D01*
X258342Y96704D01*
X258878Y96561D01*
Y87595D01*
X258878Y87595D01*
X258964Y87166D01*
X259207Y86802D01*
X259910Y86099D01*
X259910Y86099D01*
X260274Y85856D01*
X260703Y85771D01*
X260703Y85771D01*
X262705D01*
Y82153D01*
X268035D01*
Y89846D01*
X266390D01*
Y102630D01*
X266312Y103020D01*
X266091Y103351D01*
X264093Y105349D01*
X264300Y105849D01*
X264714D01*
Y107280D01*
X263676D01*
Y107030D01*
X263176Y106763D01*
X263135Y106790D01*
Y107711D01*
X263101Y107882D01*
Y109211D01*
D02*
G37*
G36*
X278665Y89846D02*
X276250D01*
Y86250D01*
X278665D01*
Y89846D01*
D02*
G37*
G36*
X275750D02*
X273335D01*
Y86250D01*
X275750D01*
Y89846D01*
D02*
G37*
G36*
X13453Y88750D02*
X10250D01*
Y85547D01*
X10455D01*
X11333Y85783D01*
X12120Y86237D01*
X12763Y86880D01*
X13217Y87667D01*
X13453Y88545D01*
Y88750D01*
D02*
G37*
G36*
X9750D02*
X6547D01*
Y88545D01*
X6783Y87667D01*
X7237Y86880D01*
X7880Y86237D01*
X8667Y85783D01*
X9545Y85547D01*
X9750D01*
Y88750D01*
D02*
G37*
G36*
X278665Y85750D02*
X276250D01*
Y82153D01*
X278665D01*
Y85750D01*
D02*
G37*
G36*
X275750D02*
X273335D01*
Y82153D01*
X275750D01*
Y85750D01*
D02*
G37*
G36*
X133346Y77027D02*
X129750D01*
Y74612D01*
X133346D01*
Y77027D01*
D02*
G37*
G36*
X129250D02*
X125654D01*
Y74612D01*
X129250D01*
Y77027D01*
D02*
G37*
G36*
X121846Y76933D02*
X118250D01*
Y74518D01*
X121846D01*
Y76933D01*
D02*
G37*
G36*
X117750D02*
X114154D01*
Y74518D01*
X117750D01*
Y76933D01*
D02*
G37*
G36*
X185000Y95500D02*
X178000D01*
Y86500D01*
X180378D01*
Y81910D01*
X180378Y81910D01*
X180464Y81480D01*
X180707Y81116D01*
X182338Y79485D01*
Y75165D01*
X181154D01*
Y73122D01*
X177805D01*
X177796Y73158D01*
X177401Y73842D01*
X176842Y74401D01*
X176158Y74796D01*
X175395Y75000D01*
X174605D01*
X173842Y74796D01*
X173158Y74401D01*
X172599Y73842D01*
X172204Y73158D01*
X172195Y73122D01*
X168347D01*
Y75665D01*
X160653D01*
Y70335D01*
X168347D01*
Y70878D01*
X172195D01*
X172204Y70842D01*
X172599Y70158D01*
X173158Y69599D01*
X173842Y69204D01*
X174605Y69000D01*
X175395D01*
X176158Y69204D01*
X176842Y69599D01*
X177401Y70158D01*
X177796Y70842D01*
X177805Y70878D01*
X181154D01*
Y69835D01*
X188847D01*
Y75165D01*
X184581D01*
Y79950D01*
X184581Y79950D01*
X184496Y80379D01*
X184253Y80743D01*
X182622Y82374D01*
Y86500D01*
X185000D01*
Y95500D01*
D02*
G37*
G36*
X133346Y74112D02*
X129750D01*
Y71697D01*
X133346D01*
Y74112D01*
D02*
G37*
G36*
X129250D02*
X125654D01*
Y71697D01*
X129250D01*
Y74112D01*
D02*
G37*
G36*
X121846Y74018D02*
X118250D01*
Y71602D01*
X121846D01*
Y74018D01*
D02*
G37*
G36*
X117750D02*
X114154D01*
Y71602D01*
X117750D01*
Y74018D01*
D02*
G37*
G36*
X257846Y67350D02*
X254250D01*
Y64935D01*
X257846D01*
Y67350D01*
D02*
G37*
G36*
X253750D02*
X250153D01*
Y64935D01*
X253750D01*
Y67350D01*
D02*
G37*
G36*
X99958Y65738D02*
X99203D01*
Y64293D01*
X99248D01*
X99520Y64347D01*
X99750Y64502D01*
X99904Y64732D01*
X99958Y65004D01*
Y65738D01*
D02*
G37*
G36*
X281453Y67453D02*
X278250D01*
Y64250D01*
X281453D01*
Y67453D01*
D02*
G37*
G36*
X277750D02*
X274547D01*
Y64250D01*
X277750D01*
Y67453D01*
D02*
G37*
G36*
X381417Y75480D02*
X372740D01*
Y71198D01*
X365327Y63785D01*
X364434D01*
X364401Y63842D01*
X363842Y64401D01*
X363158Y64796D01*
X362395Y65000D01*
X361605D01*
X360842Y64796D01*
X360158Y64401D01*
X359599Y63842D01*
X359204Y63158D01*
X359000Y62395D01*
Y61605D01*
X359204Y60842D01*
X359599Y60158D01*
X360158Y59599D01*
X360842Y59204D01*
X361605Y59000D01*
X362395D01*
X363158Y59204D01*
X363842Y59599D01*
X364401Y60158D01*
X364796Y60842D01*
X365000Y61605D01*
Y61746D01*
X365749D01*
X366140Y61823D01*
X366470Y62044D01*
X374182Y69756D01*
X381417D01*
Y75480D01*
D02*
G37*
G36*
Y65638D02*
X377329D01*
Y63026D01*
X381417D01*
Y65638D01*
D02*
G37*
G36*
X376829D02*
X372740D01*
Y63026D01*
X376829D01*
Y65638D01*
D02*
G37*
G36*
X168347Y65035D02*
X164750D01*
Y62620D01*
X168347D01*
Y65035D01*
D02*
G37*
G36*
X164250D02*
X160653D01*
Y62620D01*
X164250D01*
Y65035D01*
D02*
G37*
G36*
X188847Y64535D02*
X185250D01*
Y62120D01*
X188847D01*
Y64535D01*
D02*
G37*
G36*
X184750D02*
X181154D01*
Y62120D01*
X184750D01*
Y64535D01*
D02*
G37*
G36*
X257846Y64435D02*
X254250D01*
Y62020D01*
X257846D01*
Y64435D01*
D02*
G37*
G36*
X253750D02*
X250153D01*
Y62020D01*
X253750D01*
Y64435D01*
D02*
G37*
G36*
X199935Y62787D02*
X198504D01*
Y61750D01*
X199935D01*
Y62787D01*
D02*
G37*
G36*
X294203Y67453D02*
X293293D01*
X292415Y67217D01*
X291628Y66763D01*
X290985Y66120D01*
X290530Y65333D01*
X290295Y64455D01*
Y63545D01*
X290530Y62667D01*
X290985Y61880D01*
X291628Y61237D01*
X292415Y60783D01*
X293293Y60547D01*
X294203D01*
X295081Y60783D01*
X295868Y61237D01*
X296511Y61880D01*
X296966Y62667D01*
X297201Y63545D01*
Y64455D01*
X296966Y65333D01*
X296511Y66120D01*
X295868Y66763D01*
X295081Y67217D01*
X294203Y67453D01*
D02*
G37*
G36*
X286329D02*
X285419D01*
X284541Y67217D01*
X283754Y66763D01*
X283111Y66120D01*
X282657Y65333D01*
X282421Y64455D01*
Y63545D01*
X282657Y62667D01*
X283111Y61880D01*
X283754Y61237D01*
X284541Y60783D01*
X285419Y60547D01*
X286329D01*
X287207Y60783D01*
X287994Y61237D01*
X288637Y61880D01*
X289091Y62667D01*
X289327Y63545D01*
Y64455D01*
X289091Y65333D01*
X288637Y66120D01*
X287994Y66763D01*
X287207Y67217D01*
X286329Y67453D01*
D02*
G37*
G36*
X281453Y63750D02*
X278250D01*
Y60547D01*
X281453D01*
Y63750D01*
D02*
G37*
G36*
X277750D02*
X274547D01*
Y60547D01*
X277750D01*
Y63750D01*
D02*
G37*
G36*
X199935Y61250D02*
X198504D01*
Y60213D01*
X199935D01*
Y61250D01*
D02*
G37*
G36*
X168347Y62120D02*
X164750D01*
Y59705D01*
X168347D01*
Y62120D01*
D02*
G37*
G36*
X164250D02*
X160653D01*
Y59705D01*
X164250D01*
Y62120D01*
D02*
G37*
G36*
X188847Y61620D02*
X185250D01*
Y59205D01*
X188847D01*
Y61620D01*
D02*
G37*
G36*
X184750D02*
X181154D01*
Y59205D01*
X184750D01*
Y61620D01*
D02*
G37*
G36*
X193395Y115500D02*
X192605D01*
X191842Y115296D01*
X191158Y114901D01*
X190599Y114342D01*
X190204Y113658D01*
X190000Y112895D01*
Y112105D01*
X190204Y111342D01*
X190599Y110658D01*
X191158Y110099D01*
X191842Y109704D01*
X191980Y109667D01*
Y95500D01*
X189000D01*
Y86500D01*
X191480D01*
Y72728D01*
X191558Y72338D01*
X191779Y72007D01*
X198504Y65282D01*
Y64150D01*
X201866Y64150D01*
X202047Y63725D01*
Y63212D01*
X201866Y62787D01*
X201547Y62787D01*
X200435D01*
Y61500D01*
Y60213D01*
X201866Y60213D01*
X202047Y59788D01*
Y59275D01*
X201866Y58850D01*
X201547Y58850D01*
X198504D01*
Y56276D01*
X201547D01*
X202047Y56276D01*
X202366Y56276D01*
X205250D01*
Y61500D01*
Y66724D01*
X202366D01*
X202047Y66724D01*
X201547Y66724D01*
X199946D01*
X193520Y73151D01*
Y86500D01*
X196000D01*
Y95500D01*
X194020D01*
Y109667D01*
X194158Y109704D01*
X194842Y110099D01*
X195401Y110658D01*
X195796Y111342D01*
X196000Y112105D01*
Y112895D01*
X195796Y113658D01*
X195401Y114342D01*
X194842Y114901D01*
X194158Y115296D01*
X193395Y115500D01*
D02*
G37*
G36*
X381417Y62526D02*
X377079D01*
X372740D01*
Y60232D01*
X372740Y59913D01*
X372740Y59413D01*
Y56028D01*
X369215D01*
X368842Y56401D01*
X368158Y56796D01*
X367395Y57000D01*
X366605D01*
X365842Y56796D01*
X365158Y56401D01*
X364599Y55842D01*
X364204Y55158D01*
X364000Y54395D01*
Y53605D01*
X364204Y52842D01*
X364599Y52158D01*
X365158Y51599D01*
X365842Y51204D01*
X366605Y51000D01*
X367395D01*
X368158Y51204D01*
X368842Y51599D01*
X369401Y52158D01*
X369796Y52842D01*
X370000Y53605D01*
Y53988D01*
X372307D01*
X372740Y53827D01*
X372740Y53488D01*
Y48102D01*
X381417D01*
Y53508D01*
X381417Y53827D01*
X381417Y54327D01*
Y59413D01*
X381417Y59732D01*
X381417Y60232D01*
Y62526D01*
D02*
G37*
G36*
X321181Y58650D02*
X312819D01*
Y51350D01*
X321181D01*
Y58650D01*
D02*
G37*
G36*
X246607Y53327D02*
X246392D01*
Y50045D01*
X249673D01*
Y50260D01*
X249433Y51158D01*
X248968Y51964D01*
X248310Y52621D01*
X247505Y53086D01*
X246607Y53327D01*
D02*
G37*
G36*
X245892D02*
X245677D01*
X244779Y53086D01*
X243973Y52621D01*
X243316Y51964D01*
X242851Y51158D01*
X242610Y50260D01*
Y50045D01*
X245892D01*
Y53327D01*
D02*
G37*
G36*
X249673Y49545D02*
X246392D01*
Y46264D01*
X246607D01*
X247505Y46504D01*
X248310Y46969D01*
X248968Y47627D01*
X249433Y48432D01*
X249673Y49330D01*
Y49545D01*
D02*
G37*
G36*
X245892D02*
X242610D01*
Y49330D01*
X242851Y48432D01*
X243316Y47627D01*
X243973Y46969D01*
X244779Y46504D01*
X245677Y46264D01*
X245892D01*
Y49545D01*
D02*
G37*
G36*
X203035Y49846D02*
X200620D01*
Y46250D01*
X203035D01*
Y49846D01*
D02*
G37*
G36*
X200120D02*
X197705D01*
Y46250D01*
X200120D01*
Y49846D01*
D02*
G37*
G36*
X203035Y45750D02*
X200620D01*
Y42154D01*
X203035D01*
Y45750D01*
D02*
G37*
G36*
X200120D02*
X197705D01*
Y42154D01*
X200120D01*
Y45750D01*
D02*
G37*
G36*
X416575Y42705D02*
X402976D01*
Y33437D01*
X416575D01*
Y42705D01*
D02*
G37*
G36*
X424146Y42748D02*
X418043D01*
X417661Y42589D01*
X417502Y42207D01*
Y33939D01*
X417661Y33556D01*
X418043Y33398D01*
X424146D01*
X424528Y33556D01*
X424687Y33939D01*
Y42207D01*
X424528Y42589D01*
X424146Y42748D01*
D02*
G37*
G36*
X165506Y35846D02*
X165250D01*
Y32250D01*
X168846D01*
Y32506D01*
X168584Y33485D01*
X168078Y34362D01*
X167362Y35078D01*
X166485Y35584D01*
X165506Y35846D01*
D02*
G37*
G36*
X164750D02*
X164494D01*
X163515Y35584D01*
X162638Y35078D01*
X161922Y34362D01*
X161416Y33485D01*
X161153Y32506D01*
Y32250D01*
X164750D01*
Y35846D01*
D02*
G37*
G36*
X397913Y41642D02*
X389039D01*
Y36705D01*
Y31980D01*
X397913D01*
Y36705D01*
Y41642D01*
D02*
G37*
G36*
X320315Y35342D02*
X312819D01*
Y28437D01*
X320315D01*
Y35342D01*
D02*
G37*
G36*
X178847Y35846D02*
X171153D01*
Y28154D01*
X178847D01*
Y35846D01*
D02*
G37*
G36*
X168846Y31750D02*
X165250D01*
Y28154D01*
X165506D01*
X166485Y28416D01*
X167362Y28922D01*
X168078Y29638D01*
X168584Y30515D01*
X168846Y31494D01*
Y31750D01*
D02*
G37*
G36*
X164750D02*
X161153D01*
Y31494D01*
X161416Y30515D01*
X161922Y29638D01*
X162638Y28922D01*
X163515Y28416D01*
X164494Y28154D01*
X164750D01*
Y31750D01*
D02*
G37*
G36*
X108500Y34500D02*
X101500D01*
Y25500D01*
X108500D01*
Y28980D01*
X119972D01*
Y27925D01*
X124122D01*
Y32075D01*
X119972D01*
Y31020D01*
X108500D01*
Y34500D01*
D02*
G37*
G36*
X249673Y27736D02*
X246392D01*
Y24455D01*
X249673D01*
Y27736D01*
D02*
G37*
G36*
X245892D02*
X242610D01*
Y24455D01*
X245892D01*
Y27736D01*
D02*
G37*
G36*
X264323Y53327D02*
X263393D01*
X262495Y53086D01*
X261690Y52621D01*
X261032Y51964D01*
X260567Y51158D01*
X260327Y50260D01*
Y49330D01*
X260567Y48432D01*
X261032Y47627D01*
X261690Y46969D01*
X262495Y46504D01*
X262839Y46412D01*
Y27588D01*
X262495Y27496D01*
X261690Y27031D01*
X261032Y26373D01*
X260567Y25568D01*
X260327Y24670D01*
Y23740D01*
X260567Y22842D01*
X261032Y22036D01*
X261690Y21379D01*
X262495Y20914D01*
X263393Y20673D01*
X264323D01*
X265221Y20914D01*
X266027Y21379D01*
X266684Y22036D01*
X267149Y22842D01*
X267390Y23740D01*
Y24670D01*
X267149Y25568D01*
X266684Y26373D01*
X266027Y27031D01*
X265221Y27496D01*
X264878Y27588D01*
Y46412D01*
X265221Y46504D01*
X266027Y46969D01*
X266684Y47627D01*
X267149Y48432D01*
X267390Y49330D01*
Y50260D01*
X267149Y51158D01*
X266684Y51964D01*
X266027Y52621D01*
X265221Y53086D01*
X264323Y53327D01*
D02*
G37*
G36*
X249673Y23955D02*
X246392D01*
Y20673D01*
X249673D01*
Y23955D01*
D02*
G37*
G36*
X245892D02*
X242610D01*
Y20673D01*
X245892D01*
Y23955D01*
D02*
G37*
G36*
X91500Y13500D02*
X84500D01*
Y4500D01*
X91500D01*
Y7980D01*
X102020D01*
Y6925D01*
X106169D01*
Y11075D01*
X102020D01*
Y10020D01*
X91500D01*
Y13500D01*
D02*
G37*
%LPD*%
G36*
X252980Y105340D02*
Y78484D01*
X252480Y78276D01*
X249520Y81237D01*
Y102586D01*
X252480Y105547D01*
X252980Y105340D01*
D02*
G37*
G36*
X247480Y97162D02*
Y80815D01*
X247558Y80425D01*
X247779Y80094D01*
X250153Y77719D01*
Y75122D01*
X236500D01*
Y78500D01*
X229500D01*
Y69500D01*
X231878D01*
Y68965D01*
X222709Y59795D01*
X214500D01*
X212496Y61799D01*
Y62787D01*
X209134Y62787D01*
X208953Y63212D01*
Y63725D01*
X209134Y64150D01*
X209453Y64150D01*
X212496D01*
Y64417D01*
X214437D01*
X214827Y64495D01*
X215158Y64716D01*
X219942Y69500D01*
X225500D01*
Y77058D01*
X244442Y96000D01*
X244895D01*
X245658Y96204D01*
X246342Y96599D01*
X246901Y97158D01*
X246980Y97296D01*
X247480Y97162D01*
D02*
G37*
G36*
X108500Y110050D02*
Y103500D01*
X111980D01*
Y87422D01*
X103279Y78721D01*
X103058Y78390D01*
X102980Y78000D01*
Y75833D01*
X102969Y75809D01*
X102496Y75459D01*
X102255D01*
X102185Y75472D01*
X101512D01*
X101442Y75459D01*
X100528D01*
X100274Y75408D01*
X100197Y75463D01*
X99963Y75697D01*
X99908Y75774D01*
X99958Y76028D01*
Y77084D01*
X99963Y77104D01*
Y78165D01*
X101056Y79258D01*
X102117D01*
X102468Y79328D01*
X102766Y79527D01*
X104847Y81608D01*
X104890Y81617D01*
X105221Y81838D01*
X105442Y82169D01*
X105520Y82559D01*
Y97448D01*
X106721Y98649D01*
X106942Y98980D01*
X107020Y99370D01*
Y109667D01*
X107158Y109704D01*
X107842Y110099D01*
X108000Y110257D01*
X108500Y110050D01*
D02*
G37*
D11*
X242618Y24618D02*
X267382D01*
Y49382D01*
X242618D02*
X267382D01*
X242618Y24618D02*
Y49382D01*
X222154Y98272D02*
X228846D01*
Y94728D02*
Y98272D01*
X222154Y94728D02*
X228846D01*
X222154D02*
Y98272D01*
X104291Y7228D02*
Y10772D01*
Y7228D02*
X109803D01*
Y10772D01*
X104291D02*
X109803D01*
X122244Y28228D02*
Y31772D01*
Y28228D02*
X127756D01*
Y31772D01*
X122244D02*
X127756D01*
X76252Y131945D02*
Y150055D01*
X87748D01*
Y131945D02*
Y150055D01*
X76252Y131945D02*
X87748D01*
X53252Y132945D02*
Y151055D01*
X64748D01*
Y132945D02*
Y151055D01*
X53252Y132945D02*
X64748D01*
X223822Y150443D02*
G03*
X223822Y150443I-394J0D01*
G01*
D12*
X361019Y126571D02*
X375602Y111988D01*
X76000Y79000D02*
X79984D01*
X93047Y77012D02*
Y77685D01*
X75750Y78750D02*
X83984Y70516D01*
X75500Y79500D02*
X76000Y79000D01*
X79984D02*
X86500Y72484D01*
X84000Y61000D02*
X88059D01*
X101512Y74453D02*
X102185D01*
X192500Y72728D02*
Y91000D01*
X193000Y91500D01*
X192500Y72728D02*
X199791Y65437D01*
X231057Y110424D02*
X232414D01*
X233000Y108874D02*
Y109838D01*
X234600Y109941D02*
X236698Y107842D01*
X215746Y129404D02*
X234600Y110551D01*
X233549Y107842D02*
X233638D01*
X233000Y108874D02*
X233180Y108694D01*
Y108211D02*
X233549Y107842D01*
X232414Y110424D02*
X233000Y109838D01*
X234600Y109941D02*
Y110551D01*
X233180Y108211D02*
Y108694D01*
X215746Y129404D02*
Y134392D01*
X255685Y107449D02*
Y107842D01*
X255398Y107161D02*
X255685Y107449D01*
X252365Y106873D02*
Y107530D01*
X248500Y103008D02*
X252365Y106873D01*
X252248Y107019D02*
Y107161D01*
X248500Y80815D02*
Y103008D01*
X282940Y146940D02*
X288000Y152000D01*
X279940Y146940D02*
X282940D01*
X276276Y143276D02*
X279940Y146940D01*
X365749Y62765D02*
X375602Y72618D01*
X377079D01*
X375602Y111988D02*
X377079D01*
X367000Y54000D02*
X368082D01*
X369090Y55008D01*
X362000Y62000D02*
X362765Y62765D01*
X365749D01*
X369090Y55008D02*
X375216D01*
X377079Y56870D01*
X193000Y91500D02*
Y112500D01*
X258176Y119341D02*
X260830D01*
X264373Y136664D02*
X303224D01*
X256949Y125572D02*
X259069Y123453D01*
X305247Y138688D02*
X306330D01*
X276954Y104865D02*
X277163D01*
X247641Y111073D02*
Y113876D01*
X251138Y126380D02*
X258176Y119341D01*
X264373Y114617D02*
X271777D01*
X252330Y118687D02*
X254826Y116191D01*
X270352Y111467D02*
X276954Y104865D01*
X254826Y116191D02*
X260830D01*
X262097Y139201D02*
X275172D01*
X242330Y119187D02*
X247641Y113876D01*
X238289Y119187D02*
X242330D01*
X254830Y141688D02*
X256949Y139568D01*
X303224Y136664D02*
X305247Y138688D01*
X271777Y114617D02*
X273206Y113188D01*
X264373Y111467D02*
X270352D01*
X261511Y138615D02*
X262097Y139201D01*
X273206Y113188D02*
X274289D01*
X260436Y122491D02*
X260830D01*
X256949Y125572D02*
Y139568D01*
X259069Y123453D02*
X259474D01*
X260436Y122491D01*
X275172Y139201D02*
X278658Y142687D01*
X260830Y138239D02*
X261224D01*
X261511Y138526D01*
Y138615D01*
X278658Y142687D02*
X299830D01*
X129928Y148000D02*
X130514Y147414D01*
X82000Y148874D02*
X82874Y148000D01*
X129928D01*
X130514Y144186D02*
Y147414D01*
X329839Y123000D02*
X335839Y117000D01*
X360748D02*
X375602Y102146D01*
X335839Y117000D02*
X360748D01*
X211000Y46000D02*
Y46591D01*
X148741Y32000D02*
X155000D01*
X146741Y30000D02*
X148741Y32000D01*
X265370Y87181D02*
Y102630D01*
Y86000D02*
Y87181D01*
X130900Y141733D02*
Y143800D01*
X130514Y144186D02*
X130900Y143800D01*
X81126Y134000D02*
X95000D01*
X270516Y121516D02*
X272000Y123000D01*
X264831Y121516D02*
X270516D01*
X272000Y123000D02*
X329839D01*
X264543Y121228D02*
X264831Y121516D01*
Y130390D02*
X330601D01*
X331021Y129969D01*
X264543Y130677D02*
X264831Y130390D01*
X375602Y82461D02*
X377079D01*
X375602Y102146D02*
X377079D01*
X264543Y118079D02*
X322521D01*
X125782Y124618D02*
X131000Y119400D01*
X125782Y124618D02*
Y143800D01*
X131000Y119400D02*
X132000D01*
X144400Y118000D02*
X145400D01*
X128341Y134059D02*
Y143800D01*
Y134059D02*
X144400Y118000D01*
X130900Y141733D02*
X147333Y125300D01*
X154000D01*
X132000Y93400D02*
Y108400D01*
X145400Y96500D02*
Y107000D01*
X118000Y50500D02*
Y63638D01*
X21374Y92500D02*
X73500D01*
X195394Y146732D02*
X210000D01*
X194827Y147299D02*
X195394Y146732D01*
X181929Y72000D02*
X183460Y73531D01*
X104000Y75000D02*
Y78000D01*
X113000Y87000D01*
X166500Y72315D02*
X166815Y72000D01*
X181052Y90552D02*
X181500Y91000D01*
X263858Y24205D02*
Y49795D01*
X17874Y89000D02*
X21374Y92500D01*
X73500D02*
X88500Y77500D01*
X113000Y87000D02*
Y107000D01*
X56000Y87000D02*
X57000D01*
X75453Y68547D01*
X104500Y82559D02*
Y97870D01*
X106000Y99370D01*
Y111357D01*
X76000Y94732D02*
Y107000D01*
X94000Y31000D02*
X106000Y43000D01*
X116819Y63638D02*
X118000D01*
X109941Y70516D02*
X116819Y63638D01*
X94000Y30000D02*
Y31000D01*
X79500Y30161D02*
X96984Y47646D01*
X77000Y9000D02*
X79500Y11500D01*
Y30161D01*
X194827Y134701D02*
X205433D01*
X209819Y130315D01*
X262116Y105884D02*
Y107711D01*
Y105884D02*
X265370Y102630D01*
X261984Y107842D02*
X262116Y107711D01*
X254000Y75315D02*
Y106157D01*
X255004Y107161D02*
X255398D01*
X254000Y106157D02*
X255004Y107161D01*
X248500Y80815D02*
X254000Y75315D01*
X243735Y98235D02*
X244500Y99000D01*
X222000Y74000D02*
Y75000D01*
X243735Y96735D01*
Y98235D01*
X127953Y30000D02*
X146741D01*
X213846Y127634D02*
Y128650D01*
Y127634D02*
X231057Y110424D01*
X240653Y102000D02*
X243087Y104434D01*
X233953Y102000D02*
X240653D01*
X243087Y104434D02*
Y107842D01*
X228453Y96500D02*
X233953Y102000D01*
X130681Y63732D02*
X132346Y62067D01*
X129500Y63732D02*
X130681D01*
X127953Y26953D02*
Y30000D01*
X110000Y9000D02*
X127953Y26953D01*
X88000Y9000D02*
X104094D01*
X105000Y30000D02*
X122047D01*
X118000Y63638D02*
X129406D01*
X129500Y63732D01*
X210815Y61500D02*
X211209D01*
X199791Y65437D02*
X200185D01*
X210815D02*
X214437D01*
X222000Y73000D01*
Y74000D01*
X252685D02*
X254000Y75315D01*
X264543Y143276D02*
X276276D01*
X209819Y130315D02*
X212181D01*
X210000Y140138D02*
Y146732D01*
X212181Y130315D02*
X213846Y128650D01*
X210000Y140138D02*
X215746Y134392D01*
X211500Y96500D02*
X222547D01*
X210000Y98000D02*
X211500Y96500D01*
X429000Y0D02*
Y167000D01*
X0D02*
X429000D01*
X0Y0D02*
Y167000D01*
Y0D02*
X429000D01*
D13*
X225397Y105168D02*
Y166191D01*
Y105168D02*
X266735D01*
Y166191D01*
X225397D02*
X266735D01*
D14*
X101512Y68547D02*
X106000Y64059D01*
X83984Y70516D02*
X90488D01*
X92366Y65307D02*
X93039D01*
X86500Y72484D02*
X90488D01*
X88059Y61000D02*
X92366Y65307D01*
X101512Y74453D02*
X103453D01*
X264543Y146425D02*
X274551D01*
X280126Y152000D01*
X209235Y44235D02*
X211000Y46000D01*
X203500Y34500D02*
X217000D01*
X155000Y32000D02*
X163000Y24000D01*
X99045Y77104D02*
Y78545D01*
X100676Y80176D02*
X102117D01*
X99045Y78545D02*
X100676Y80176D01*
X98953Y77012D02*
X99045Y77104D01*
X103453Y74453D02*
X104000Y75000D01*
X89707Y74545D02*
Y74545D01*
X88500Y75752D02*
X89707Y74545D01*
X89799Y74453D02*
X90488D01*
X89707Y74545D02*
X89799Y74453D01*
X88500Y75752D02*
Y77500D01*
X92000Y104400D02*
X94600Y107000D01*
X92000Y81455D02*
Y104400D01*
Y81455D02*
X94947Y78508D01*
Y77080D02*
Y78508D01*
Y77080D02*
X95016Y77012D01*
X94600Y107000D02*
X95000D01*
X75453Y68547D02*
X90488D01*
X102117Y80176D02*
X104500Y82559D01*
X76000Y94732D02*
X93047Y77685D01*
X106000Y43000D02*
Y64059D01*
X96984Y47646D02*
Y65988D01*
X101512Y70516D02*
X109941D01*
D15*
X90000Y73074D02*
Y70450D01*
X90525Y69925D01*
X91574D01*
X92099Y70450D01*
Y73074D01*
X95248Y69925D02*
X93149D01*
X95248Y72024D01*
Y72549D01*
X94723Y73074D01*
X93673D01*
X93149Y72549D01*
D16*
X95606Y73862D02*
G03*
X95606Y73862I-1969J0D01*
G01*
D02*
G03*
X95606Y73862I-1969J0D01*
G01*
X112790Y153190D02*
G03*
X111018Y151418I-0J-1772D01*
G01*
X110034Y146753D02*
G03*
X113183Y143603I3150J0D01*
G01*
X113183Y155807D02*
G03*
X110034Y152658I-0J-3149D01*
G01*
X111018Y144824D02*
G03*
X113183Y142225I2382J-216D01*
G01*
X117810Y141438D02*
G03*
X120959Y138288I3150J-0D01*
G01*
X140546Y151418D02*
G03*
X138774Y153190I-1772J-0D01*
G01*
X138380Y143603D02*
G03*
X141530Y146753I0J3150D01*
G01*
Y152658D02*
G03*
X138379Y155807I-3150J-1D01*
G01*
X138380Y142225D02*
G03*
X140546Y144824I-216J2382D01*
G01*
X130605Y138288D02*
G03*
X133754Y141438I0J3150D01*
G01*
X423949Y30266D02*
Y142864D01*
X314502Y30266D02*
Y142864D01*
X423949D01*
X314502Y30266D02*
X423949D01*
X272449Y140976D02*
X295677D01*
Y158693D01*
X272449Y140976D02*
Y158693D01*
X295677D01*
X90095Y65595D02*
Y77406D01*
X101906Y65595D02*
Y77406D01*
X90095D02*
X101906D01*
X90095Y65595D02*
X101906D01*
X2386Y128858D02*
X25614D01*
X2386Y111142D02*
Y128858D01*
X25614Y111142D02*
Y128858D01*
X2386Y111142D02*
X25614D01*
X2323Y82307D02*
X25551D01*
Y100024D01*
X2323Y82307D02*
Y100024D01*
X25551D01*
X90094Y65594D02*
Y77406D01*
X101906Y65594D02*
Y77406D01*
X90094D02*
X101906D01*
X2386Y140142D02*
X25614D01*
Y157858D01*
X2386Y140142D02*
Y157858D01*
X25614D01*
X206457Y145354D02*
X213543D01*
X206457Y158740D02*
X213543D01*
X206457Y145354D02*
Y158740D01*
X213543Y145354D02*
Y158740D01*
X199594Y55594D02*
Y67406D01*
Y55594D02*
X211406D01*
Y67406D01*
X199594D02*
X211406D01*
X199594Y55594D02*
X211405D01*
Y67405D01*
X199594D02*
X211405D01*
X199594Y55594D02*
Y67405D01*
X199748Y133520D02*
Y148480D01*
X168252D02*
X199748D01*
X168252Y133520D02*
Y148480D01*
Y133520D02*
X199748D01*
X143937Y20780D02*
X186063D01*
Y39283D01*
X143937Y20780D02*
Y39283D01*
X186063D01*
X143937Y26291D02*
X186063D01*
X270323Y70693D02*
X309299D01*
Y52976D02*
Y70693D01*
X270323Y52976D02*
Y70693D01*
Y52976D02*
X309299D01*
X110034Y146753D02*
Y152658D01*
X111018Y144824D02*
Y151418D01*
X113183Y143603D02*
X117809D01*
Y141438D02*
Y143603D01*
X141530Y146753D02*
Y152658D01*
X140546Y144824D02*
Y151418D01*
X112790Y153190D02*
X138774D01*
X113183Y142225D02*
X138380D01*
X133754Y143603D02*
X138380D01*
X113183Y155807D02*
X138379D01*
X133754Y141438D02*
Y143603D01*
X120959Y138288D02*
X130605D01*
X198992Y49543D02*
X212378D01*
X198992Y42457D02*
X212378D01*
X198992D02*
Y49543D01*
X212378Y42457D02*
Y49543D01*
X181457Y73878D02*
X188543D01*
X181457Y60492D02*
X188543D01*
Y73878D01*
X181457Y60492D02*
Y73878D01*
X160957Y74378D02*
X168043D01*
X160957Y60992D02*
X168043D01*
Y74378D01*
X160957Y60992D02*
Y74378D01*
X114457Y62260D02*
X121543D01*
X114457Y75646D02*
X121543D01*
X114457Y62260D02*
Y75646D01*
X121543Y62260D02*
Y75646D01*
X125957Y62354D02*
X133043D01*
X125957Y75740D02*
X133043D01*
X125957Y62354D02*
Y75740D01*
X133043Y62354D02*
Y75740D01*
X263992Y82457D02*
Y89543D01*
X277378Y82457D02*
Y89543D01*
X263992D02*
X277378D01*
X263992Y82457D02*
X277378D01*
X207457Y131693D02*
X214543D01*
X207457Y118307D02*
X214543D01*
Y131693D01*
X207457Y118307D02*
Y131693D01*
X250457Y76693D02*
X257543D01*
X250457Y63307D02*
X257543D01*
Y76693D01*
X250457Y63307D02*
Y76693D01*
X361203Y86565D02*
X365140D01*
X363171Y84596D02*
Y88533D01*
X284063Y147866D02*
Y151803D01*
X282095Y149835D02*
X286032D01*
X94032Y71500D02*
X97969D01*
X96000Y69532D02*
Y73469D01*
X14000Y118031D02*
Y121968D01*
X12031Y120000D02*
X15968D01*
X11968Y91165D02*
X15905D01*
X13937Y89197D02*
Y93134D01*
X12031Y149000D02*
X15968D01*
X14000Y147031D02*
Y150968D01*
X206260Y144173D02*
X213740D01*
X206260Y159921D02*
X213740D01*
X206260Y144173D02*
Y159921D01*
X213740Y144173D02*
Y159921D01*
X210000Y150079D02*
Y154016D01*
X208032Y152047D02*
X211969D01*
X203532Y61500D02*
X207469D01*
X205500Y59532D02*
Y63469D01*
X184000Y139032D02*
Y142969D01*
X182032Y141000D02*
X185969D01*
X165000Y30032D02*
Y33969D01*
X163031Y32000D02*
X166969D01*
X287843Y61835D02*
X291780D01*
X289811Y59866D02*
Y63803D01*
X125782Y145080D02*
Y149016D01*
X123813Y147048D02*
X127750D01*
X205685Y44031D02*
Y47969D01*
X203717Y46000D02*
X207654D01*
X197811Y49740D02*
X213559D01*
X197811Y42260D02*
X213559D01*
X197811D02*
Y49740D01*
X213559Y42260D02*
Y49740D01*
X181260Y75059D02*
X188740D01*
X181260Y59311D02*
X188740D01*
Y75059D01*
X181260Y59311D02*
Y75059D01*
X185000Y65217D02*
Y69154D01*
X183032Y67185D02*
X186969D01*
X160760Y75559D02*
X168240D01*
X160760Y59811D02*
X168240D01*
Y75559D01*
X160760Y59811D02*
Y75559D01*
X164500Y65717D02*
Y69654D01*
X162532Y67685D02*
X166469D01*
X114260Y61079D02*
X121740D01*
X114260Y76827D02*
X121740D01*
X114260Y61079D02*
Y76827D01*
X121740Y61079D02*
Y76827D01*
X118000Y66984D02*
Y70921D01*
X116032Y68953D02*
X119969D01*
X125760Y61173D02*
X133240D01*
X125760Y76921D02*
X133240D01*
X125760Y61173D02*
Y76921D01*
X133240Y61173D02*
Y76921D01*
X129500Y67079D02*
Y71016D01*
X127532Y69047D02*
X131469D01*
X262811Y82260D02*
Y89740D01*
X278559Y82260D02*
Y89740D01*
X262811D02*
X278559D01*
X262811Y82260D02*
X278559D01*
X268717Y86000D02*
X272654D01*
X270685Y84032D02*
Y87969D01*
X207260Y132874D02*
X214740D01*
X207260Y117126D02*
X214740D01*
Y132874D01*
X207260Y117126D02*
Y132874D01*
X211000Y123032D02*
Y126969D01*
X209032Y125000D02*
X212969D01*
X250260Y77874D02*
X257740D01*
X250260Y62126D02*
X257740D01*
Y77874D01*
X250260Y62126D02*
Y77874D01*
X254000Y68032D02*
Y71969D01*
X252032Y70000D02*
X255969D01*
D17*
X424344Y28545D02*
Y144683D01*
X312925D02*
X424344D01*
X312925Y28545D02*
Y144683D01*
Y28545D02*
X424344D01*
X272055Y140583D02*
X296071D01*
Y159087D01*
X272055Y140583D02*
Y159087D01*
X296071D01*
X88126Y63626D02*
Y79374D01*
X103874Y63626D02*
Y79374D01*
X88126D02*
X103874D01*
X88126Y63626D02*
X103874D01*
X1992Y129252D02*
X26008D01*
X1992Y110748D02*
Y129252D01*
X26008Y110748D02*
Y129252D01*
X1992Y110748D02*
X26008D01*
X1929Y81913D02*
X25945D01*
Y100417D01*
X1929Y81913D02*
Y100417D01*
X25945D01*
X88126Y63626D02*
Y79374D01*
X103874Y63626D02*
Y79374D01*
X88126D02*
X103874D01*
X88126Y63626D02*
X103874D01*
X224412Y104183D02*
Y151231D01*
Y104183D02*
X267720D01*
Y151231D01*
X270475D01*
Y167176D01*
X221657D02*
X270475D01*
X221657Y151231D02*
Y167176D01*
Y151231D02*
X224412D01*
X1992Y139748D02*
X26008D01*
Y158252D01*
X1992Y139748D02*
Y158252D01*
X26008D01*
X198610Y55201D02*
Y67799D01*
Y55201D02*
X212390D01*
Y67799D01*
X198610D02*
X212390D01*
X200142Y130567D02*
Y151433D01*
X167858D02*
X200142D01*
X167858Y130567D02*
Y151433D01*
Y130567D02*
X200142D01*
X269929Y71087D02*
X309693D01*
Y52583D02*
Y71087D01*
X269929Y52583D02*
Y71087D01*
Y52583D02*
X309693D01*
X141924Y137895D02*
Y156201D01*
X109640D02*
X141924D01*
X109640Y137895D02*
X141924D01*
X109640D02*
Y156201D01*
D38*
X222547Y96500D02*
D03*
X228453D02*
D03*
X110000Y9000D02*
D03*
X104094D02*
D03*
X127953Y30000D02*
D03*
X122047D02*
D03*
D39*
X82000Y133126D02*
D03*
Y148874D02*
D03*
X59000Y134126D02*
D03*
Y149874D02*
D03*
D45*
X263858Y49795D02*
D03*
Y24205D02*
D03*
X246142Y49795D02*
D03*
D46*
Y24205D02*
D03*
D51*
X348713Y31890D02*
D03*
D52*
X393476Y34449D02*
D03*
Y39173D02*
D03*
D53*
X391350Y141240D02*
D03*
D54*
X409776Y131772D02*
D03*
Y38071D02*
D03*
D55*
X377079Y102146D02*
D03*
Y92303D02*
D03*
Y82461D02*
D03*
Y72618D02*
D03*
Y62776D02*
D03*
Y111988D02*
D03*
Y56870D02*
D03*
Y50965D02*
D03*
Y121831D02*
D03*
D56*
X316567Y31890D02*
D03*
D57*
X317000Y55000D02*
D03*
D58*
X321528Y141240D02*
D03*
D59*
X96000Y71500D02*
D03*
D60*
X93047Y77012D02*
D03*
X95016D02*
D03*
X96984D02*
D03*
X98953D02*
D03*
Y65988D02*
D03*
X96984D02*
D03*
X95016D02*
D03*
X93047D02*
D03*
D61*
X101512Y74453D02*
D03*
Y72484D02*
D03*
Y70516D02*
D03*
Y68547D02*
D03*
X90488D02*
D03*
Y70516D02*
D03*
Y72484D02*
D03*
Y74453D02*
D03*
D62*
X253940Y133514D02*
D03*
X250790D02*
D03*
X247641D02*
D03*
X244491D02*
D03*
X241342D02*
D03*
X238192D02*
D03*
X264964Y107530D02*
D03*
X261814D02*
D03*
X258664D02*
D03*
X255515D02*
D03*
X253940Y111073D02*
D03*
X252365Y107530D02*
D03*
X250790Y111073D02*
D03*
X249216Y107530D02*
D03*
X247641Y111073D02*
D03*
X246066Y107530D02*
D03*
X244491Y111073D02*
D03*
X242916Y107530D02*
D03*
X241342Y111073D02*
D03*
X239767Y107530D02*
D03*
X238192Y111073D02*
D03*
X236617Y107530D02*
D03*
X233468D02*
D03*
X230318D02*
D03*
X227168D02*
D03*
D63*
X264373Y150443D02*
D03*
X260830Y147687D02*
D03*
X264373Y146113D02*
D03*
X260830Y144538D02*
D03*
X264373Y142963D02*
D03*
X260830Y141388D02*
D03*
Y138239D02*
D03*
X264373Y136664D02*
D03*
X260830Y135089D02*
D03*
X264373Y133514D02*
D03*
X260830Y131939D02*
D03*
X264373Y130365D02*
D03*
X260830Y128790D02*
D03*
Y125640D02*
D03*
X264373Y124065D02*
D03*
X260830Y122491D02*
D03*
X264373Y120916D02*
D03*
X260830Y119341D02*
D03*
X264373Y117766D02*
D03*
X260830Y116191D02*
D03*
X264373Y114617D02*
D03*
Y111467D02*
D03*
X227759Y120916D02*
D03*
X231302Y122491D02*
D03*
X227759Y124065D02*
D03*
X231302Y125640D02*
D03*
X227759Y127215D02*
D03*
X231302Y128790D02*
D03*
X227759Y130365D02*
D03*
X231302Y131939D02*
D03*
X227759Y133514D02*
D03*
X231302Y135089D02*
D03*
X227759Y136664D02*
D03*
Y142963D02*
D03*
Y146113D02*
D03*
Y150443D02*
D03*
D64*
X210000Y146732D02*
D03*
Y157362D02*
D03*
X185000Y72500D02*
D03*
Y61870D02*
D03*
X164500Y73000D02*
D03*
Y62370D02*
D03*
X118000Y63638D02*
D03*
Y74268D02*
D03*
X129500Y63732D02*
D03*
Y74362D02*
D03*
X211000Y130315D02*
D03*
Y119685D02*
D03*
X254000Y75315D02*
D03*
Y64685D02*
D03*
D65*
X113000Y107000D02*
D03*
Y118000D02*
D03*
X210000Y109000D02*
D03*
Y98000D02*
D03*
X132000Y119400D02*
D03*
Y108400D02*
D03*
X145400Y107000D02*
D03*
Y118000D02*
D03*
X56000Y87000D02*
D03*
Y98000D02*
D03*
X76000Y107000D02*
D03*
Y118000D02*
D03*
X95000Y107000D02*
D03*
Y118000D02*
D03*
D66*
X200185Y57563D02*
D03*
X210815D02*
D03*
Y65437D02*
D03*
Y61500D02*
D03*
X200185D02*
D03*
Y65437D02*
D03*
D67*
X205500Y61500D02*
D03*
D68*
X173173Y147299D02*
D03*
Y134701D02*
D03*
X194827Y147299D02*
D03*
Y134701D02*
D03*
D69*
X77000Y9000D02*
D03*
X88000D02*
D03*
X94000Y30000D02*
D03*
X105000D02*
D03*
X192500Y91000D02*
D03*
X181500D02*
D03*
X233000Y74000D02*
D03*
X222000D02*
D03*
D70*
X130900Y143800D02*
D03*
X128341D02*
D03*
X125782D02*
D03*
X123223D02*
D03*
X120664D02*
D03*
D71*
X200370Y46000D02*
D03*
X211000D02*
D03*
X265370Y86000D02*
D03*
X276000D02*
D03*
D72*
X166815Y72000D02*
X175000D01*
X223083Y58673D02*
X223173D01*
X214036D02*
X223083D01*
X345000Y36000D02*
X356979Y47979D01*
X332000Y36000D02*
X345000D01*
X356979Y47979D02*
Y63837D01*
X328000Y40000D02*
Y59951D01*
Y40000D02*
X332000Y36000D01*
X155000Y42327D02*
X157000Y44327D01*
X155000Y32000D02*
Y42327D01*
X157000Y44327D02*
Y55000D01*
X211000Y47181D02*
X212565Y48746D01*
X213156D02*
X223083Y58673D01*
X211000Y46591D02*
Y47181D01*
X212565Y48746D02*
X213156D01*
X209235Y40235D02*
Y44235D01*
X203500Y34500D02*
X209235Y40235D01*
X193000Y24000D02*
X203500Y34500D01*
X163000Y24000D02*
X193000D01*
X260703Y86892D02*
X264478D01*
X260000Y87595D02*
X260703Y86892D01*
X260000Y87595D02*
Y99000D01*
X259500Y99500D02*
X260000Y99000D01*
X264478Y86892D02*
X265370Y86000D01*
X17937Y146835D02*
X21102Y150000D01*
X59000D01*
X75126Y140000D02*
X81126Y134000D01*
X82000Y133126D01*
X323951Y64000D02*
X328000Y59951D01*
X356979Y63837D02*
X375602Y82461D01*
X301622Y64000D02*
X323951D01*
X296000Y58378D02*
X301622Y64000D01*
X183460Y73531D02*
Y79950D01*
X181500Y81910D02*
X183460Y79950D01*
X175000Y72000D02*
X181929D01*
X181500Y81910D02*
Y90552D01*
X240500Y11000D02*
X271500D01*
X217000Y34500D02*
X240500Y11000D01*
X296000Y35500D02*
Y58378D01*
X271500Y11000D02*
X296000Y35500D01*
X211209Y61500D02*
X214036Y58673D01*
X223173D02*
X233000Y68500D01*
Y74000D01*
X252685D01*
X59126Y134126D02*
X65000Y140000D01*
X64874D02*
X75126D01*
D73*
X288000Y152000D02*
D03*
X10063Y117835D02*
D03*
X10000Y89000D02*
D03*
X10063Y146835D02*
D03*
X301622Y64000D02*
D03*
X285874D02*
D03*
X293748D02*
D03*
D74*
X280126Y152000D02*
D03*
X17937Y117835D02*
D03*
X17874Y89000D02*
D03*
X17937Y146835D02*
D03*
X278000Y64000D02*
D03*
D75*
X155000Y32000D02*
D03*
X165000D02*
D03*
D76*
X175000D02*
D03*
D77*
X125782Y151280D02*
D03*
D78*
X114758Y142816D02*
D03*
X136805D02*
D03*
D79*
X375000Y132000D02*
D03*
X360000Y128000D02*
D03*
X395000Y92000D02*
D03*
X355000D02*
D03*
X84000Y61000D02*
D03*
X75500Y79500D02*
D03*
X415000Y52000D02*
D03*
X395000Y12000D02*
D03*
X355000D02*
D03*
X315000Y92000D02*
D03*
Y12000D02*
D03*
X255000Y52000D02*
D03*
X195000Y12000D02*
D03*
X175000Y52000D02*
D03*
X155000Y12000D02*
D03*
X55000Y52000D02*
D03*
X35000Y12000D02*
D03*
X362000Y62000D02*
D03*
X367000Y54000D02*
D03*
X193000Y112500D02*
D03*
X238289Y119187D02*
D03*
X251138Y126380D02*
D03*
X274289Y113188D02*
D03*
X252330Y118687D02*
D03*
X277163Y104865D02*
D03*
X254830Y141688D02*
D03*
X306330Y138688D02*
D03*
X299830Y142687D02*
D03*
X157000Y55000D02*
D03*
X175000Y72000D02*
D03*
X322000Y118000D02*
D03*
X331021Y129969D02*
D03*
X154000Y125300D02*
D03*
X132000Y93400D02*
D03*
X145400Y96500D02*
D03*
X95000Y134000D02*
D03*
X106000Y112500D02*
D03*
X118000Y50500D02*
D03*
X259500Y99500D02*
D03*
X244500Y99000D02*
D03*
D80*
X94032Y69532D02*
D03*
Y73469D02*
D03*
X97969D02*
D03*
Y69532D02*
D03*
X96000Y71500D02*
D03*
M02*
